<svg width="689" height="157" viewBox="0 0 689 157" fill="none" xmlns="http://www.w3.org/2000/svg">
<path d="M196.7 116V46.2H229.7C232.967 46.2 235.9 46.7667 238.5 47.9C241.1 48.9667 243.3 50.4667 245.1 52.4C246.967 54.3333 248.4 56.7 249.4 59.5C250.4 62.2333 250.9 65.2333 250.9 68.5C250.9 71.8333 250.4 74.8667 249.4 77.6C248.4 80.3333 246.967 82.6667 245.1 84.6C243.3 86.5333 241.1 88.0667 238.5 89.2C235.9 90.2667 232.967 90.8 229.7 90.8H211.9V116H196.7ZM211.9 77.6H227.9C230.167 77.6 231.933 77.0333 233.2 75.9C234.533 74.7 235.2 72.9667 235.2 70.7V66.3C235.2 64.0333 234.533 62.3333 233.2 61.2C231.933 60 230.167 59.4 227.9 59.4H211.9V77.6ZM281.472 117.2C277.472 117.2 273.905 116.567 270.772 115.3C267.639 113.967 264.972 112.133 262.772 109.8C260.639 107.4 259.005 104.5 257.872 101.1C256.805 97.7 256.272 93.9 256.272 89.7C256.272 85.5667 256.805 81.8333 257.872 78.5C258.939 75.1 260.505 72.2 262.572 69.8C264.705 67.4 267.305 65.5667 270.372 64.3C273.439 62.9667 276.939 62.3 280.872 62.3C285.205 62.3 288.905 63.0333 291.972 64.5C295.105 65.9667 297.639 67.9333 299.572 70.4C301.572 72.8667 303.005 75.7333 303.872 79C304.805 82.2 305.272 85.5667 305.272 89.1V93.5H271.572V94.3C271.572 97.7667 272.505 100.533 274.372 102.6C276.239 104.6 279.172 105.6 283.172 105.6C286.239 105.6 288.739 105 290.672 103.8C292.605 102.533 294.405 101.033 296.072 99.3L303.472 108.5C301.139 111.233 298.072 113.367 294.272 114.9C290.539 116.433 286.272 117.2 281.472 117.2ZM281.172 73.2C278.172 73.2 275.805 74.2 274.072 76.2C272.405 78.1333 271.572 80.7333 271.572 84V84.8H289.972V83.9C289.972 80.7 289.239 78.1333 287.772 76.2C286.372 74.2 284.172 73.2 281.172 73.2ZM315.724 116V63.5H330.524V74.9H331.024C331.291 73.4333 331.758 72.0333 332.424 70.7C333.091 69.3 333.958 68.0667 335.024 67C336.158 65.9333 337.491 65.1 339.024 64.5C340.558 63.8333 342.358 63.5 344.424 63.5H347.024V77.3H343.324C338.991 77.3 335.758 77.8667 333.624 79C331.558 80.1333 330.524 82.2333 330.524 85.3V116H315.724ZM373.954 117.2C368.887 117.2 364.621 116.4 361.154 114.8C357.687 113.133 354.587 110.8 351.854 107.8L360.554 99C362.421 101.067 364.487 102.7 366.754 103.9C369.021 105.1 371.587 105.7 374.454 105.7C377.387 105.7 379.421 105.267 380.554 104.4C381.687 103.467 382.254 102.233 382.254 100.7C382.254 98.2333 380.487 96.7667 376.954 96.3L371.254 95.6C359.454 94.1333 353.554 88.7333 353.554 79.4C353.554 76.8667 354.021 74.5667 354.954 72.5C355.954 70.3667 357.321 68.5667 359.054 67.1C360.854 65.5667 362.987 64.4 365.454 63.6C367.987 62.7333 370.821 62.3 373.954 62.3C376.687 62.3 379.087 62.5 381.154 62.9C383.287 63.2333 385.154 63.7667 386.754 64.5C388.421 65.1667 389.921 66.0333 391.254 67.1C392.654 68.1 394.021 69.2333 395.354 70.5L386.854 79.2C385.187 77.5333 383.287 76.2333 381.154 75.3C379.087 74.3 376.954 73.8 374.754 73.8C372.221 73.8 370.421 74.2 369.354 75C368.287 75.8 367.754 76.8667 367.754 78.2C367.754 79.6 368.121 80.7 368.854 81.5C369.654 82.2333 371.121 82.7667 373.254 83.1L379.154 83.9C390.687 85.4333 396.454 90.7 396.454 99.7C396.454 102.233 395.921 104.567 394.854 106.7C393.787 108.833 392.254 110.7 390.254 112.3C388.321 113.833 385.954 115.033 383.154 115.9C380.421 116.767 377.354 117.2 373.954 117.2ZM406.545 63.5H421.345V72.3H421.845C422.578 69.3667 424.245 66.9667 426.845 65.1C429.511 63.2333 432.545 62.3 435.945 62.3C442.611 62.3 447.645 64.6333 451.045 69.3C454.445 73.9667 456.145 80.7667 456.145 89.7C456.145 98.6333 454.445 105.467 451.045 110.2C447.645 114.867 442.611 117.2 435.945 117.2C434.211 117.2 432.578 116.933 431.045 116.4C429.511 115.933 428.111 115.267 426.845 114.4C425.645 113.467 424.611 112.4 423.745 111.2C422.878 109.933 422.245 108.6 421.845 107.2H421.345V136H406.545V63.5ZM431.045 105.2C433.845 105.2 436.145 104.233 437.945 102.3C439.811 100.3 440.745 97.6333 440.745 94.3V85.2C440.745 81.8667 439.811 79.2333 437.945 77.3C436.145 75.3 433.845 74.3 431.045 74.3C428.245 74.3 425.911 75 424.045 76.4C422.245 77.7333 421.345 79.6 421.345 82V97.5C421.345 99.9 422.245 101.8 424.045 103.2C425.911 104.533 428.245 105.2 431.045 105.2ZM489.284 117.2C485.284 117.2 481.718 116.567 478.584 115.3C475.451 113.967 472.784 112.133 470.584 109.8C468.451 107.4 466.818 104.5 465.684 101.1C464.618 97.7 464.084 93.9 464.084 89.7C464.084 85.5667 464.618 81.8333 465.684 78.5C466.751 75.1 468.318 72.2 470.384 69.8C472.518 67.4 475.118 65.5667 478.184 64.3C481.251 62.9667 484.751 62.3 488.684 62.3C493.018 62.3 496.718 63.0333 499.784 64.5C502.918 65.9667 505.451 67.9333 507.384 70.4C509.384 72.8667 510.818 75.7333 511.684 79C512.618 82.2 513.084 85.5667 513.084 89.1V93.5H479.384V94.3C479.384 97.7667 480.318 100.533 482.184 102.6C484.051 104.6 486.984 105.6 490.984 105.6C494.051 105.6 496.551 105 498.484 103.8C500.418 102.533 502.218 101.033 503.884 99.3L511.284 108.5C508.951 111.233 505.884 113.367 502.084 114.9C498.351 116.433 494.084 117.2 489.284 117.2ZM488.984 73.2C485.984 73.2 483.618 74.2 481.884 76.2C480.218 78.1333 479.384 80.7333 479.384 84V84.8H497.784V83.9C497.784 80.7 497.051 78.1333 495.584 76.2C494.184 74.2 491.984 73.2 488.984 73.2ZM544.737 117.2C540.803 117.2 537.303 116.567 534.237 115.3C531.17 113.967 528.603 112.133 526.537 109.8C524.47 107.4 522.903 104.5 521.837 101.1C520.77 97.7 520.237 93.9 520.237 89.7C520.237 85.5 520.77 81.7333 521.837 78.4C522.903 75 524.47 72.1 526.537 69.7C528.603 67.3 531.17 65.4667 534.237 64.2C537.303 62.9333 540.803 62.3 544.737 62.3C550.07 62.3 554.503 63.5 558.037 65.9C561.637 68.3 564.203 71.6667 565.737 76L553.737 81.2C553.27 79.2 552.303 77.5 550.837 76.1C549.37 74.7 547.337 74 544.737 74C541.737 74 539.47 75 537.937 77C536.403 78.9333 535.637 81.5667 535.637 84.9V94.7C535.637 98.0333 536.403 100.667 537.937 102.6C539.47 104.533 541.737 105.5 544.737 105.5C547.403 105.5 549.503 104.8 551.037 103.4C552.637 101.933 553.803 100.033 554.537 97.7L566.037 102.7C564.303 107.7 561.603 111.367 557.937 113.7C554.337 116.033 549.937 117.2 544.737 117.2ZM593.597 116C588.464 116 584.564 114.7 581.897 112.1C579.297 109.5 577.997 105.7 577.997 100.7V75H570.597V63.5H574.297C576.297 63.5 577.664 63.0333 578.397 62.1C579.13 61.1 579.497 59.7 579.497 57.9V49.3H592.797V63.5H603.197V75H592.797V104.5H602.397V116H593.597ZM620.878 57.9C617.878 57.9 615.678 57.2333 614.278 55.9C612.945 54.5 612.278 52.7333 612.278 50.6V48.4C612.278 46.2667 612.945 44.5333 614.278 43.2C615.678 41.8 617.878 41.1 620.878 41.1C623.878 41.1 626.045 41.8 627.378 43.2C628.778 44.5333 629.478 46.2667 629.478 48.4V50.6C629.478 52.7333 628.778 54.5 627.378 55.9C626.045 57.2333 623.878 57.9 620.878 57.9ZM613.478 63.5H628.278V116H613.478V63.5ZM653.291 116L636.091 63.5H650.691L657.191 84.7L662.091 103.7H662.891L667.791 84.7L674.091 63.5H688.091L670.891 116H653.291Z" fill="white"/>
<path d="M165.345 18.4467C147.755 43.7683 132.075 67.5482 117.395 94.8208C107.902 112.459 99.348 132.257 89.0837 149.221C88.2433 150.613 86.4281 153.447 85.4733 154.605C85.0058 155.174 83.7427 156.566 83.131 156.745C81.848 157.124 74.9156 157.025 73.3293 156.805C60.494 155.034 30.2333 123.455 21.3267 113.042C15.4486 106.172 5.25892 93.748 1.83252 85.8447C-0.748459 79.8972 -1.73808 68.7557 6.69611 67.5832C20.352 65.6822 40.0997 76.699 51.3337 84.0834C57.6842 88.2596 63.2938 93.4387 69.7487 97.4403C75.2289 90.3602 79.635 82.4219 84.7572 75.0524C98.0898 55.8778 113.362 36.6334 130.723 20.8816C137.72 14.525 154.474 0.753979 163.286 0.15524C167.935 -0.159097 173.848 -0.62312 172.899 5.78837C172.396 9.15627 167.443 15.433 165.35 18.4467H165.345ZM156.587 16.1465C156.105 15.6426 151.321 19.7839 150.615 20.3776C125.844 41.2237 102.232 74.4986 85.5728 102.31C84.0461 104.855 77.5812 117.962 76.0196 118.671C72.9563 120.058 69.3857 117.149 66.9638 115.437C60.9664 111.201 55.2524 106.037 49.1307 101.756C43.4416 97.7746 30.8798 88.6538 24.8227 86.7278C24.1762 86.5233 22.8285 86.179 22.3213 86.7428C33.7094 101.287 46.6491 115.532 60.8719 127.422C61.7521 128.161 62.4384 128.684 63.3385 129.393C65.6261 131.194 73.8216 138.369 76.507 137.157C77.3474 136.777 85.7568 124.528 86.9801 122.682C104.197 96.7268 119.051 69.4043 136.974 43.6137C142.827 35.1914 150.321 26.5247 155.796 18.0924C156.194 17.4837 156.726 16.9598 156.582 16.1416L156.587 16.1465Z" fill="#36CCFE"/>
</svg>
