<svg width="27" height="33" viewBox="0 0 27 33" fill="none" xmlns="http://www.w3.org/2000/svg">
<path fill-rule="evenodd" clip-rule="evenodd" d="M17.8628 32H8.4964C4.28705 31.9284 0.931985 28.4594 1.00105 24.25V16.5C0.96267 13.0153 3.26649 9.93814 6.6209 8.99357V7.975C6.50911 4.23896 9.44377 1.11803 13.1796 1C16.9155 1.11803 19.8501 4.23896 19.7383 7.975V8.99357C23.0927 9.93814 25.3966 13.0153 25.3582 16.5V24.25C25.4273 28.4594 22.0722 31.9284 17.8628 32Z" stroke="white" stroke-width="1.5" stroke-linecap="round" stroke-linejoin="round"/>
<path d="M19.5399 9.71846C19.9403 9.82475 20.351 9.58638 20.4573 9.18603C20.5636 8.78569 20.3252 8.37498 19.9249 8.26869L19.5399 9.71846ZM17.8591 8.75L17.8591 9.5L17.8598 9.5L17.8591 8.75ZM8.49047 8.75L8.48978 9.5H8.49047V8.75ZM6.42473 8.26869C6.02438 8.37498 5.78601 8.78569 5.8923 9.18603C5.99859 9.58638 6.4093 9.82475 6.80965 9.71846L6.42473 8.26869ZM19.7324 8.99357L19.9249 8.26869C19.2507 8.08968 18.556 7.99936 17.8584 8L17.8591 8.75L17.8598 9.5C18.427 9.49948 18.9918 9.57292 19.5399 9.71846L19.7324 8.99357ZM17.8591 8.75V8H8.49047V8.75V9.5H17.8591V8.75ZM8.49047 8.75L8.49116 8C7.7936 7.99936 7.09893 8.08968 6.42473 8.26869L6.61719 8.99357L6.80965 9.71846C7.35782 9.57292 7.92262 9.49948 8.48978 9.5L8.49047 8.75Z" fill="white"/>
<path d="M8.57741 19.8189C8.54901 19.5324 8.42708 19.3099 8.21165 19.1513C7.99621 18.9927 7.70384 18.9134 7.33452 18.9134C7.08357 18.9134 6.87169 18.9489 6.69886 19.0199C6.52604 19.0885 6.39347 19.1844 6.30114 19.3075C6.21117 19.4306 6.16619 19.5703 6.16619 19.7266C6.16146 19.8568 6.18868 19.9704 6.24787 20.0675C6.30942 20.1645 6.39347 20.2486 6.5 20.3196C6.60653 20.3883 6.72964 20.4486 6.86932 20.5007C7.009 20.5504 7.15814 20.593 7.31676 20.6286L7.97017 20.7848C8.28741 20.8558 8.5786 20.9505 8.84375 21.0689C9.1089 21.1873 9.33854 21.3329 9.53267 21.5057C9.7268 21.6785 9.87713 21.8821 9.98366 22.1165C10.0926 22.3509 10.1482 22.6196 10.1506 22.9226C10.1482 23.3677 10.0346 23.7536 9.80966 24.0803C9.58712 24.4046 9.26515 24.6567 8.84375 24.8366C8.42472 25.0142 7.91927 25.103 7.32741 25.103C6.74029 25.103 6.22893 25.013 5.79332 24.8331C5.36009 24.6532 5.02154 24.3868 4.7777 24.0341C4.53622 23.679 4.40956 23.2398 4.39773 22.7166H5.88565C5.90223 22.9605 5.97206 23.1641 6.09517 23.3274C6.22064 23.4884 6.38755 23.6103 6.59588 23.6932C6.80658 23.7737 7.04451 23.8139 7.30966 23.8139C7.57008 23.8139 7.79616 23.776 7.98793 23.7003C8.18205 23.6245 8.33239 23.5192 8.43892 23.3842C8.54545 23.2493 8.59872 23.0942 8.59872 22.919C8.59872 22.7557 8.55019 22.6184 8.45312 22.5071C8.35843 22.3958 8.21875 22.3011 8.03409 22.223C7.8518 22.1449 7.62808 22.0739 7.36293 22.0099L6.57102 21.8111C5.95786 21.6619 5.47372 21.4287 5.11861 21.1115C4.76349 20.7943 4.58712 20.367 4.58949 19.8295C4.58712 19.3892 4.70431 19.0045 4.94105 18.6754C5.18016 18.3464 5.50805 18.0895 5.92472 17.9048C6.34138 17.7202 6.81487 17.6278 7.34517 17.6278C7.88494 17.6278 8.35606 17.7202 8.75852 17.9048C9.16335 18.0895 9.47822 18.3464 9.70312 18.6754C9.92803 19.0045 10.044 19.3857 10.0511 19.8189H8.57741ZM15.1301 19.8189C15.1017 19.5324 14.9798 19.3099 14.7644 19.1513C14.5489 18.9927 14.2566 18.9134 13.8873 18.9134C13.6363 18.9134 13.4244 18.9489 13.2516 19.0199C13.0788 19.0885 12.9462 19.1844 12.8539 19.3075C12.7639 19.4306 12.7189 19.5703 12.7189 19.7266C12.7142 19.8568 12.7414 19.9704 12.8006 20.0675C12.8622 20.1645 12.9462 20.2486 13.0527 20.3196C13.1593 20.3883 13.2824 20.4486 13.4221 20.5007C13.5617 20.5504 13.7109 20.593 13.8695 20.6286L14.5229 20.7848C14.8401 20.8558 15.1313 20.9505 15.3965 21.0689C15.6616 21.1873 15.8913 21.3329 16.0854 21.5057C16.2795 21.6785 16.4299 21.8821 16.5364 22.1165C16.6453 22.3509 16.7009 22.6196 16.7033 22.9226C16.7009 23.3677 16.5873 23.7536 16.3624 24.0803C16.1399 24.4046 15.8179 24.6567 15.3965 24.8366C14.9775 25.0142 14.472 25.103 13.8801 25.103C13.293 25.103 12.7817 25.013 12.3461 24.8331C11.9128 24.6532 11.5743 24.3868 11.3304 24.0341C11.089 23.679 10.9623 23.2398 10.9505 22.7166H12.4384C12.455 22.9605 12.5248 23.1641 12.6479 23.3274C12.7734 23.4884 12.9403 23.6103 13.1486 23.6932C13.3593 23.7737 13.5972 23.8139 13.8624 23.8139C14.1228 23.8139 14.3489 23.776 14.5407 23.7003C14.7348 23.6245 14.8851 23.5192 14.9917 23.3842C15.0982 23.2493 15.1515 23.0942 15.1515 22.919C15.1515 22.7557 15.1029 22.6184 15.0059 22.5071C14.9112 22.3958 14.7715 22.3011 14.5868 22.223C14.4045 22.1449 14.1808 22.0739 13.9157 22.0099L13.1238 21.8111C12.5106 21.6619 12.0265 21.4287 11.6713 21.1115C11.3162 20.7943 11.1399 20.367 11.1422 19.8295C11.1399 19.3892 11.257 19.0045 11.4938 18.6754C11.7329 18.3464 12.0608 18.0895 12.4775 17.9048C12.8941 17.7202 13.3676 17.6278 13.8979 17.6278C14.4377 17.6278 14.9088 17.7202 15.3113 17.9048C15.7161 18.0895 16.031 18.3464 16.2559 18.6754C16.4808 19.0045 16.5968 19.3857 16.6039 19.8189H15.1301ZM17.7376 25V17.7273H19.2752V23.7322H22.3931V25H17.7376Z" fill="white"/>
</svg>
