<svg width="33" height="33" viewBox="0 0 33 33" fill="none" xmlns="http://www.w3.org/2000/svg">
<path fill-rule="evenodd" clip-rule="evenodd" d="M9.11115 1H23.8915C28.4033 1.03411 32.0334 4.71875 32.0002 9.2305V19.2236C32.0161 21.3906 31.1705 23.4752 29.6494 25.0187C28.1283 26.5622 26.0563 27.4383 23.8893 27.4541H9.11115L1.00022 32V9.2305C0.984306 7.06347 1.82992 4.97889 3.35103 3.43536C4.87213 1.89183 6.94412 1.0158 9.11115 1Z" stroke="black" stroke-width="1.5" stroke-linecap="round" stroke-linejoin="round"/>
<path fill-rule="evenodd" clip-rule="evenodd" d="M5.42883 14.2857C5.42883 13.0628 6.4202 12.0714 7.64312 12.0714C8.86603 12.0714 9.8574 13.0628 9.8574 14.2857C9.8574 15.5086 8.86603 16.5 7.64312 16.5C7.05585 16.5 6.49264 16.2667 6.07738 15.8514C5.66212 15.4362 5.42883 14.873 5.42883 14.2857Z" stroke="black" stroke-linecap="round" stroke-linejoin="round"/>
<path fill-rule="evenodd" clip-rule="evenodd" d="M14.286 14.2857C14.286 13.0628 15.2774 12.0714 16.5003 12.0714C17.7232 12.0714 18.7146 13.0628 18.7146 14.2857C18.7146 15.5086 17.7232 16.5 16.5003 16.5C15.2774 16.5 14.286 15.5086 14.286 14.2857Z" stroke="black" stroke-linecap="round" stroke-linejoin="round"/>
<path fill-rule="evenodd" clip-rule="evenodd" d="M23.1431 14.2857C23.1431 13.0628 24.1344 12.0714 25.3574 12.0714C26.5803 12.0714 27.5716 13.0628 27.5716 14.2857C27.5716 15.5086 26.5803 16.5 25.3574 16.5C24.1344 16.5 23.1431 15.5086 23.1431 14.2857Z" stroke="black" stroke-linecap="round" stroke-linejoin="round"/>
</svg>
