<svg width="31" height="33" viewBox="0 0 31 33" fill="none" xmlns="http://www.w3.org/2000/svg">
<path d="M8.76858 7.20143C8.76858 7.47758 8.99243 7.70143 9.26858 7.70143C9.54472 7.70143 9.76858 7.47758 9.76858 7.20143H8.76858ZM21.1714 7.20143C21.1714 7.47758 21.3953 7.70143 21.6714 7.70143C21.9476 7.70143 22.1714 7.47758 22.1714 7.20143H21.1714ZM9.28812 7.70107C9.56406 7.69056 9.77924 7.45835 9.76873 7.18241C9.75822 6.90646 9.52601 6.69129 9.25007 6.7018L9.28812 7.70107ZM0.571265 14.3551C0.526321 14.6275 0.71076 14.8848 0.98322 14.9298C1.25568 14.9747 1.51299 14.7903 1.55793 14.5178L0.571265 14.3551ZM9.26858 6.70143C8.99243 6.70143 8.76858 6.92529 8.76858 7.20143C8.76858 7.47758 8.99243 7.70143 9.26858 7.70143V6.70143ZM21.6714 7.70143C21.9476 7.70143 22.1714 7.47758 22.1714 7.20143C22.1714 6.92529 21.9476 6.70143 21.6714 6.70143V7.70143ZM11.2777 17.7522C11.552 17.7845 11.8005 17.5884 11.8328 17.3142C11.8651 17.0399 11.669 16.7914 11.3948 16.7591L11.2777 17.7522ZM1.26642 13.9951C1.01378 13.8837 0.718607 13.9981 0.607142 14.2508C0.495677 14.5034 0.610127 14.7986 0.862773 14.91L1.26642 13.9951ZM11.8357 17.2465C11.8357 16.9703 11.6119 16.7465 11.3357 16.7465C11.0596 16.7465 10.8357 16.9703 10.8357 17.2465H11.8357ZM10.8357 21.6495C10.8357 21.9256 11.0596 22.1495 11.3357 22.1495C11.6119 22.1495 11.8357 21.9256 11.8357 21.6495H10.8357ZM11.396 16.7449C11.1219 16.7116 10.8727 16.9069 10.8394 17.181C10.8061 17.4551 11.0013 17.7043 11.2754 17.7376L11.396 16.7449ZM15.47 17.51L15.4655 18.0101L15.4742 18.01L15.47 17.51ZM19.6644 17.7397C19.9385 17.7066 20.1338 17.4575 20.1007 17.1833C20.0675 16.9092 19.8184 16.7138 19.5442 16.747L19.6644 17.7397ZM1.55996 14.5167C1.59537 14.2428 1.40206 13.9921 1.1282 13.9567C0.854333 13.9213 0.603621 14.1146 0.568214 14.3885L1.55996 14.5167ZM1.00001 15.4572H1.50001L1.50001 15.4566L1.00001 15.4572ZM1.00001 23.7258H0.500005C0.500005 23.7322 0.500128 23.7386 0.500372 23.7449L1.00001 23.7258ZM9.90526 31.9944V31.4944C9.89929 31.4944 9.89332 31.4945 9.88736 31.4947L9.90526 31.9944ZM21.0368 31.9944L21.0546 31.4947C21.0487 31.4945 21.0428 31.4944 21.0368 31.4944V31.9944ZM29.94 23.7258L30.4397 23.7449C30.4399 23.7386 30.44 23.7322 30.44 23.7258H29.94ZM29.94 15.4572L29.44 15.4566V15.4572H29.94ZM30.3718 14.3885C30.3364 14.1146 30.0857 13.9213 29.8118 13.9567C29.538 13.9921 29.3447 14.2428 29.3801 14.5167L30.3718 14.3885ZM21.6905 6.7018C21.4145 6.69129 21.1823 6.90646 21.1718 7.18241C21.1613 7.45835 21.3765 7.69056 21.6524 7.70107L21.6905 6.7018ZM29.3826 14.5178C29.4276 14.7903 29.6849 14.9747 29.9573 14.9298C30.2298 14.8848 30.4142 14.6275 30.3693 14.3551L29.3826 14.5178ZM19.5458 16.7591C19.2715 16.7914 19.0754 17.0399 19.1077 17.3142C19.1401 17.5884 19.3886 17.7845 19.6628 17.7522L19.5458 16.7591ZM30.0778 14.91C30.3304 14.7986 30.4449 14.5034 30.3334 14.2508C30.2219 13.9981 29.9268 13.8837 29.6741 13.9951L30.0778 14.91ZM20.1043 17.2465C20.1043 16.9703 19.8804 16.7465 19.6043 16.7465C19.3282 16.7465 19.1043 16.9703 19.1043 17.2465H20.1043ZM19.1043 21.6495C19.1043 21.9256 19.3282 22.1495 19.6043 22.1495C19.8804 22.1495 20.1043 21.9256 20.1043 21.6495H19.1043ZM9.76858 7.20143C9.76858 4.05262 12.3212 1.5 15.47 1.5V0.5C11.7689 0.5 8.76858 3.50033 8.76858 7.20143H9.76858ZM15.47 1.5C18.6188 1.5 21.1714 4.05262 21.1714 7.20143H22.1714C22.1714 3.50033 19.1711 0.5 15.47 0.5V1.5ZM9.25007 6.7018C4.90636 6.8672 1.27874 10.0662 0.571265 14.3551L1.55793 14.5178C2.18808 10.6977 5.41919 7.8484 9.28812 7.70107L9.25007 6.7018ZM9.26858 7.70143H21.6714V6.70143H9.26858V7.70143ZM11.3948 16.7591C7.89986 16.3472 4.48608 15.4156 1.26642 13.9951L0.862773 14.91C4.17354 16.3707 7.68392 17.3287 11.2777 17.7522L11.3948 16.7591ZM10.8357 17.2465V21.6495H11.8357V17.2465H10.8357ZM11.2754 17.7376C12.666 17.9066 14.0649 17.9975 15.4655 18.01L15.4745 17.01C14.1111 16.9979 12.7495 16.9094 11.396 16.7449L11.2754 17.7376ZM15.4742 18.01C16.8749 17.9982 18.2738 17.908 19.6644 17.7397L19.5442 16.747C18.1907 16.9107 16.8291 16.9985 15.4658 17.01L15.4742 18.01ZM0.568214 14.3885C0.52237 14.7431 0.499586 15.1003 0.500006 15.4578L1.50001 15.4566C1.49964 15.1424 1.51966 14.8284 1.55996 14.5167L0.568214 14.3885ZM0.500005 15.4572V23.7258H1.50001V15.4572H0.500005ZM0.500372 23.7449C0.692507 28.7602 4.90747 32.6738 9.92317 32.4941L9.88736 31.4947C5.42263 31.6547 1.67067 28.171 1.49964 23.7067L0.500372 23.7449ZM9.90526 32.4944H21.0368V31.4944H9.90526V32.4944ZM21.0191 32.4941C26.0339 32.6726 30.2475 28.7593 30.4397 23.7449L29.4404 23.7067C29.2694 28.1702 25.5186 31.6536 21.0546 31.4947L21.0191 32.4941ZM30.44 23.7258V15.4572H29.44V23.7258H30.44ZM30.44 15.4578C30.4404 15.1003 30.4177 14.7431 30.3718 14.3885L29.3801 14.5167C29.4204 14.8284 29.4404 15.1424 29.44 15.4566L30.44 15.4578ZM21.6524 7.70107C25.5213 7.8484 28.7525 10.6977 29.3826 14.5178L30.3693 14.3551C29.6618 10.0662 26.0342 6.8672 21.6905 6.7018L21.6524 7.70107ZM19.6628 17.7522C23.2566 17.3287 26.767 16.3707 30.0778 14.91L29.6741 13.9951C26.4545 15.4156 23.0407 16.3472 19.5458 16.7591L19.6628 17.7522ZM19.1043 17.2465V21.6495H20.1043V17.2465H19.1043Z" fill="white"/>
</svg>
