<svg width="33" height="33" viewBox="0 0 33 33" fill="none" xmlns="http://www.w3.org/2000/svg">
<path d="M16.5 4.11276C16.5 2.33984 17.8221 0.80737 19.564 1.01974C21.809 1.29343 24.2818 2.2113 25.1976 4.52483M16.5 4.11276C16.5 2.33984 15.1779 0.80737 13.436 1.01974C11.191 1.29343 8.71819 2.2113 7.80235 4.52483M16.5 4.11276V29.7188M25.1976 4.52483C26.9372 8.91914 28.6767 7.16137 30.4162 9.79795C32.1558 12.4345 30.4162 14.1923 30.4162 16.8289M25.1976 4.52483C25.7775 6.28256 25.3716 10.501 22.5884 13.3134M30.4162 16.8289C30.4162 19.4654 33.299 20.8087 31.286 23.8597C29.5465 26.4963 27.4426 25.1067 26.0674 26.4963C24.3279 28.2541 25.1977 29.1329 22.5884 30.8906C20.6052 32.2266 18.622 32.2087 17.4025 31.6087C16.7258 31.2757 16.5 30.4795 16.5 29.7188M30.4162 16.8289C30.1263 18.0007 26.0674 22 22.5884 22M16.5 29.7188C16.5 30.4795 16.2742 31.2757 15.5975 31.6087C14.378 32.2087 12.3948 32.2266 10.4116 30.8906C7.80235 29.1329 8.67212 28.2541 6.93259 26.4963C5.55737 25.1067 3.45353 26.4963 1.714 23.8597C-0.298981 20.8087 2.58376 19.4654 2.58376 16.8289M7.80235 4.52483C6.06282 8.91914 4.32329 7.16137 2.58376 9.79795C0.844233 12.4345 2.58376 14.1923 2.58376 16.8289M7.80235 4.52483C7.22251 6.28256 7.6284 10.501 10.4116 13.3134M2.58376 16.8289C2.87368 18.0007 6.93259 22 10.4116 22" stroke="white" stroke-linecap="round"/>
</svg>
