<svg width="40" height="29" viewBox="0 0 40 29" fill="none" xmlns="http://www.w3.org/2000/svg">
<rect width="40" height="29" fill="#249F58"/>
<path fill-rule="evenodd" clip-rule="evenodd" d="M19.9967 3.86719L34.2824 14.5005L19.9967 25.1339L5.71094 14.5005" fill="#FFDA2C"/>
<path d="M20.0026 21.2677C23.6845 21.2677 26.6693 18.2382 26.6693 14.501C26.6693 10.7639 23.6845 7.73438 20.0026 7.73438C16.3207 7.73438 13.3359 10.7639 13.3359 14.501C13.3359 18.2382 16.3207 21.2677 20.0026 21.2677Z" fill="#1A47B8"/>
<path fill-rule="evenodd" clip-rule="evenodd" d="M17.1406 17.3984V19.3318H19.0454V17.3984H17.1406ZM20.9501 17.3984V19.3318H22.8549V17.3984H20.9501Z" fill="white"/>
<path fill-rule="evenodd" clip-rule="evenodd" d="M15.2344 11.6016C15.2344 11.6016 19.5468 12.3749 22.6553 13.7244L26.6629 15.4682" fill="white"/>
<path d="M15.2344 11.6016C15.2344 11.6016 19.5468 12.3749 22.6553 13.7244L26.6629 15.4682" stroke="white"/>
</svg>
