<svg width="31" height="33" viewBox="0 0 31 33" fill="none" xmlns="http://www.w3.org/2000/svg">
<path d="M1 31.5C0.723858 31.5 0.5 31.7239 0.5 32C0.5 32.2761 0.723858 32.5 1 32.5V31.5ZM30 32.5C30.2761 32.5 30.5 32.2761 30.5 32C30.5 31.7239 30.2761 31.5 30 31.5V32.5ZM9.16535 3.41859L8.68198 3.2907L8.68198 3.2907L9.16535 3.41859ZM11.4438 1.11119L11.5747 1.59374L11.5747 1.59374L11.4438 1.11119ZM27.5092 10.9673L27.7385 10.523L27.7385 10.523L27.5092 10.9673ZM28.2133 11.6803L27.7666 11.9051L27.7666 11.9051L28.2133 11.6803ZM7.86143 7.47072L7.99237 7.95327L7.99237 7.95327L7.86143 7.47072ZM9.00066 6.31702L8.51729 6.18913L8.51729 6.18913L9.00066 6.31702ZM21.5932 2.78172L21.1466 3.00644L21.1466 3.00644L21.5932 2.78172ZM20.1851 1.35566L19.9558 1.8L19.9558 1.8L20.1851 1.35566ZM2.72091 9.94491L3.20427 10.0728L3.20427 10.0728L2.72091 9.94491ZM4.99936 7.6375L4.86842 7.15495L4.86842 7.15495L4.99936 7.6375ZM9.05556 13.5526C8.77941 13.5526 8.55556 13.7765 8.55556 14.0526C8.55556 14.3288 8.77941 14.5526 9.05556 14.5526V13.5526ZM15.5 14.5526C15.7761 14.5526 16 14.3288 16 14.0526C16 13.7765 15.7761 13.5526 15.5 13.5526V14.5526ZM9.05556 19.2632C8.77941 19.2632 8.55556 19.487 8.55556 19.7632C8.55556 20.0393 8.77941 20.2632 9.05556 20.2632V19.2632ZM15.5 20.2632C15.7761 20.2632 16 20.0393 16 19.7632C16 19.487 15.7761 19.2632 15.5 19.2632V20.2632ZM9.05556 24.9737C8.77941 24.9737 8.55556 25.1975 8.55556 25.4737C8.55556 25.7498 8.77941 25.9737 9.05556 25.9737V24.9737ZM15.5 25.9737C15.7761 25.9737 16 25.7498 16 25.4737C16 25.1975 15.7761 24.9737 15.5 24.9737V25.9737ZM15 8.35842C15 8.63456 15.2239 8.85842 15.5 8.85842C15.7761 8.85842 16 8.63456 16 8.35842H15ZM16 8.34211C16 8.06596 15.7761 7.84211 15.5 7.84211C15.2239 7.84211 15 8.06596 15 8.34211H16ZM1 32V32.5H2.61111V32V31.5H1V32ZM2.61111 32H3.11111V11.8772H2.61111H2.11111V32H2.61111ZM21.9444 6.22105H21.4444V10.7895H21.9444H22.4444V6.22105H21.9444ZM21.9444 10.7895H21.4444V32H21.9444H22.4444V10.7895H21.9444ZM21.9444 10.7895V11.2895H25.8111V10.7895V10.2895H21.9444V10.7895ZM21.9444 32V32.5H28.3889V32V31.5H21.9444V32ZM28.3889 32V32.5H30V32V31.5H28.3889V32ZM28.3889 13.4H27.8889V32H28.3889H28.8889V13.4H28.3889ZM2.61111 32V32.5H21.9444V32V31.5H2.61111V32ZM13.3519 1V1.5H16.7889V1V0.5H13.3519V1ZM9.05556 5.35088H9.55556C9.55556 4.30751 9.55975 3.88273 9.64872 3.54648L9.16535 3.41859L8.68198 3.2907C8.55136 3.78438 8.55556 4.37115 8.55556 5.35088H9.05556ZM13.3519 1V0.5C12.3856 0.5 11.8031 0.495603 11.3129 0.62864L11.4438 1.11119L11.5747 1.59374C11.904 1.5044 12.3204 1.5 13.3519 1.5V1ZM9.16535 3.41859L9.64872 3.54648C9.9016 2.59072 10.6375 1.84806 11.5747 1.59374L11.4438 1.11119L11.3129 0.62864C10.0262 0.977788 9.025 1.99428 8.68198 3.2907L9.16535 3.41859ZM25.8111 10.7895V11.2895C26.2706 11.2895 26.5848 11.2899 26.8281 11.31C27.0653 11.3296 27.1904 11.3654 27.2799 11.4116L27.5092 10.9673L27.7385 10.523C27.4834 10.3913 27.2106 10.3382 26.9105 10.3134C26.6165 10.2891 26.2539 10.2895 25.8111 10.2895V10.7895ZM28.3889 13.4H28.8889C28.8889 12.9513 28.8893 12.585 28.8653 12.2882C28.8409 11.9857 28.7888 11.7118 28.6599 11.4556L28.2133 11.6803L27.7666 11.9051C27.8133 11.9979 27.8491 12.1269 27.8686 12.3686C27.8885 12.6159 27.8889 12.935 27.8889 13.4H28.3889ZM27.5092 10.9673L27.2799 11.4116C27.4885 11.5193 27.6592 11.6916 27.7666 11.9051L28.2133 11.6803L28.6599 11.4556C28.4584 11.055 28.1362 10.7282 27.7385 10.523L27.5092 10.9673ZM6.90741 7.52632V8.02632C7.37427 8.02632 7.70698 8.03071 7.99237 7.95327L7.86143 7.47072L7.73049 6.98817C7.60612 7.02192 7.4394 7.02632 6.90741 7.02632V7.52632ZM9.05556 5.35088H8.55556C8.55556 5.88847 8.55136 6.06036 8.51729 6.18913L9.00066 6.31702L9.48402 6.44491C9.55975 6.15871 9.55556 5.82483 9.55556 5.35088H9.05556ZM7.86143 7.47072L7.99237 7.95327C8.72308 7.75499 9.28998 7.17829 9.48403 6.44491L9.00066 6.31702L8.51729 6.18913C8.41338 6.58184 8.11174 6.88472 7.73049 6.98817L7.86143 7.47072ZM21.9444 6.22105H22.4444C22.4444 5.31543 22.4448 4.60652 22.3989 4.03761C22.3526 3.46304 22.2566 2.98768 22.0399 2.55699L21.5932 2.78172L21.1466 3.00644C21.2811 3.27378 21.3607 3.60431 21.4022 4.11803C21.4441 4.63739 21.4444 5.29913 21.4444 6.22105H21.9444ZM16.7889 1V1.5C17.6996 1.5 18.3521 1.5004 18.864 1.54276C19.3699 1.58461 19.694 1.66488 19.9558 1.8L20.1851 1.35566L20.4144 0.911329C19.9869 0.690779 19.5152 0.593219 18.9465 0.546161C18.3838 0.499601 17.6828 0.5 16.7889 0.5V1ZM21.5932 2.78172L22.0399 2.55699C21.6839 1.84943 21.1152 1.27298 20.4144 0.911329L20.1851 1.35566L19.9558 1.8C20.4675 2.06404 20.8847 2.486 21.1466 3.00644L21.5932 2.78172ZM2.61111 11.8772H3.11111C3.11111 10.8338 3.11531 10.409 3.20427 10.0728L2.72091 9.94491L2.23754 9.81701C2.10692 10.3107 2.11111 10.8975 2.11111 11.8772H2.61111ZM6.90741 7.52632V7.02632C5.94111 7.02632 5.35869 7.02192 4.86842 7.15495L4.99936 7.6375L5.1303 8.12005C5.45955 8.03071 5.87599 8.02632 6.90741 8.02632V7.52632ZM2.72091 9.94491L3.20427 10.0728C3.45716 9.11704 4.19307 8.37438 5.1303 8.12005L4.99936 7.6375L4.86842 7.15495C3.58173 7.5041 2.58056 8.52059 2.23754 9.81701L2.72091 9.94491ZM9.05556 14.0526V14.5526H15.5V14.0526V13.5526H9.05556V14.0526ZM9.05556 19.7632V20.2632H15.5V19.7632V19.2632H9.05556V19.7632ZM9.05556 25.4737V25.9737H15.5V25.4737V24.9737H9.05556V25.4737ZM15.5 8.35842H16V8.34211H15.5H15V8.35842H15.5Z" fill="white"/>
</svg>
