<svg width="29" height="33" viewBox="0 0 29 33" fill="none" xmlns="http://www.w3.org/2000/svg">
<path fill-rule="evenodd" clip-rule="evenodd" d="M1 10.6875V26.1875C1 30.4677 2.53229 32 6.8125 32H22.3125C26.5927 32 28.125 30.4677 28.125 26.1875V10.6875C28.125 6.40729 26.5927 4.875 22.3125 4.875H6.8125C2.53229 4.875 1 6.40729 1 10.6875Z" stroke="white" stroke-width="1.5" stroke-linecap="round" stroke-linejoin="round"/>
<path d="M18.6562 6.8125C18.6562 7.22671 18.992 7.5625 19.4062 7.5625C19.8205 7.5625 20.1562 7.22671 20.1562 6.8125H18.6562ZM20.1562 1C20.1562 0.585786 19.8205 0.25 19.4062 0.25C18.992 0.25 18.6562 0.585786 18.6562 1H20.1562ZM8 6.8125C8 7.22671 8.33579 7.5625 8.75 7.5625C9.16421 7.5625 9.5 7.22671 9.5 6.8125H8ZM9.5 1C9.5 0.585786 9.16421 0.25 8.75 0.25C8.33579 0.25 8 0.585786 8 1H9.5ZM8 15.1157C8 15.5299 8.33579 15.8657 8.75 15.8657C9.16421 15.8657 9.5 15.5299 9.5 15.1157H8ZM14.5625 15.1157L15.3112 15.1603C15.3121 15.1454 15.3125 15.1305 15.3125 15.1157L14.5625 15.1157ZM13.3297 17.5984L13.8178 18.1679L13.8178 18.1679L13.3297 17.5984ZM10.6875 18.4365L10.6169 17.6899C10.2318 17.7263 9.9375 18.0496 9.9375 18.4365C9.9375 18.8234 10.2318 19.1468 10.6169 19.1832L10.6875 18.4365ZM13.3297 19.2747L13.8178 18.7052L13.8178 18.7052L13.3297 19.2747ZM14.5625 21.7574H15.3125C15.3125 21.7425 15.3121 21.7277 15.3112 21.7128L14.5625 21.7574ZM9.5 21.7574C9.5 21.3432 9.16421 21.0074 8.75 21.0074C8.33579 21.0074 8 21.3432 8 21.7574H9.5ZM16.9807 13.716C16.6662 13.9855 16.6297 14.459 16.8993 14.7735C17.1688 15.088 17.6423 15.1245 17.9568 14.8549L16.9807 13.716ZM19.4062 12.625H20.1562C20.1562 12.3321 19.9858 12.066 19.7197 11.9436C19.4536 11.8212 19.1406 11.8649 18.9182 12.0555L19.4062 12.625ZM18.6562 24.25C18.6562 24.6642 18.992 25 19.4062 25C19.8205 25 20.1562 24.6642 20.1562 24.25H18.6562ZM19.4062 6.8125H20.1562V1H19.4062H18.6562V6.8125H19.4062ZM8.75 6.8125H9.5V1H8.75H8V6.8125H8.75ZM8.75 15.1157H9.5C9.5 14.5329 9.7431 14.1258 10.1127 13.8443C10.5031 13.5468 11.0611 13.375 11.6562 13.375C12.2514 13.375 12.8094 13.5468 13.1998 13.8443C13.5694 14.1258 13.8125 14.5329 13.8125 15.1157H14.5625H15.3125C15.3125 14.038 14.829 13.1997 14.1088 12.6511C13.4094 12.1183 12.5143 11.875 11.6562 11.875C10.7982 11.875 9.90311 12.1183 9.20372 12.6511C8.48347 13.1997 8 14.038 8 15.1157H8.75ZM14.5625 15.1157L13.8138 15.0711C13.7687 15.8285 13.4178 16.5351 12.8417 17.0289L13.3297 17.5984L13.8178 18.1679C14.7029 17.4094 15.2419 16.3238 15.3112 15.1603L14.5625 15.1157ZM13.3297 17.5984L12.8417 17.0289C12.2655 17.5227 11.5135 17.7612 10.7581 17.6899L10.6875 18.4365L10.6169 19.1832C11.7774 19.2929 12.9327 18.9264 13.8178 18.1679L13.3297 17.5984ZM10.6875 18.4365L10.7581 19.1832C11.5135 19.1118 12.2655 19.3504 12.8417 19.8441L13.3297 19.2747L13.8178 18.7052C12.9327 17.9467 11.7774 17.5802 10.6169 17.6899L10.6875 18.4365ZM13.3297 19.2747L12.8417 19.8441C13.4178 20.3379 13.7687 21.0446 13.8138 21.802L14.5625 21.7574L15.3112 21.7128C15.2419 20.5492 14.7029 19.4637 13.8178 18.7052L13.3297 19.2747ZM14.5625 21.7574H13.8125C13.8125 22.3402 13.5694 22.7472 13.1998 23.0288C12.8094 23.3262 12.2514 23.4981 11.6562 23.4981C11.0611 23.4981 10.5031 23.3262 10.1127 23.0288C9.7431 22.7472 9.5 22.3402 9.5 21.7574H8.75H8C8 22.8351 8.48347 23.6733 9.20372 24.222C9.90311 24.7548 10.7982 24.9981 11.6562 24.9981C12.5143 24.9981 13.4094 24.7548 14.1088 24.222C14.829 23.6733 15.3125 22.8351 15.3125 21.7574H14.5625ZM17.4688 14.2854L17.9568 14.8549L19.8943 13.1945L19.4062 12.625L18.9182 12.0555L16.9807 13.716L17.4688 14.2854ZM19.4062 12.625H18.6562V24.25H19.4062H20.1562V12.625H19.4062Z" fill="white"/>
</svg>
