<svg width="33" height="33" viewBox="0 0 33 33" fill="none" xmlns="http://www.w3.org/2000/svg">
<path fill-rule="evenodd" clip-rule="evenodd" d="M1 10.6797V26.1797C1 30.4599 2.75119 31.9922 7.64286 31.9922H25.3571C30.2488 31.9922 32 30.4599 32 26.1797V10.6797C32 6.39948 30.2488 4.86719 25.3571 4.86719H7.64286C2.75119 4.86719 1 6.39948 1 10.6797Z" stroke="white" stroke-width="1.5" stroke-linecap="round" stroke-linejoin="round"/>
<path d="M21.2801 6.80469C21.2801 7.2189 21.6159 7.55469 22.0301 7.55469C22.4443 7.55469 22.7801 7.2189 22.7801 6.80469H22.0301H21.2801ZM22.7801 0.992188C22.7801 0.577974 22.4443 0.242188 22.0301 0.242188C21.6159 0.242188 21.2801 0.577974 21.2801 0.992188H22.0301H22.7801ZM9.10156 6.80469C9.10156 7.2189 9.43735 7.55469 9.85156 7.55469C10.2658 7.55469 10.6016 7.2189 10.6016 6.80469H9.85156H9.10156ZM10.6016 0.992188C10.6016 0.577974 10.2658 0.242188 9.85156 0.242188C9.43735 0.242188 9.10156 0.577974 9.10156 0.992188H9.85156H10.6016ZM9.10156 15.1078C9.10156 15.5221 9.43735 15.8578 9.85156 15.8578C10.2658 15.8578 10.6016 15.5221 10.6016 15.1078H9.85156H9.10156ZM16.4944 15.1078L17.2427 15.1588C17.2438 15.1418 17.2444 15.1248 17.2444 15.1078L16.4944 15.1078ZM15.0855 17.5906L15.5355 18.1906L15.5355 18.1906L15.0855 17.5906ZM12.0658 18.4287L12.0041 17.6813C11.6151 17.7134 11.3158 18.0385 11.3158 18.4287C11.3158 18.819 11.6151 19.144 12.0041 19.1762L12.0658 18.4287ZM15.0855 19.2669L15.5355 18.6668L15.5355 18.6668L15.0855 19.2669ZM16.4944 21.7496H17.2444C17.2444 21.7326 17.2438 21.7156 17.2427 21.6987L16.4944 21.7496ZM10.6016 21.7496C10.6016 21.3354 10.2658 20.9996 9.85156 20.9996C9.43735 20.9996 9.10156 21.3354 9.10156 21.7496H9.85156H10.6016ZM19.3659 13.6776C19.0345 13.9261 18.9673 14.3962 19.2158 14.7276C19.4643 15.059 19.9344 15.1262 20.2658 14.8777L19.8158 14.2776L19.3659 13.6776ZM22.0301 12.6172H22.7801C22.7801 12.3331 22.6196 12.0734 22.3656 11.9464C22.1115 11.8193 21.8075 11.8467 21.5802 12.0172L22.0301 12.6172ZM21.2801 24.2422C21.2801 24.6564 21.6159 24.9922 22.0301 24.9922C22.4443 24.9922 22.7801 24.6564 22.7801 24.2422H22.0301H21.2801ZM22.0301 6.80469H22.7801V0.992188H22.0301H21.2801V6.80469H22.0301ZM9.85156 6.80469H10.6016V0.992188H9.85156H9.10156V6.80469H9.85156ZM9.85156 15.1078H10.6016C10.6016 14.5686 10.8556 14.1638 11.3055 13.8639C11.7776 13.5492 12.4539 13.3672 13.173 13.3672C13.8921 13.3672 14.5684 13.5492 15.0405 13.8639C15.4904 14.1638 15.7444 14.5686 15.7444 15.1078H16.4944H17.2444C17.2444 13.9866 16.6681 13.1461 15.8725 12.6158C15.0991 12.1003 14.1146 11.8672 13.173 11.8672C12.2314 11.8672 11.2469 12.1003 10.4735 12.6158C9.67792 13.1461 9.10156 13.9866 9.10156 15.1078H9.85156ZM16.4944 15.1078L15.7462 15.0569C15.6969 15.7798 15.3126 16.4829 14.6356 16.9906L15.0855 17.5906L15.5355 18.1906C16.5285 17.446 17.1611 16.3569 17.2427 15.1588L16.4944 15.1078ZM15.0855 17.5906L14.6356 16.9906C13.9556 17.5005 13.0501 17.7575 12.1276 17.6813L12.0658 18.4287L12.0041 19.1762C13.2712 19.2809 14.5455 18.933 15.5355 18.1906L15.0855 17.5906ZM12.0658 18.4287L12.1276 19.1762C13.0501 19.0999 13.9556 19.357 14.6356 19.8669L15.0855 19.2669L15.5355 18.6668C14.5455 17.9244 13.2712 17.5765 12.0041 17.6813L12.0658 18.4287ZM15.0855 19.2669L14.6356 19.8669C15.3126 20.3746 15.6969 21.0776 15.7462 21.8005L16.4944 21.7496L17.2427 21.6987C17.1611 20.5005 16.5285 19.4114 15.5355 18.6668L15.0855 19.2669ZM16.4944 21.7496H15.7444C15.7444 22.2888 15.4904 22.6936 15.0405 22.9935C14.5684 23.3082 13.8921 23.4903 13.173 23.4903C12.4539 23.4903 11.7776 23.3082 11.3055 22.9935C10.8556 22.6936 10.6016 22.2888 10.6016 21.7496H9.85156H9.10156C9.10156 22.8708 9.67792 23.7113 10.4735 24.2417C11.2469 24.7572 12.2314 24.9903 13.173 24.9903C14.1146 24.9903 15.0991 24.7572 15.8725 24.2417C16.6681 23.7113 17.2444 22.8708 17.2444 21.7496H16.4944ZM19.8158 14.2776L20.2658 14.8777L22.4801 13.2172L22.0301 12.6172L21.5802 12.0172L19.3659 13.6776L19.8158 14.2776ZM22.0301 12.6172H21.2801V24.2422H22.0301H22.7801V12.6172H22.0301Z" fill="white"/>
</svg>
