<svg width="36" height="33" viewBox="0 0 36 33" fill="none" xmlns="http://www.w3.org/2000/svg">
<path d="M17.5 11C17.5 11.2761 17.7239 11.5 18 11.5C18.2761 11.5 18.5 11.2761 18.5 11H17.5ZM1.5 18C1.5 17.7239 1.27614 17.5 1 17.5C0.723858 17.5 0.5 17.7239 0.5 18H1.5ZM0.5 25C0.5 25.2761 0.723858 25.5 1 25.5C1.27614 25.5 1.5 25.2761 1.5 25H0.5ZM35.5 18C35.5 17.7239 35.2761 17.5 35 17.5C34.7239 17.5 34.5 17.7239 34.5 18H35.5ZM34.5 25C34.5 25.2761 34.7239 25.5 35 25.5C35.2761 25.5 35.5 25.2761 35.5 25H34.5ZM6.73333 11V11.5H29.2667V11V10.5H6.73333V11ZM29.2667 11V11.5C29.9433 11.5 30.5 12.0551 30.5 12.75H31H31.5C31.5 11.5119 30.5046 10.5 29.2667 10.5V11ZM31 12.75H30.5V30.25H31H31.5V12.75H31ZM31 30.25H30.5C30.5 30.9449 29.9433 31.5 29.2667 31.5V32V32.5C30.5046 32.5 31.5 31.4881 31.5 30.25H31ZM29.2667 32V31.5H6.73333V32V32.5H29.2667V32ZM6.73333 32V31.5C6.05668 31.5 5.5 30.9449 5.5 30.25H5H4.5C4.5 31.4881 5.4954 32.5 6.73333 32.5V32ZM5 30.25H5.5V12.75H5H4.5V30.25H5ZM5 12.75H5.5C5.5 12.0551 6.05668 11.5 6.73333 11.5V11V10.5C5.4954 10.5 4.5 11.5119 4.5 12.75H5ZM14.5 18H14C14 18.8284 13.3284 19.5 12.5 19.5V20V20.5C13.8807 20.5 15 19.3807 15 18H14.5ZM12.5 20V19.5C11.6716 19.5 11 18.8284 11 18H10.5H10C10 19.3807 11.1193 20.5 12.5 20.5V20ZM10.5 18H11C11 17.1716 11.6716 16.5 12.5 16.5V16V15.5C11.1193 15.5 10 16.6193 10 18H10.5ZM12.5 16V16.5C13.3284 16.5 14 17.1716 14 18H14.5H15C15 16.6193 13.8807 15.5 12.5 15.5V16ZM25.5 18H25C25 18.8284 24.3284 19.5 23.5 19.5V20V20.5C24.8807 20.5 26 19.3807 26 18H25.5ZM23.5 20V19.5C22.6716 19.5 22 18.8284 22 18H21.5H21C21 19.3807 22.1193 20.5 23.5 20.5V20ZM21.5 18H22C22 17.1716 22.6716 16.5 23.5 16.5V16V15.5C22.1193 15.5 21 16.6193 21 18H21.5ZM23.5 16V16.5C24.3284 16.5 25 17.1716 25 18H25.5H26C26 16.6193 24.8807 15.5 23.5 15.5V16ZM14.3333 24.5V24C13.8188 24 13.2693 24.0402 12.8351 24.2319C12.6085 24.3319 12.3922 24.4821 12.2344 24.7076C12.0742 24.9365 12 25.2064 12 25.5H12.5H13C13 25.3793 13.0284 25.3172 13.0537 25.2809C13.0815 25.2413 13.1337 25.1932 13.2389 25.1468C13.4681 25.0456 13.8353 25 14.3333 25V24.5ZM12.5 25.5H12C12 25.7936 12.0742 26.0635 12.2344 26.2924C12.3922 26.5179 12.6085 26.6681 12.8351 26.7681C13.2693 26.9598 13.8188 27 14.3333 27V26.5V26C13.8353 26 13.4681 25.9544 13.2389 25.8532C13.1337 25.8068 13.0815 25.7587 13.0537 25.7191C13.0284 25.6828 13 25.6207 13 25.5H12.5ZM14.3333 26.5H14.8333V24.5H14.3333H13.8333V26.5H14.3333ZM21.6667 26.5V27C22.1812 27 22.7307 26.9598 23.1649 26.7681C23.3915 26.6681 23.6078 26.5179 23.7656 26.2924C23.9258 26.0635 24 25.7936 24 25.5H23.5H23C23 25.6207 22.9716 25.6828 22.9463 25.7191C22.9185 25.7587 22.8663 25.8068 22.7611 25.8532C22.5319 25.9544 22.1647 26 21.6667 26V26.5ZM23.5 25.5H24C24 25.2064 23.9258 24.9365 23.7656 24.7076C23.6078 24.4821 23.3915 24.3319 23.1649 24.2319C22.7307 24.0402 22.1812 24 21.6667 24V24.5V25C22.1647 25 22.5319 25.0456 22.7611 25.1468C22.8663 25.1932 22.9185 25.2413 22.9463 25.2809C22.9716 25.3172 23 25.3793 23 25.5H23.5ZM21.6667 24.5H21.1667V26.5H21.6667H22.1667V24.5H21.6667ZM14.3333 26.5V27H21.6667V26.5V26H14.3333V26.5ZM21.6667 24.5V24H14.3333V24.5V25H21.6667V24.5ZM18 4H17.5V11H18H18.5V4H18ZM1 18H0.5V25H1H1.5V18H1ZM35 18H34.5V25H35H35.5V18H35ZM19.5 2.5H19C19 3.05228 18.5523 3.5 18 3.5V4V4.5C19.1046 4.5 20 3.60457 20 2.5H19.5ZM18 4V3.5C17.4477 3.5 17 3.05228 17 2.5H16.5H16C16 3.60457 16.8954 4.5 18 4.5V4ZM16.5 2.5H17C17 1.94772 17.4477 1.5 18 1.5V1V0.5C16.8954 0.5 16 1.39543 16 2.5H16.5ZM18 1V1.5C18.5523 1.5 19 1.94772 19 2.5H19.5H20C20 1.39543 19.1046 0.5 18 0.5V1Z" fill="white"/>
</svg>
