<svg width="34" height="32" viewBox="0 0 34 32" fill="none" xmlns="http://www.w3.org/2000/svg">
<path d="M7.49074 9.66857C7.49074 9.25436 7.15495 8.91857 6.74074 8.91857C6.32653 8.91857 5.99074 9.25436 5.99074 9.66857H7.49074ZM6.74074 20.5186L5.99073 20.5186L5.99076 20.5233L6.74074 20.5186ZM12.4815 26.2593L12.4767 27.0093H12.4815V26.2593ZM21.6667 26.2593L21.6667 27.0093L21.6714 27.0093L21.6667 26.2593ZM27.4074 20.5186L28.1574 20.5233V20.5186H27.4074ZM28.1574 9.66857C28.1574 9.25436 27.8216 8.91857 27.4074 8.91857C26.9932 8.91857 26.6574 9.25436 26.6574 9.66857H28.1574ZM6.46388 10.3655C6.84884 10.5185 7.28486 10.3303 7.43777 9.94538C7.59067 9.56042 7.40256 9.12439 7.0176 8.97149L6.46388 10.3655ZM1 7.3883L0.723003 6.69132C0.437418 6.80482 0.24997 7.08106 0.25 7.38837C0.25003 7.69568 0.437533 7.97188 0.72314 8.08532L1 7.3883ZM17.0741 1L17.3511 0.303026C17.1732 0.232325 16.975 0.232325 16.7971 0.303026L17.0741 1ZM33.1481 7.3883L33.4252 8.08523C33.7108 7.9717 33.8982 7.69551 33.8981 7.38824C33.8981 7.08098 33.7107 6.8048 33.4251 6.69132L33.1481 7.3883ZM27.1303 8.97388C26.7454 9.12692 26.5574 9.56301 26.7105 9.94791C26.8635 10.3328 27.2996 10.5208 27.6845 10.3677L27.1303 8.97388ZM7.01768 8.97382C6.63274 8.82087 6.19669 9.00894 6.04374 9.39388C5.89079 9.77882 6.07886 10.2149 6.4638 10.3678L7.01768 8.97382ZM17.0741 13.7766L16.7971 14.4736C16.975 14.5443 17.1731 14.5443 17.351 14.4736L17.0741 13.7766ZM27.6843 10.3678C28.0693 10.2149 28.2574 9.77882 28.1044 9.39388C27.9515 9.00894 27.5154 8.82087 27.1305 8.97382L27.6843 10.3678ZM22.8981 12C22.8981 11.5858 22.5624 11.25 22.1481 11.25C21.7339 11.25 21.3981 11.5858 21.3981 12H22.8981ZM21.3981 30.3704C21.3981 30.7846 21.7339 31.1204 22.1481 31.1204C22.5624 31.1204 22.8981 30.7846 22.8981 30.3704H21.3981ZM6.74074 9.66857H5.99074V20.5186H6.74074H7.49074V9.66857H6.74074ZM6.74074 20.5186L5.99076 20.5233C6.0134 24.096 8.90405 26.9867 12.4767 27.0093L12.4815 26.2593L12.4862 25.5093C9.73455 25.4919 7.50817 23.2655 7.49073 20.5138L6.74074 20.5186ZM12.4815 26.2593V27.0093H21.6667V26.2593V25.5093H12.4815V26.2593ZM21.6667 26.2593L21.6714 27.0093C25.2441 26.9867 28.1347 24.096 28.1574 20.5233L27.4074 20.5186L26.6574 20.5138C26.64 23.2655 24.4136 25.4919 21.6619 25.5093L21.6667 26.2593ZM27.4074 20.5186H28.1574V9.66857H27.4074H26.6574V20.5186H27.4074ZM6.74074 9.66852L7.0176 8.97149L1.27686 6.69127L1 7.3883L0.72314 8.08532L6.46388 10.3655L6.74074 9.66852ZM1 7.3883L1.277 8.08527L17.3511 1.69697L17.0741 1L16.7971 0.303026L0.723003 6.69132L1 7.3883ZM17.0741 1L16.7971 1.69697L32.8712 8.08527L33.1481 7.3883L33.4251 6.69132L17.3511 0.303026L17.0741 1ZM33.1481 7.3883L32.871 6.69136L27.1303 8.97388L27.4074 9.67081L27.6845 10.3677L33.4252 8.08523L33.1481 7.3883ZM6.74074 9.67082L6.4638 10.3678L16.7971 14.4736L17.0741 13.7766L17.351 13.0796L7.01768 8.97382L6.74074 9.67082ZM17.0741 13.7766L17.351 14.4736L27.6843 10.3678L27.4074 9.67082L27.1305 8.97382L16.7971 13.0796L17.0741 13.7766ZM22.1481 12H21.3981V30.3704H22.1481H22.8981V12H22.1481Z" fill="black"/>
</svg>
