<svg width="42" height="33" viewBox="0 0 42 33" fill="none" xmlns="http://www.w3.org/2000/svg">
<path d="M10.0732 9.88281C12.5731 9.88281 14.5996 11.9099 14.5996 14.4102C14.5994 16.9103 12.573 18.9365 10.0732 18.9365C7.57353 18.9364 5.54705 16.9102 5.54688 14.4102C5.54688 11.91 7.57342 9.88292 10.0732 9.88281Z" stroke="white" stroke-linecap="round"/>
<path d="M10.0749 21.9531L10.0749 21.4531L10.0749 21.4531L10.0749 21.9531ZM19.2224 31.0127L19.7194 30.9577L19.7194 30.9577L19.2224 31.0127ZM18.2908 32.0068L18.2908 32.5068L18.291 32.5068L18.2908 32.0068ZM0.927486 31.0127L0.430524 30.9577L0.430524 30.9577L0.927486 31.0127ZM10.0749 21.9531V22.4531C13.6084 22.4531 15.6752 23.9913 16.913 25.8121C18.1703 27.6616 18.5886 29.8322 18.7254 31.0677L19.2224 31.0127L19.7194 30.9577C19.5751 29.6549 19.1307 27.2957 17.74 25.2499C16.3298 23.1755 13.9634 21.4531 10.0749 21.4531V21.9531ZM19.2224 31.0127L18.7254 31.0677C18.75 31.2897 18.5766 31.5067 18.2906 31.5068L18.2908 32.0068L18.291 32.5068C19.1091 32.5065 19.8163 31.8332 19.7194 30.9577L19.2224 31.0127ZM18.2908 32.0068V31.5068H1.8601V32.0068V32.5068H18.2908V32.0068ZM1.8601 32.0068V31.5068C1.5735 31.5068 1.3999 31.2894 1.42445 31.0677L0.927486 31.0127L0.430524 30.9577C0.333498 31.8339 1.04214 32.5068 1.8601 32.5068V32.0068ZM0.927486 31.0127L1.42445 31.0677C1.56127 29.8322 1.97965 27.6616 3.23692 25.8122C4.47473 23.9913 6.54149 22.4531 10.075 22.4531L10.0749 21.9531L10.0749 21.4531C6.18652 21.4531 3.8201 23.1756 2.40992 25.25C1.01921 27.2957 0.574792 29.6549 0.430524 30.9577L0.927486 31.0127Z" fill="white"/>
<path d="M31.8545 9.88281C34.3544 9.88281 36.3809 11.9099 36.3809 14.4102C36.3807 16.9103 34.3543 18.9365 31.8545 18.9365C29.3548 18.9364 27.3283 16.9102 27.3281 14.4102C27.3281 11.91 29.3547 9.88292 31.8545 9.88281Z" stroke="white" stroke-linecap="round"/>
<path d="M31.8562 21.9531L31.8562 21.4531H31.8562V21.9531ZM41.0037 31.0127L41.5006 30.9577L41.5006 30.9577L41.0037 31.0127ZM23.6404 32.0068L23.6404 32.5068H23.6404V32.0068ZM22.7087 31.0127L22.2118 30.9577L22.2118 30.9577L22.7087 31.0127ZM31.8562 21.9531L31.8562 22.4531C35.3895 22.4532 37.4563 23.9914 38.6941 25.8122C39.9514 27.6617 40.3699 29.8322 40.5067 31.0677L41.0037 31.0127L41.5006 30.9577C41.3564 29.6549 40.9119 27.2957 39.5211 25.25C38.1109 23.1757 35.7445 21.4532 31.8562 21.4531L31.8562 21.9531ZM41.0037 31.0127L40.5067 31.0677C40.5312 31.2894 40.3576 31.5068 40.0711 31.5068V32.0068V32.5068C40.889 32.5068 41.5976 31.8338 41.5006 30.9577L41.0037 31.0127ZM40.0711 32.0068V31.5068H23.6404V32.0068V32.5068H40.0711V32.0068ZM23.6404 32.0068L23.6404 31.5068C23.3545 31.5068 23.1811 31.29 23.2057 31.0677L22.7087 31.0127L22.2118 30.9577C22.1148 31.8332 22.8218 32.5068 23.6404 32.5068L23.6404 32.0068ZM22.7087 31.0127L23.2057 31.0677C23.3425 29.8321 23.7609 27.6616 25.0182 25.8121C26.256 23.9913 28.3227 22.4531 31.8562 22.4531V21.9531V21.4531C27.9678 21.4531 25.6014 23.1755 24.1912 25.2499C22.8005 27.2957 22.3561 29.6549 22.2118 30.9577L22.7087 31.0127Z" fill="white"/>
<path fill-rule="evenodd" clip-rule="evenodd" d="M21.0273 10.3312L18.9279 8.1764L16.8451 6.02156C15.7183 4.83065 15.7183 2.96672 16.8451 1.7758C17.3969 1.24547 18.1442 0.968334 18.9083 1.0107C19.6724 1.05306 20.3845 1.41111 20.8743 1.99919L21.0273 2.14931L21.1788 1.99273C21.6686 1.40465 22.3807 1.0466 23.1448 1.00423C23.9089 0.961869 24.6562 1.23901 25.208 1.76934C26.3348 2.96025 26.3348 4.82418 25.208 6.0151L23.1252 8.16994L21.0273 10.3312Z" stroke="white" stroke-linecap="round" stroke-linejoin="round"/>
</svg>
