<svg width="40" height="33" viewBox="0 0 40 33" fill="none" xmlns="http://www.w3.org/2000/svg">
<path d="M38.2506 9.88992C38.2675 10.3038 38.6167 10.6256 39.0305 10.6088C39.4444 10.5919 39.7662 10.2427 39.7494 9.82884L38.2506 9.88992ZM28.1421 1.00523V1.75523C28.1494 1.75523 28.1567 1.75512 28.164 1.75491L28.1421 1.00523ZM11.8579 1.00523L11.836 1.75491C11.8433 1.75512 11.8506 1.75523 11.8579 1.75523V1.00523ZM0.250622 9.82884C0.233755 10.2427 0.55559 10.5919 0.96946 10.6088C1.38333 10.6256 1.73251 10.3038 1.74938 9.88992L0.250622 9.82884ZM39.75 9.85943C39.75 9.44521 39.4142 9.10943 39 9.10943C38.5858 9.10943 38.25 9.44521 38.25 9.85943H39.75ZM39 23.1407L39.7494 23.1712C39.7498 23.161 39.75 23.1508 39.75 23.1407H39ZM28.1421 31.9948L28.164 31.2451C28.1567 31.2449 28.1494 31.2448 28.1421 31.2448V31.9948ZM11.8579 31.9948V31.2448C11.8506 31.2448 11.8433 31.2449 11.836 31.2451L11.8579 31.9948ZM1 23.1407H0.25C0.25 23.1508 0.250207 23.161 0.250622 23.1712L1 23.1407ZM1.75 9.85943C1.75 9.44521 1.41421 9.10943 1 9.10943C0.585786 9.10943 0.25 9.44521 0.25 9.85943H1.75ZM39.341 10.5274C39.7099 10.3391 39.8563 9.88739 39.668 9.51846C39.4797 9.14953 39.028 9.0031 38.659 9.19141L39.341 10.5274ZM25.6645 16.6661L25.3236 15.998L25.3176 16.0011L25.6645 16.6661ZM14.3355 16.6661L14.6824 16.0011L14.6764 15.998L14.3355 16.6661ZM1.34096 9.19141C0.972031 9.0031 0.520296 9.14953 0.331986 9.51846C0.143676 9.88739 0.290101 10.3391 0.659035 10.5274L1.34096 9.19141ZM39 9.85938L39.7494 9.82884C39.5227 4.26598 34.2288 0.0771522 28.1202 0.255545L28.1421 1.00523L28.164 1.75491C33.6438 1.59487 38.0647 5.32808 38.2506 9.88992L39 9.85938ZM28.1421 1.00523V0.255226H11.8579V1.00523V1.75523H28.1421V1.00523ZM11.8579 1.00523L11.8798 0.255545C5.77124 0.0771522 0.477328 4.26598 0.250622 9.82884L1 9.85938L1.74938 9.88992C1.93529 5.32808 6.35618 1.59487 11.836 1.75491L11.8579 1.00523ZM39 9.85943H38.25V23.1407H39H39.75V9.85943H39ZM39 23.1407L38.2506 23.1101C38.0647 27.672 33.6438 31.4052 28.164 31.2451L28.1421 31.9948L28.1202 32.7445C34.2288 32.9229 39.5227 28.7341 39.7494 23.1712L39 23.1407ZM28.1421 31.9948V31.2448H11.8579V31.9948V32.7448H28.1421V31.9948ZM11.8579 31.9948L11.836 31.2451C6.35618 31.4052 1.93529 27.672 1.74938 23.1101L1 23.1407L0.250622 23.1712C0.477328 28.7341 5.77124 32.9229 11.8798 32.7445L11.8579 31.9948ZM1 23.1407H1.75V9.85943H1H0.25V23.1407H1ZM39 9.85943L38.659 9.19141L25.3236 15.998L25.6645 16.6661L26.0055 17.3341L39.341 10.5274L39 9.85943ZM25.6645 16.6661L25.3176 16.0011C22.046 17.7083 17.954 17.7083 14.6824 16.0011L14.3355 16.6661L13.9885 17.331C17.6949 19.265 22.3051 19.265 26.0115 17.331L25.6645 16.6661ZM14.3355 16.6661L14.6764 15.998L1.34096 9.19141L1 9.85943L0.659035 10.5274L13.9945 17.3341L14.3355 16.6661Z" fill="black"/>
</svg>
