<svg width="49" height="33" viewBox="0 0 49 33" fill="none" xmlns="http://www.w3.org/2000/svg">
<path d="M34.9444 11.6562V11.3333C34.9444 5.62639 30.2683 1 24.5 1H11.4444C5.67613 1 1 5.62639 1 11.3333V21.6667C1 27.3736 5.67613 32 11.4444 32H24.5C30.2683 32 34.9444 27.3736 34.9444 21.6667V21.3437M34.9444 11.6562L40.01 8.52267C41.6198 7.52721 43.6489 7.4745 45.3093 8.385C46.9698 9.2955 48 11.0258 48 12.904V20.096C48.0038 21.9761 46.9751 23.7098 45.3139 24.6228C43.6528 25.5359 41.6214 25.4841 40.01 24.4877L34.9444 21.3437M34.9444 11.6562V21.3437" stroke="black" stroke-width="1.5" stroke-linecap="round" stroke-linejoin="round"/>
</svg>
