<svg width="35" height="33" viewBox="0 0 35 33" fill="none" xmlns="http://www.w3.org/2000/svg">
<path d="M34 18.2223C31.8694 17.3544 27.9211 13.9168 20.9737 19.0832C19.1475 18.0706 15.7632 15.639 10.5526 19.9443C9.94387 17.4853 9.82212 11.8878 10.5526 7.02757C10.857 6.30432 12.1108 5.7923 15.7632 9.61101L20.1053 5.30551C19.8009 3.42501 17.5 1 10.5526 1C7.94737 1 5.56937 3.209 4.47368 7.02766C3.10405 10.9333 1 19.9444 1 25.1111C0.999991 26.7023 3.17105 30.2779 11.4211 30.2779C13.1579 30.2779 18.2383 30.4718 24.4474 27.6945L29.6579 32" stroke="white" stroke-linecap="round" stroke-linejoin="round"/>
</svg>
