<svg width="33" height="33" viewBox="0 0 33 33" fill="none" xmlns="http://www.w3.org/2000/svg">
<path d="M1.00722 16.5008C1.00417 13.4463 1.88359 10.456 3.53967 7.88973C5.16978 5.35864 7.51743 3.37123 10.2825 2.18151C13.0181 1.0089 16.0465 0.69989 18.9624 1.29582C21.8943 1.90488 24.5744 3.38416 26.6527 5.54045C28.4261 7.37617 29.722 9.61903 30.427 12.0724M30.4297 12.0648L32.0011 6.01562M30.4338 12.0659L24.5697 10.4451M31.9972 16.5C32.0002 19.5545 31.1208 22.5447 29.4647 25.111C27.8346 27.6421 25.487 29.6295 22.7218 30.8193C19.9863 31.9919 16.9579 32.3009 14.042 31.7049C11.1101 31.0959 8.42997 29.6166 6.35166 27.4603C4.57833 25.6246 3.28234 23.3817 2.57734 20.9284M2.57137 20.9297L1 26.9789M2.57734 20.9295L8.44138 22.5503M16.5 10.9058C16.5 10.1051 17.0971 9.41301 17.8838 9.50891C18.8976 9.63252 20.0144 10.047 20.428 11.0919M16.5 10.9058C16.5 10.1051 15.9029 9.41301 15.1162 9.50891C14.1024 9.63252 12.9856 10.047 12.572 11.0919M16.5 10.9058V22.4698M20.428 11.0919C21.2136 13.0764 21.9992 12.2826 22.7848 13.4733C23.5703 14.664 22.7848 15.4578 22.7848 16.6485M20.428 11.0919C20.6898 11.8857 20.5065 13.7908 19.2496 15.0609M22.7848 16.6485C22.7848 17.8392 24.0866 18.4459 23.1775 19.8238C22.392 21.0145 21.4418 20.3869 20.8208 21.0145C20.0352 21.8083 20.428 22.2052 19.2496 22.999C18.3539 23.6023 17.4583 23.5943 16.9076 23.3233C16.602 23.1729 16.5 22.8133 16.5 22.4698M22.7848 16.6485C22.6538 17.1777 20.8208 18.9839 19.2496 18.9839M16.5 22.4698C16.5 22.8133 16.398 23.1729 16.0924 23.3233C15.5417 23.5943 14.6461 23.6023 13.7504 22.999C12.572 22.2052 12.9648 21.8083 12.1792 21.0145C11.5582 20.3869 10.608 21.0145 9.82245 19.8238C8.91336 18.4459 10.2152 17.8392 10.2152 16.6485M12.572 11.0919C11.7864 13.0764 11.0008 12.2826 10.2152 13.4733C9.42965 14.664 10.2152 15.4578 10.2152 16.6485M12.572 11.0919C12.3102 11.8857 12.4935 13.7908 13.7504 15.0609M10.2152 16.6485C10.3462 17.1777 12.1792 18.9839 13.7504 18.9839" stroke="white" stroke-linecap="round"/>
</svg>
