<svg width="40" height="35" viewBox="0 0 40 35" fill="none" xmlns="http://www.w3.org/2000/svg">
<path fill-rule="evenodd" clip-rule="evenodd" d="M15.4219 16.0001C15.457 13.5569 17.4596 11.6015 19.9024 11.6252C22.3452 11.6489 24.3095 13.6428 24.2971 16.0862C24.2848 18.5296 22.3004 20.5035 19.8574 20.5024C17.3917 20.4791 15.4089 18.4663 15.4219 16.0001V16.0001Z" stroke="white" stroke-width="1.5" stroke-linecap="round" stroke-linejoin="round"/>
<path d="M0.562983 10.878C0.226354 11.1194 0.149121 11.5879 0.390479 11.9246C0.631837 12.2612 1.10039 12.3384 1.43702 12.0971L0.562983 10.878ZM12.1783 3.47288L12.6153 4.0824L12.6161 4.08181L12.1783 3.47288ZM27.5281 3.47288L27.0903 4.08181L27.0912 4.08244L27.5281 3.47288ZM38.2718 12.0971C38.6085 12.3384 39.077 12.2612 39.3183 11.9245C39.5597 11.5878 39.4824 11.1193 39.1457 10.878L38.2718 12.0971ZM6.18945 15.9855C6.18945 15.5713 5.85367 15.2355 5.43945 15.2355C5.02524 15.2355 4.68945 15.5713 4.68945 15.9855H6.18945ZM5.43945 24.9926L6.18945 24.9981V24.9926H5.43945ZM8.01099 31.3343L8.54527 30.8079L8.54527 30.8079L8.01099 31.3343ZM14.3128 33.9996L14.3073 34.7496H14.3128V33.9996ZM25.4039 33.9996V34.7497L25.4094 34.7496L25.4039 33.9996ZM31.7057 31.3343L32.24 31.8606L32.24 31.8606L31.7057 31.3343ZM34.2772 24.9926L33.5272 24.9926L33.5273 24.9981L34.2772 24.9926ZM35.0272 15.9855C35.0272 15.5713 34.6914 15.2355 34.2772 15.2355C33.863 15.2355 33.5272 15.5713 33.5272 15.9855H35.0272ZM1 11.4875L1.43702 12.0971L12.6153 4.0824L12.1783 3.47288L11.7413 2.86336L0.562983 10.878L1 11.4875ZM12.1783 3.47288L12.6161 4.08181C16.9402 0.97273 22.7662 0.97273 27.0903 4.08181L27.5281 3.47288L27.966 2.86394C23.1187 -0.621315 16.5877 -0.621315 11.7405 2.86394L12.1783 3.47288ZM27.5281 3.47288L27.0912 4.08244L38.2718 12.0971L38.7088 11.4875L39.1457 10.878L27.9651 2.86331L27.5281 3.47288ZM5.43945 15.9855H4.68945V24.9926H5.43945H6.18945V15.9855H5.43945ZM5.43945 24.9926L4.68948 24.987C4.67044 27.5572 5.67302 30.0297 7.47671 31.8606L8.01099 31.3343L8.54527 30.8079C7.02078 29.2604 6.17334 27.1706 6.18943 24.9981L5.43945 24.9926ZM8.01099 31.3343L7.47671 31.8606C9.2804 33.6915 11.7374 34.7307 14.3073 34.7496L14.3128 33.9996L14.3183 33.2497C12.1464 33.2337 10.0698 32.3554 8.54527 30.8079L8.01099 31.3343ZM14.3128 33.9996V34.7496H25.4039V33.9996V33.2496H14.3128V33.9996ZM25.4039 33.9996L25.4094 34.7496C27.9792 34.7307 30.4363 33.6915 32.24 31.8606L31.7057 31.3343L31.1714 30.8079C29.6469 32.3554 27.5703 33.2337 25.3984 33.2497L25.4039 33.9996ZM31.7057 31.3343L32.24 31.8606C34.0437 30.0297 35.0463 27.5572 35.0272 24.987L34.2772 24.9926L33.5273 24.9981C33.5433 27.1706 32.6959 29.2604 31.1714 30.8079L31.7057 31.3343ZM34.2772 24.9926H35.0272V15.9855H34.2772H33.5272V24.9926H34.2772Z" fill="white"/>
</svg>
