<svg width="35" height="33" viewBox="0 0 35 33" fill="none" xmlns="http://www.w3.org/2000/svg">
<path d="M33.4536 9.88756C33.4683 10.3015 33.8158 10.6251 34.2298 10.6104C34.6437 10.5957 34.9673 10.2481 34.9526 9.83419L33.4536 9.88756ZM24.7159 1.00523V1.75523C24.7242 1.75523 24.7326 1.75509 24.7409 1.75481L24.7159 1.00523ZM10.4872 1.00523L10.4622 1.75481C10.4705 1.75509 10.4789 1.75523 10.4872 1.75523L10.4872 1.00523ZM0.250475 9.83419C0.235737 10.2481 0.559363 10.5957 0.973315 10.6104C1.38727 10.6251 1.73479 10.3015 1.74953 9.88756L0.250475 9.83419ZM34.9531 9.85565C34.9531 9.44144 34.6173 9.10565 34.2031 9.10565C33.7889 9.10565 33.4531 9.44144 33.4531 9.85565H34.9531ZM34.2031 23.1391L34.9526 23.1658C34.9529 23.1569 34.9531 23.148 34.9531 23.1391H34.2031ZM24.7159 31.9948L24.7409 31.2452C24.7326 31.2449 24.7242 31.2448 24.7159 31.2448V31.9948ZM10.4872 31.9948V31.2448C10.4789 31.2448 10.4705 31.2449 10.4622 31.2452L10.4872 31.9948ZM1 23.1391H0.25C0.25 23.148 0.250158 23.1569 0.250475 23.1658L1 23.1391ZM1.75 9.85565C1.75 9.44144 1.41421 9.10565 1 9.10565C0.585786 9.10565 0.25 9.44144 0.25 9.85565H1.75ZM34.5814 10.5032C34.9391 10.2943 35.0596 9.83495 34.8507 9.4773C34.6417 9.11966 34.1824 8.99912 33.8247 9.20808L34.5814 10.5032ZM22.551 16.6634L22.1727 16.0158L22.1664 16.0195L22.551 16.6634ZM12.6521 16.6634L13.0367 16.0195L13.0304 16.0159L12.6521 16.6634ZM1.37835 9.20808C1.0207 8.99912 0.561382 9.11966 0.352426 9.4773C0.14347 9.83495 0.264006 10.2943 0.621651 10.5032L1.37835 9.20808ZM34.2031 9.86088L34.9526 9.83419C34.7576 4.35779 30.167 0.0725827 24.6908 0.255645L24.7159 1.00523L24.7409 1.75481C29.3902 1.59939 33.288 5.23755 33.4536 9.88756L34.2031 9.86088ZM24.7159 1.00523V0.255227H10.4872V1.00523V1.75523H24.7159V1.00523ZM10.4872 1.00523L10.5123 0.255645C5.03609 0.0725827 0.445452 4.35779 0.250475 9.83419L1 9.86088L1.74953 9.88756C1.91508 5.23755 5.8129 1.59939 10.4622 1.75481L10.4872 1.00523ZM34.2031 9.85565H33.4531V23.1391H34.2031H34.9531V9.85565H34.2031ZM34.2031 23.1391L33.4536 23.1124C33.288 27.7624 29.3902 31.4006 24.7409 31.2452L24.7159 31.9948L24.6908 32.7444C30.167 32.9274 34.7576 28.6422 34.9526 23.1658L34.2031 23.1391ZM24.7159 31.9948V31.2448H10.4872V31.9948V32.7448H24.7159V31.9948ZM10.4872 31.9948L10.4622 31.2452C5.8129 31.4006 1.91508 27.7624 1.74953 23.1124L1 23.1391L0.250475 23.1658C0.445452 28.6422 5.03609 32.9274 10.5123 32.7444L10.4872 31.9948ZM1 23.1391H1.75V9.85565H1H0.25V23.1391H1ZM34.2031 9.85565L33.8247 9.20808L22.1727 16.0159L22.551 16.6634L22.9294 17.311L34.5814 10.5032L34.2031 9.85565ZM22.551 16.6634L22.1664 16.0195C19.3548 17.6989 15.8483 17.6989 13.0367 16.0195L12.6521 16.6634L12.2675 17.3073C15.5529 19.2697 19.6502 19.2697 22.9356 17.3073L22.551 16.6634ZM12.6521 16.6634L13.0304 16.0159L1.37835 9.20808L1 9.85565L0.621651 10.5032L12.2737 17.311L12.6521 16.6634Z" fill="white"/>
</svg>
