<svg width="22" height="33" viewBox="0 0 22 33" fill="none" xmlns="http://www.w3.org/2000/svg">
<path fill-rule="evenodd" clip-rule="evenodd" d="M15.9464 6.166L15.9464 14.7774C15.997 17.58 13.7669 19.8934 10.9643 19.9455C8.16168 19.8934 5.93153 17.58 5.98214 14.7774L5.98214 6.166C5.93277 3.36423 8.16256 1.05218 10.9643 1.00007C13.766 1.05218 15.9958 3.36423 15.9464 6.166Z" stroke="black" stroke-width="1.5" stroke-linecap="round" stroke-linejoin="round"/>
<path d="M1.46233 21.3212C1.13618 21.0659 0.664784 21.1233 0.409447 21.4494C0.15411 21.7756 0.211518 22.247 0.537671 22.5023L1.46233 21.3212ZM21.3909 22.5023C21.7171 22.247 21.7745 21.7756 21.5191 21.4494C21.2638 21.1233 20.7924 21.0659 20.4662 21.3212L21.3909 22.5023ZM11.7143 25.3571C11.7143 24.9429 11.3785 24.6071 10.9643 24.6071C10.5501 24.6071 10.2143 24.9429 10.2143 25.3571H11.7143ZM10.2143 32C10.2143 32.4142 10.5501 32.75 10.9643 32.75C11.3785 32.75 11.7143 32.4142 11.7143 32H10.2143ZM1 21.9117L0.537671 22.5023C6.66197 27.2969 15.2666 27.2969 21.3909 22.5023L20.9286 21.9117L20.4662 21.3212C14.8851 25.6906 7.04351 25.6906 1.46233 21.3212L1 21.9117ZM10.9643 25.3571H10.2143V32H10.9643H11.7143V25.3571H10.9643Z" fill="black"/>
</svg>
