<svg width="31" height="33" viewBox="0 0 31 33" fill="none" xmlns="http://www.w3.org/2000/svg">
<path fill-rule="evenodd" clip-rule="evenodd" d="M10.9992 1H19.9478C22.2398 1 20.9812 4.43893 20.0532 6.5366L18.9972 8.9422L18.8546 9.26667C19.8549 9.21813 20.8439 9.49513 21.6735 10.0561C24.7765 12.8954 27.2947 16.3136 29.0866 20.1187C29.785 21.5258 30.062 23.1046 29.8844 24.6654C29.6712 28.6435 26.4796 31.8136 22.5002 32H8.44684C4.46634 31.8191 1.27004 28.6523 1.05231 24.6737C0.874664 23.1129 1.15168 21.5341 1.85004 20.127C3.6441 16.3181 6.16595 12.8969 9.27351 10.0561C10.1031 9.49513 11.0922 9.21813 12.0924 9.26667L11.9271 8.8926L10.8938 6.5366C9.96997 4.43893 8.70517 1 10.9992 1Z" stroke="white" stroke-linecap="round" stroke-linejoin="round"/>
<path d="M18.8496 9.75943C19.1258 9.75943 19.3496 9.53557 19.3496 9.25943C19.3496 8.98328 19.1258 8.75943 18.8496 8.75943V9.75943ZM12.0875 8.75943C11.8114 8.75943 11.5875 8.98328 11.5875 9.25943C11.5875 9.53557 11.8114 9.75943 12.0875 9.75943V8.75943ZM23.9735 7.63126C24.2143 7.49603 24.2998 7.19123 24.1646 6.95046C24.0294 6.7097 23.7246 6.62414 23.4838 6.75937L23.9735 7.63126ZM18.9856 8.93751L19.0798 9.42857L19.0812 9.4283L18.9856 8.93751ZM11.9156 8.88791L12.0166 8.3982L12.0122 8.39733L11.9156 8.88791ZM7.43249 6.75515C7.18939 6.62416 6.88614 6.71504 6.75515 6.95813C6.62416 7.20123 6.71504 7.50449 6.95813 7.63548L7.43249 6.75515ZM18.8496 8.75943H12.0875V9.75943H18.8496V8.75943ZM23.4838 6.75937C22.0524 7.56332 20.5015 8.13298 18.8901 8.44673L19.0812 9.4283C20.7974 9.09416 22.4491 8.48747 23.9735 7.63126L23.4838 6.75937ZM18.8915 8.44646C16.6189 8.88215 14.2828 8.86577 12.0166 8.39823L11.8146 9.3776C14.2094 9.87169 16.6782 9.88901 19.0798 9.42857L18.8915 8.44646ZM12.0122 8.39733C10.412 8.08233 8.86821 7.52876 7.43249 6.75515L6.95813 7.63548C8.48201 8.4566 10.1206 9.04416 11.819 9.3785L12.0122 8.39733Z" fill="white"/>
<path d="M16.3944 13.9185V16.1084H15.2665V13.9185H16.3944ZM16.2552 25.8789V27.8418H15.1346V25.8789H16.2552ZM17.3612 23.5132C17.3612 23.23 17.3026 22.9834 17.1854 22.7734C17.0731 22.5586 16.8876 22.3657 16.6288 22.1948C16.37 22.019 16.0233 21.8555 15.5887 21.7041C14.9637 21.4844 14.4169 21.2378 13.9481 20.9644C13.4842 20.686 13.1229 20.3442 12.8641 19.939C12.6102 19.5288 12.4833 19.0186 12.4833 18.4082C12.4833 17.8076 12.62 17.2876 12.8934 16.8481C13.1717 16.4087 13.5575 16.0693 14.0507 15.8301C14.5438 15.5908 15.12 15.4712 15.7792 15.4712C16.287 15.4712 16.7435 15.5469 17.1488 15.6982C17.559 15.8496 17.9081 16.0718 18.1962 16.3647C18.4842 16.6577 18.704 17.019 18.8553 17.4487C19.0116 17.8735 19.0897 18.3618 19.0897 18.9136H17.3319C17.3319 18.6011 17.2953 18.3228 17.222 18.0786C17.1537 17.8296 17.0511 17.6196 16.9144 17.4487C16.7777 17.2729 16.6117 17.1387 16.4164 17.0459C16.2259 16.9531 16.0087 16.9067 15.7645 16.9067C15.4178 16.9067 15.1322 16.9727 14.9076 17.1045C14.683 17.2314 14.517 17.4072 14.4095 17.6318C14.307 17.8564 14.2557 18.1128 14.2557 18.4009C14.2557 18.6792 14.3094 18.9233 14.4169 19.1333C14.5243 19.3433 14.7074 19.5337 14.9662 19.7046C15.2299 19.8706 15.5912 20.0391 16.0502 20.21C16.6801 20.4346 17.2245 20.686 17.6835 20.9644C18.1473 21.2378 18.5038 21.5771 18.7528 21.9824C19.0067 22.3828 19.1337 22.8882 19.1337 23.4985C19.1337 24.1284 18.9872 24.6631 18.6942 25.1025C18.4061 25.542 18.0009 25.8765 17.4784 26.106C16.9608 26.3306 16.3578 26.4429 15.6693 26.4429C15.2347 26.4429 14.8026 26.3867 14.3729 26.2744C13.9481 26.1572 13.5624 25.9668 13.2157 25.7031C12.869 25.4395 12.5931 25.0903 12.3881 24.6558C12.183 24.2163 12.0804 23.6792 12.0804 23.0444H13.8529C13.8529 23.4253 13.9042 23.7427 14.0067 23.9966C14.1092 24.2505 14.2484 24.4507 14.4242 24.5972C14.6 24.7437 14.7953 24.8486 15.0101 24.9121C15.2299 24.9756 15.4496 25.0073 15.6693 25.0073C16.0355 25.0073 16.3431 24.9463 16.5922 24.8242C16.8461 24.6973 17.0365 24.5215 17.1634 24.2969C17.2953 24.0674 17.3612 23.8062 17.3612 23.5132Z" fill="white"/>
</svg>
