<svg width="33" height="33" viewBox="0 0 33 33" fill="none" xmlns="http://www.w3.org/2000/svg">
<path d="M1 15.75C0.585786 15.75 0.25 16.0858 0.25 16.5C0.25 16.9142 0.585786 17.25 1 17.25V15.75ZM16.5 17.25C16.9142 17.25 17.25 16.9142 17.25 16.5C17.25 16.0858 16.9142 15.75 16.5 15.75V17.25ZM16.5 15.75C16.0858 15.75 15.75 16.0858 15.75 16.5C15.75 16.9142 16.0858 17.25 16.5 17.25V15.75ZM32 17.25C32.4142 17.25 32.75 16.9142 32.75 16.5C32.75 16.0858 32.4142 15.75 32 15.75V17.25ZM17.25 16.5C17.25 16.0858 16.9142 15.75 16.5 15.75C16.0858 15.75 15.75 16.0858 15.75 16.5H17.25ZM15.75 32C15.75 32.4142 16.0858 32.75 16.5 32.75C16.9142 32.75 17.25 32.4142 17.25 32H15.75ZM15.75 16.5C15.75 16.9142 16.0858 17.25 16.5 17.25C16.9142 17.25 17.25 16.9142 17.25 16.5H15.75ZM17.25 1C17.25 0.585786 16.9142 0.25 16.5 0.25C16.0858 0.25 15.75 0.585786 15.75 1H17.25ZM1 16.5V17.25H16.5V16.5V15.75H1V16.5ZM16.5 16.5V17.25H32V16.5V15.75H16.5V16.5ZM16.5 16.5C16.5 16.5 15.75 16.5 15.75 16.5C15.75 16.5 15.75 16.5 15.75 16.5C15.75 16.5 15.75 16.5 15.75 16.5C15.75 16.5 15.75 16.5 15.75 16.5C15.75 16.5 15.75 16.5 15.75 16.5C15.75 16.5 15.75 16.5 15.75 16.5C15.75 16.5 15.75 16.5 15.75 16.5C15.75 16.5 15.75 16.5001 15.75 16.5001C15.75 16.5001 15.75 16.5001 15.75 16.5001C15.75 16.5001 15.75 16.5001 15.75 16.5001C15.75 16.5001 15.75 16.5001 15.75 16.5002C15.75 16.5002 15.75 16.5002 15.75 16.5002C15.75 16.5002 15.75 16.5002 15.75 16.5003C15.75 16.5003 15.75 16.5003 15.75 16.5003C15.75 16.5003 15.75 16.5004 15.75 16.5004C15.75 16.5004 15.75 16.5004 15.75 16.5005C15.75 16.5005 15.75 16.5005 15.75 16.5006C15.75 16.5006 15.75 16.5006 15.75 16.5007C15.75 16.5007 15.75 16.5008 15.75 16.5008C15.75 16.5008 15.75 16.5009 15.75 16.5009C15.75 16.501 15.75 16.501 15.75 16.5011C15.75 16.5011 15.75 16.5012 15.75 16.5012C15.75 16.5013 15.75 16.5013 15.75 16.5014C15.75 16.5015 15.75 16.5015 15.75 16.5016C15.75 16.5017 15.75 16.5017 15.75 16.5018C15.75 16.5019 15.75 16.502 15.75 16.502C15.75 16.5021 15.75 16.5022 15.75 16.5023C15.75 16.5024 15.75 16.5024 15.75 16.5025C15.75 16.5026 15.75 16.5027 15.75 16.5028C15.75 16.5029 15.75 16.503 15.75 16.5031C15.75 16.5032 15.75 16.5033 15.75 16.5034C15.75 16.5036 15.75 16.5037 15.75 16.5038C15.75 16.5039 15.75 16.504 15.75 16.5042C15.75 16.5043 15.75 16.5044 15.75 16.5045C15.75 16.5047 15.75 16.5048 15.75 16.505C15.75 16.5051 15.75 16.5052 15.75 16.5054C15.75 16.5055 15.75 16.5057 15.75 16.5058C15.75 16.506 15.75 16.5062 15.75 16.5063C15.75 16.5065 15.75 16.5067 15.75 16.5069C15.75 16.507 15.75 16.5072 15.75 16.5074C15.75 16.5076 15.75 16.5078 15.75 16.508C15.75 16.5082 15.75 16.5084 15.75 16.5086C15.75 16.5088 15.75 16.509 15.75 16.5092C15.75 16.5094 15.75 16.5096 15.75 16.5098C15.75 16.5101 15.75 16.5103 15.75 16.5105C15.75 16.5108 15.75 16.511 15.75 16.5112C15.75 16.5115 15.75 16.5117 15.75 16.512C15.75 16.5122 15.75 16.5125 15.75 16.5128C15.75 16.513 15.75 16.5133 15.75 16.5136C15.75 16.5139 15.75 16.5141 15.75 16.5144C15.75 16.5147 15.75 16.515 15.75 16.5153C15.75 16.5156 15.75 16.5159 15.75 16.5162C15.75 16.5166 15.75 16.5169 15.75 16.5172C15.75 16.5175 15.75 16.5178 15.75 16.5182C15.75 16.5185 15.75 16.5189 15.75 16.5192C15.75 16.5196 15.75 16.5199 15.75 16.5203C15.75 16.5206 15.75 16.521 15.75 16.5214C15.75 16.5218 15.75 16.5221 15.75 16.5225C15.75 16.5229 15.75 16.5233 15.75 16.5237C15.75 16.5241 15.75 16.5245 15.75 16.5249C15.75 16.5254 15.75 16.5258 15.75 16.5262C15.75 16.5266 15.75 16.5271 15.75 16.5275C15.75 16.528 15.75 16.5284 15.75 16.5289C15.75 16.5293 15.75 16.5298 15.75 16.5303C15.75 16.5307 15.75 16.5312 15.75 16.5317C15.75 16.5322 15.75 16.5327 15.75 16.5332C15.75 16.5337 15.75 16.5342 15.75 16.5347C15.75 16.5353 15.75 16.5358 15.75 16.5363C15.75 16.5368 15.75 16.5374 15.75 16.5379C15.75 16.5385 15.75 16.539 15.75 16.5396C15.75 16.5402 15.75 16.5408 15.75 16.5413C15.75 16.5419 15.75 16.5425 15.75 16.5431C15.75 16.5437 15.75 16.5443 15.75 16.5449C15.75 16.5455 15.75 16.5462 15.75 16.5468C15.75 16.5474 15.75 16.5481 15.75 16.5487C15.75 16.5494 15.75 16.55 15.75 16.5507C15.75 16.5514 15.75 16.552 15.75 16.5527C15.75 16.5534 15.75 16.5541 15.75 16.5548C15.75 16.5555 15.75 16.5562 15.75 16.5569C15.75 16.5577 15.75 16.5584 15.75 16.5591C15.75 16.5599 15.75 16.5606 15.75 16.5614C15.75 16.5621 15.75 16.5629 15.75 16.5637C15.75 16.5645 15.75 16.5652 15.75 16.566C15.75 16.5668 15.75 16.5676 15.75 16.5684C15.75 16.5693 15.75 16.5701 15.75 16.5709C15.75 16.5718 15.75 16.5726 15.75 16.5735C15.75 16.5743 15.75 16.5752 15.75 16.576C15.75 16.5769 15.75 16.5778 15.75 16.5787C15.75 16.5796 15.75 16.5805 15.75 16.5814C15.75 16.5823 15.75 16.5833 15.75 16.5842C15.75 16.5851 15.75 16.5861 15.75 16.587C15.75 16.588 15.75 16.5889 15.75 16.5899C15.75 16.5909 15.75 16.5919 15.75 16.5929C15.75 16.5939 15.75 16.5949 15.75 16.5959C15.75 16.5969 15.75 16.598 15.75 16.599C15.75 16.6001 15.75 16.6011 15.75 16.6022C15.75 16.6032 15.75 16.6043 15.75 16.6054C15.75 16.6065 15.75 16.6076 15.75 16.6087C15.75 16.6098 15.75 16.6109 15.75 16.6121C15.75 16.6132 15.75 16.6143 15.75 16.6155C15.75 16.6166 15.75 16.6178 15.75 16.619C15.75 16.6202 15.75 16.6214 15.75 16.6226C15.75 16.6238 15.75 16.625 15.75 16.6262C15.75 16.6274 15.75 16.6287 15.75 16.6299C15.75 16.6312 15.75 16.6324 15.75 16.6337C15.75 16.635 15.75 16.6362 15.75 16.6375C15.75 16.6388 15.75 16.6402 15.75 16.6415C15.75 16.6428 15.75 16.6441 15.75 16.6455C15.75 16.6468 15.75 16.6482 15.75 16.6496C15.75 16.6509 15.75 16.6523 15.75 16.6537C15.75 16.6551 15.75 16.6565 15.75 16.6579C15.75 16.6594 15.75 16.6608 15.75 16.6622C15.75 16.6637 15.75 16.6652 15.75 16.6666C15.75 16.6681 15.75 16.6696 15.75 16.6711C15.75 16.6726 15.75 16.6741 15.75 16.6756C15.75 16.6772 15.75 16.6787 15.75 16.6803C15.75 16.6818 15.75 16.6834 15.75 16.685C15.75 16.6865 15.75 16.6881 15.75 16.6897C15.75 16.6914 15.75 16.693 15.75 16.6946C15.75 16.6962 15.75 16.6979 15.75 16.6996C15.75 16.7012 15.75 16.7029 15.75 16.7046C15.75 16.7063 15.75 16.708 15.75 16.7097C15.75 16.7114 15.75 16.7132 15.75 16.7149C15.75 16.7166 15.75 16.7184 15.75 16.7202C15.75 16.722 15.75 16.7238 15.75 16.7256C15.75 16.7274 15.75 16.7292 15.75 16.731C15.75 16.7328 15.75 16.7347 15.75 16.7366C15.75 16.7384 15.75 16.7403 15.75 16.7422C15.75 16.7441 15.75 16.746 15.75 16.7479C15.75 16.7498 15.75 16.7518 15.75 16.7537C15.75 16.7557 15.75 16.7576 15.75 16.7596C15.75 16.7616 15.75 16.7636 15.75 16.7656C15.75 16.7676 15.75 16.7696 15.75 16.7717C15.75 16.7737 15.75 16.7758 15.75 16.7779C15.75 16.7799 15.75 16.782 15.75 16.7841C15.75 16.7862 15.75 16.7884 15.75 16.7905C15.75 16.7926 15.75 16.7948 15.75 16.797C15.75 16.7991 15.75 16.8013 15.75 16.8035C15.75 16.8057 15.75 16.8079 15.75 16.8101C15.75 16.8124 15.75 16.8146 15.75 16.8169C15.75 16.8192 15.75 16.8214 15.75 16.8237C15.75 16.826 15.75 16.8283 15.75 16.8307C15.75 16.833 15.75 16.8353 15.75 16.8377C15.75 16.8401 15.75 16.8424 15.75 16.8448C15.75 16.8472 15.75 16.8496 15.75 16.8521C15.75 16.8545 15.75 16.8569 15.75 16.8594C15.75 16.8619 15.75 16.8643 15.75 16.8668C15.75 16.8693 15.75 16.8718 15.75 16.8744C15.75 16.8769 15.75 16.8795 15.75 16.882C15.75 16.8846 15.75 16.8872 15.75 16.8898C15.75 16.8924 15.75 16.895 15.75 16.8976C15.75 16.9002 15.75 16.9029 15.75 16.9056C15.75 16.9082 15.75 16.9109 15.75 16.9136C15.75 16.9163 15.75 16.919 15.75 16.9218C15.75 16.9245 15.75 16.9273 15.75 16.93C15.75 16.9328 15.75 16.9356 15.75 16.9384C15.75 16.9412 15.75 16.9441 15.75 16.9469C15.75 16.9498 15.75 16.9526 15.75 16.9555C15.75 16.9584 15.75 16.9613 15.75 16.9642C15.75 16.9671 15.75 16.9701 15.75 16.973C15.75 16.976 15.75 16.979 15.75 16.9819C15.75 16.9849 15.75 16.988 15.75 16.991C15.75 16.994 15.75 16.9971 15.75 17.0001C15.75 17.0032 15.75 17.0063 15.75 17.0094C15.75 17.0125 15.75 17.0156 15.75 17.0188C15.75 17.0219 15.75 17.0251 15.75 17.0283C15.75 17.0314 15.75 17.0346 15.75 17.0379C15.75 17.0411 15.75 17.0443 15.75 17.0476C15.75 17.0508 15.75 17.0541 15.75 17.0574C15.75 17.0607 15.75 17.064 15.75 17.0674C15.75 17.0707 15.75 17.0741 15.75 17.0774C15.75 17.0808 15.75 17.0842 15.75 17.0876C15.75 17.0911 15.75 17.0945 15.75 17.0979C15.75 17.1014 15.75 17.1049 15.75 17.1084C15.75 17.1119 15.75 17.1154 15.75 17.1189C15.75 17.1225 15.75 17.126 15.75 17.1296C15.75 17.1332 15.75 17.1368 15.75 17.1404C15.75 17.144 15.75 17.1476 15.75 17.1513C15.75 17.155 15.75 17.1586 15.75 17.1623C15.75 17.166 15.75 17.1698 15.75 17.1735C15.75 17.1772 15.75 17.181 15.75 17.1848C15.75 17.1886 15.75 17.1924 15.75 17.1962C15.75 17.2 15.75 17.2039 15.75 17.2077C15.75 17.2116 15.75 17.2155 15.75 17.2194C15.75 17.2233 15.75 17.2272 15.75 17.2312C15.75 17.2352 15.75 17.2391 15.75 17.2431C15.75 17.2471 15.75 17.2511 15.75 17.2552C15.75 17.2592 15.75 17.2633 15.75 17.2674C15.75 17.2714 15.75 17.2755 15.75 17.2797C15.75 17.2838 15.75 17.2879 15.75 17.2921C15.75 17.2963 15.75 17.3005 15.75 17.3047C15.75 17.3089 15.75 17.3131 15.75 17.3174C15.75 17.3216 15.75 17.3259 15.75 17.3302C15.75 17.3345 15.75 17.3388 15.75 17.3432C15.75 17.3475 15.75 17.3519 15.75 17.3563C15.75 17.3607 15.75 17.3651 15.75 17.3695C15.75 17.374 15.75 17.3784 15.75 17.3829C15.75 17.3874 15.75 17.3919 15.75 17.3964C15.75 17.401 15.75 17.4055 15.75 17.4101C15.75 17.4147 15.75 17.4193 15.75 17.4239C15.75 17.4285 15.75 17.4331 15.75 17.4378C15.75 17.4425 15.75 17.4472 15.75 17.4519C15.75 17.4566 15.75 17.4613 15.75 17.4661C15.75 17.4708 15.75 17.4756 15.75 17.4804C15.75 17.4852 15.75 17.4901 15.75 17.4949C15.75 17.4998 15.75 17.5046 15.75 17.5095C15.75 17.5144 15.75 17.5194 15.75 17.5243C15.75 17.5293 15.75 17.5342 15.75 17.5392C15.75 17.5442 15.75 17.5492 15.75 17.5543C15.75 17.5593 15.75 17.5644 15.75 17.5695C15.75 17.5746 15.75 17.5797 15.75 17.5848C15.75 17.59 15.75 17.5952 15.75 17.6003C15.75 17.6055 15.75 17.6108 15.75 17.616C15.75 17.6212 15.75 17.6265 15.75 17.6318C15.75 17.6371 15.75 17.6424 15.75 17.6477C15.75 17.6531 15.75 17.6584 15.75 17.6638C15.75 17.6692 15.75 17.6746 15.75 17.6801C15.75 17.6855 15.75 17.691 15.75 17.6964C15.75 17.7019 15.75 17.7074 15.75 17.713C15.75 17.7185 15.75 17.7241 15.75 17.7297C15.75 17.7353 15.75 17.7409 15.75 17.7465C15.75 17.7522 15.75 17.7578 15.75 17.7635C15.75 17.7692 15.75 17.7749 15.75 17.7807C15.75 17.7864 15.75 17.7922 15.75 17.798C15.75 17.8038 15.75 17.8096 15.75 17.8154C15.75 17.8213 15.75 17.8272 15.75 17.8331C15.75 17.839 15.75 17.8449 15.75 17.8508C15.75 17.8568 15.75 17.8628 15.75 17.8688C15.75 17.8748 15.75 17.8808 15.75 17.8868C15.75 17.8929 15.75 17.899 15.75 17.9051C15.75 17.9112 15.75 17.9173 15.75 17.9235C15.75 17.9297 15.75 17.9359 15.75 17.9421C15.75 17.9483 15.75 17.9545 15.75 17.9608C15.75 17.9671 15.75 17.9734 15.75 17.9797C15.75 17.986 15.75 17.9924 15.75 17.9987C15.75 18.0051 15.75 18.0115 15.75 18.018C15.75 18.0244 15.75 18.0308 15.75 18.0373C15.75 18.0438 15.75 18.0503 15.75 18.0569C15.75 18.0634 15.75 18.07 15.75 18.0766C15.75 18.0832 15.75 18.0898 15.75 18.0965C15.75 18.1031 15.75 18.1098 15.75 18.1165C15.75 18.1232 15.75 18.1299 15.75 18.1367C15.75 18.1435 15.75 18.1502 15.75 18.1571C15.75 18.1639 15.75 18.1707 15.75 18.1776C15.75 18.1845 15.75 18.1914 15.75 18.1983C15.75 18.2053 15.75 18.2122 15.75 18.2192C15.75 18.2262 15.75 18.2332 15.75 18.2403C15.75 18.2473 15.75 18.2544 15.75 18.2615C15.75 18.2686 15.75 18.2757 15.75 18.2829C15.75 18.29 15.75 18.2972 15.75 18.3044C15.75 18.3117 15.75 18.3189 15.75 18.3262C15.75 18.3335 15.75 18.3408 15.75 18.3481C15.75 18.3554 15.75 18.3628 15.75 18.3702C15.75 18.3776 15.75 18.385 15.75 18.3924C15.75 18.3999 15.75 18.4074 15.75 18.4149C15.75 18.4224 15.75 18.4299 15.75 18.4375C15.75 18.4451 15.75 18.4527 15.75 18.4603C15.75 18.4679 15.75 18.4756 15.75 18.4833C15.75 18.491 15.75 18.4987 15.75 18.5064C15.75 18.5142 15.75 18.5219 15.75 18.5297C15.75 18.5376 15.75 18.5454 15.75 18.5533C15.75 18.5611 15.75 18.569 15.75 18.5769C15.75 18.5849 15.75 18.5928 15.75 18.6008C15.75 18.6088 15.75 18.6168 15.75 18.6249C15.75 18.6329 15.75 18.641 15.75 18.6491C15.75 18.6572 15.75 18.6654 15.75 18.6735C15.75 18.6817 15.75 18.6899 15.75 18.6981C15.75 18.7064 15.75 18.7146 15.75 18.7229C15.75 18.7312 15.75 18.7396 15.75 18.7479C15.75 18.7563 15.75 18.7647 15.75 18.7731C15.75 18.7815 15.75 18.7899 15.75 18.7984C15.75 18.8069 15.75 18.8154 15.75 18.824C15.75 18.8325 15.75 18.8411 15.75 18.8497C15.75 18.8583 15.75 18.8669 15.75 18.8756C15.75 18.8843 15.75 18.893 15.75 18.9017C15.75 18.9104 15.75 18.9192 15.75 18.928C15.75 18.9368 15.75 18.9456 15.75 18.9545C15.75 18.9634 15.75 18.9722 15.75 18.9812C15.75 18.9901 15.75 18.9991 15.75 19.008C15.75 19.017 15.75 19.0261 15.75 19.0351C15.75 19.0442 15.75 19.0532 15.75 19.0624C15.75 19.0715 15.75 19.0806 15.75 19.0898C15.75 19.099 15.75 19.1082 15.75 19.1175C15.75 19.1267 15.75 19.136 15.75 19.1453C15.75 19.1546 15.75 19.164 15.75 19.1734C15.75 19.1827 15.75 19.1921 15.75 19.2016C15.75 19.211 15.75 19.2205 15.75 19.23C15.75 19.2395 15.75 19.2491 15.75 19.2587C15.75 19.2682 15.75 19.2779 15.75 19.2875C15.75 19.2971 15.75 19.3068 15.75 19.3165C15.75 19.3263 15.75 19.336 15.75 19.3458C15.75 19.3556 15.75 19.3654 15.75 19.3752C15.75 19.3851 15.75 19.3949 15.75 19.4049C15.75 19.4148 15.75 19.4247 15.75 19.4347C15.75 19.4447 15.75 19.4547 15.75 19.4647C15.75 19.4748 15.75 19.4849 15.75 19.495C15.75 19.5051 15.75 19.5153 15.75 19.5255C15.75 19.5356 15.75 19.5459 15.75 19.5561C15.75 19.5664 15.75 19.5767 15.75 19.587C15.75 19.5973 15.75 19.6077 15.75 19.6181C15.75 19.6285 15.75 19.6389 15.75 19.6494C15.75 19.6598 15.75 19.6703 15.75 19.6808C15.75 19.6914 15.75 19.7019 15.75 19.7125C15.75 19.7232 15.75 19.7338 15.75 19.7445C15.75 19.7551 15.75 19.7658 15.75 19.7766C15.75 19.7873 15.75 19.7981 15.75 19.8089C15.75 19.8197 15.75 19.8306 15.75 19.8415C15.75 19.8523 15.75 19.8633 15.75 19.8742C15.75 19.8852 15.75 19.8962 15.75 19.9072C15.75 19.9182 15.75 19.9293 15.75 19.9404C15.75 19.9515 15.75 19.9626 15.75 19.9738C15.75 19.985 15.75 19.9962 15.75 20.0074C15.75 20.0186 15.75 20.0299 15.75 20.0412C15.75 20.0525 15.75 20.0639 15.75 20.0753C15.75 20.0867 15.75 20.0981 15.75 20.1096C15.75 20.121 15.75 20.1325 15.75 20.144C15.75 20.1556 15.75 20.1671 15.75 20.1787C15.75 20.1903 15.75 20.202 15.75 20.2137C15.75 20.2253 15.75 20.2371 15.75 20.2488C15.75 20.2606 15.75 20.2724 15.75 20.2842C15.75 20.296 15.75 20.3079 15.75 20.3198C15.75 20.3317 15.75 20.3436 15.75 20.3556C15.75 20.3676 15.75 20.3796 15.75 20.3916C15.75 20.4037 15.75 20.4157 15.75 20.4279C15.75 20.44 15.75 20.4522 15.75 20.4643C15.75 20.4765 15.75 20.4888 15.75 20.5011C15.75 20.5133 15.75 20.5256 15.75 20.538C15.75 20.5503 15.75 20.5627 15.75 20.5751C15.75 20.5876 15.75 20.6 15.75 20.6125C15.75 20.625 15.75 20.6376 15.75 20.6501C15.75 20.6627 15.75 20.6753 15.75 20.688C15.75 20.7006 15.75 20.7133 15.75 20.7261C15.75 20.7388 15.75 20.7516 15.75 20.7644C15.75 20.7772 15.75 20.79 15.75 20.8029C15.75 20.8158 15.75 20.8287 15.75 20.8417C15.75 20.8546 15.75 20.8676 15.75 20.8807C15.75 20.8937 15.75 20.9068 15.75 20.9199C15.75 20.933 15.75 20.9462 15.75 20.9594C15.75 20.9725 15.75 20.9858 15.75 20.9991C15.75 21.0123 15.75 21.0256 15.75 21.039C15.75 21.0523 15.75 21.0657 15.75 21.0792C15.75 21.0926 15.75 21.106 15.75 21.1196C15.75 21.1331 15.75 21.1466 15.75 21.1602C15.75 21.1738 15.75 21.1874 15.75 21.2011C15.75 21.2147 15.75 21.2284 15.75 21.2422C15.75 21.2559 15.75 21.2697 15.75 21.2835C15.75 21.2974 15.75 21.3112 15.75 21.3251C15.75 21.339 15.75 21.353 15.75 21.367C15.75 21.381 15.75 21.395 15.75 21.4091C15.75 21.4231 15.75 21.4372 15.75 21.4514C15.75 21.4655 15.75 21.4797 15.75 21.4939C15.75 21.5082 15.75 21.5224 15.75 21.5367C15.75 21.5511 15.75 21.5654 15.75 21.5798C15.75 21.5942 15.75 21.6086 15.75 21.6231C15.75 21.6376 15.75 21.6521 15.75 21.6666C15.75 21.6812 15.75 21.6958 15.75 21.7104C15.75 21.725 15.75 21.7397 15.75 21.7544C15.75 21.7692 15.75 21.7839 15.75 21.7987C15.75 21.8135 15.75 21.8284 15.75 21.8432C15.75 21.8581 15.75 21.8731 15.75 21.888C15.75 21.903 15.75 21.918 15.75 21.933C15.75 21.9481 15.75 21.9632 15.75 21.9783C15.75 21.9935 15.75 22.0086 15.75 22.0238C15.75 22.0391 15.75 22.0543 15.75 22.0696C15.75 22.0849 15.75 22.1003 15.75 22.1157C15.75 22.131 15.75 22.1465 15.75 22.1619C15.75 22.1774 15.75 22.1929 15.75 22.2085C15.75 22.224 15.75 22.2396 15.75 22.2553C15.75 22.2709 15.75 22.2866 15.75 22.3023C15.75 22.318 15.75 22.3338 15.75 22.3496C15.75 22.3654 15.75 22.3813 15.75 22.3972C15.75 22.4131 15.75 22.429 15.75 22.445C15.75 22.461 15.75 22.477 15.75 22.4931C15.75 22.5091 15.75 22.5252 15.75 22.5414C15.75 22.5575 15.75 22.5737 15.75 22.59C15.75 22.6062 15.75 22.6225 15.75 22.6388C15.75 22.6552 15.75 22.6715 15.75 22.6879C15.75 22.7044 15.75 22.7208 15.75 22.7373C15.75 22.7538 15.75 22.7704 15.75 22.7869C15.75 22.8035 15.75 22.8202 15.75 22.8368C15.75 22.8535 15.75 22.8702 15.75 22.887C15.75 22.9038 15.75 22.9206 15.75 22.9374C15.75 22.9543 15.75 22.9712 15.75 22.9881C15.75 23.005 15.75 23.022 15.75 23.0391C15.75 23.0561 15.75 23.0732 15.75 23.0903C15.75 23.1074 15.75 23.1246 15.75 23.1418C15.75 23.159 15.75 23.1762 15.75 23.1935C15.75 23.2108 15.75 23.2282 15.75 23.2455C15.75 23.2629 15.75 23.2804 15.75 23.2978C15.75 23.3153 15.75 23.3328 15.75 23.3504C15.75 23.368 15.75 23.3856 15.75 23.4032C15.75 23.4209 15.75 23.4386 15.75 23.4563C15.75 23.4741 15.75 23.4919 15.75 23.5097C15.75 23.5275 15.75 23.5454 15.75 23.5633C15.75 23.5813 15.75 23.5992 15.75 23.6173C15.75 23.6353 15.75 23.6533 15.75 23.6715C15.75 23.6896 15.75 23.7077 15.75 23.7259C15.75 23.7441 15.75 23.7624 15.75 23.7807C15.75 23.799 15.75 23.8173 15.75 23.8357C15.75 23.8541 15.75 23.8725 15.75 23.891C15.75 23.9095 15.75 23.928 15.75 23.9465C15.75 23.9651 15.75 23.9837 15.75 24.0024C15.75 24.0211 15.75 24.0398 15.75 24.0585C15.75 24.0773 15.75 24.0961 15.75 24.1149C15.75 24.1338 15.75 24.1527 15.75 24.1716C15.75 24.1906 15.75 24.2095 15.75 24.2286C15.75 24.2476 15.75 24.2667 15.75 24.2858C15.75 24.305 15.75 24.3241 15.75 24.3434C15.75 24.3626 15.75 24.3819 15.75 24.4012C15.75 24.4205 15.75 24.4399 15.75 24.4593C15.75 24.4787 15.75 24.4981 15.75 24.5177C15.75 24.5372 15.75 24.5567 15.75 24.5763C15.75 24.5959 15.75 24.6156 15.75 24.6353C15.75 24.655 15.75 24.6747 15.75 24.6945C15.75 24.7143 15.75 24.7341 15.75 24.754C15.75 24.7739 15.75 24.7939 15.75 24.8138C15.75 24.8338 15.75 24.8539 15.75 24.8739C15.75 24.894 15.75 24.9142 15.75 24.9343C15.75 24.9545 15.75 24.9747 15.75 24.995C15.75 25.0153 15.75 25.0356 15.75 25.056C15.75 25.0763 15.75 25.0968 15.75 25.1172C15.75 25.1377 15.75 25.1582 15.75 25.1788C15.75 25.1994 15.75 25.22 15.75 25.2406C15.75 25.2613 15.75 25.282 15.75 25.3028C15.75 25.3235 15.75 25.3443 15.75 25.3652C15.75 25.3861 15.75 25.407 15.75 25.4279C15.75 25.4489 15.75 25.4699 15.75 25.4909C15.75 25.512 15.75 25.5331 15.75 25.5543C15.75 25.5754 15.75 25.5966 15.75 25.6179C15.75 25.6391 15.75 25.6604 15.75 25.6818C15.75 25.7031 15.75 25.7245 15.75 25.746C15.75 25.7674 15.75 25.7889 15.75 25.8105C15.75 25.8321 15.75 25.8537 15.75 25.8753C15.75 25.897 15.75 25.9187 15.75 25.9404C15.75 25.9622 15.75 25.984 15.75 26.0058C15.75 26.0277 15.75 26.0496 15.75 26.0715C15.75 26.0935 15.75 26.1155 15.75 26.1375C15.75 26.1596 15.75 26.1817 15.75 26.2039C15.75 26.226 15.75 26.2482 15.75 26.2705C15.75 26.2927 15.75 26.315 15.75 26.3374C15.75 26.3597 15.75 26.3822 15.75 26.4046C15.75 26.4271 15.75 26.4496 15.75 26.4721C15.75 26.4947 15.75 26.5173 15.75 26.54C15.75 26.5626 15.75 26.5854 15.75 26.6081C15.75 26.6309 15.75 26.6537 15.75 26.6766C15.75 26.6994 15.75 26.7224 15.75 26.7453C15.75 26.7683 15.75 26.7913 15.75 26.8144C15.75 26.8375 15.75 26.8606 15.75 26.8838C15.75 26.907 15.75 26.9302 15.75 26.9535C15.75 26.9768 15.75 27.0001 15.75 27.0235C15.75 27.0469 15.75 27.0703 15.75 27.0938C15.75 27.1173 15.75 27.1408 15.75 27.1644C15.75 27.188 15.75 27.2117 15.75 27.2354C15.75 27.2591 15.75 27.2828 15.75 27.3066C15.75 27.3304 15.75 27.3543 15.75 27.3782C15.75 27.4021 15.75 27.426 15.75 27.4501C15.75 27.4741 15.75 27.4981 15.75 27.5223C15.75 27.5464 15.75 27.5705 15.75 27.5948C15.75 27.619 15.75 27.6433 15.75 27.6676C15.75 27.6919 15.75 27.7163 15.75 27.7408C15.75 27.7652 15.75 27.7897 15.75 27.8142C15.75 27.8388 15.75 27.8634 15.75 27.888C15.75 27.9127 15.75 27.9374 15.75 27.9621C15.75 27.9869 15.75 28.0117 15.75 28.0365C15.75 28.0614 15.75 28.0863 15.75 28.1113C15.75 28.1363 15.75 28.1613 15.75 28.1864C15.75 28.2114 15.75 28.2366 15.75 28.2618C15.75 28.2869 15.75 28.3122 15.75 28.3375C15.75 28.3628 15.75 28.3881 15.75 28.4135C15.75 28.4389 15.75 28.4644 15.75 28.4899C15.75 28.5154 15.75 28.541 15.75 28.5666C15.75 28.5922 15.75 28.6179 15.75 28.6436C15.75 28.6693 15.75 28.6951 15.75 28.721C15.75 28.7468 15.75 28.7727 15.75 28.7986C15.75 28.8246 15.75 28.8506 15.75 28.8766C15.75 28.9027 15.75 28.9288 15.75 28.955C15.75 28.9811 15.75 29.0074 15.75 29.0336C15.75 29.0599 15.75 29.0862 15.75 29.1126C15.75 29.139 15.75 29.1655 15.75 29.1919C15.75 29.2184 15.75 29.245 15.75 29.2716C15.75 29.2982 15.75 29.3249 15.75 29.3516C15.75 29.3783 15.75 29.4051 15.75 29.4319C15.75 29.4587 15.75 29.4856 15.75 29.5126C15.75 29.5395 15.75 29.5665 15.75 29.5936C15.75 29.6206 15.75 29.6477 15.75 29.6749C15.75 29.7021 15.75 29.7293 15.75 29.7566C15.75 29.7838 15.75 29.8112 15.75 29.8386C15.75 29.8659 15.75 29.8934 15.75 29.9209C15.75 29.9484 15.75 29.9759 15.75 30.0036C15.75 30.0312 15.75 30.0588 15.75 30.0866C15.75 30.1143 15.75 30.1421 15.75 30.1699C15.75 30.1978 15.75 30.2257 15.75 30.2536C15.75 30.2816 15.75 30.3096 15.75 30.3377C15.75 30.3657 15.75 30.3939 15.75 30.422C15.75 30.4502 15.75 30.4785 15.75 30.5068C15.75 30.535 15.75 30.5634 15.75 30.5918C15.75 30.6202 15.75 30.6487 15.75 30.6772C15.75 30.7057 15.75 30.7343 15.75 30.763C15.75 30.7916 15.75 30.8203 15.75 30.8491C15.75 30.8778 15.75 30.9066 15.75 30.9355C15.75 30.9644 15.75 30.9933 15.75 31.0223C15.75 31.0513 15.75 31.0803 15.75 31.1094C15.75 31.1385 15.75 31.1677 15.75 31.1969C15.75 31.2261 15.75 31.2554 15.75 31.2847C15.75 31.3141 15.75 31.3435 15.75 31.3729C15.75 31.4024 15.75 31.4319 15.75 31.4614C15.75 31.491 15.75 31.5206 15.75 31.5503C15.75 31.58 15.75 31.6097 15.75 31.6395C15.75 31.6694 15.75 31.6992 15.75 31.7291C15.75 31.7591 15.75 31.789 15.75 31.8191C15.75 31.8491 15.75 31.8792 15.75 31.9094C15.75 31.9395 15.75 31.9697 15.75 32H16.5H17.25C17.25 31.9697 17.25 31.9395 17.25 31.9094C17.25 31.8792 17.25 31.8491 17.25 31.8191C17.25 31.789 17.25 31.7591 17.25 31.7291C17.25 31.6992 17.25 31.6694 17.25 31.6395C17.25 31.6097 17.25 31.58 17.25 31.5503C17.25 31.5206 17.25 31.491 17.25 31.4614C17.25 31.4319 17.25 31.4024 17.25 31.3729C17.25 31.3435 17.25 31.3141 17.25 31.2847C17.25 31.2554 17.25 31.2261 17.25 31.1969C17.25 31.1677 17.25 31.1385 17.25 31.1094C17.25 31.0803 17.25 31.0513 17.25 31.0223C17.25 30.9933 17.25 30.9644 17.25 30.9355C17.25 30.9066 17.25 30.8778 17.25 30.8491C17.25 30.8203 17.25 30.7916 17.25 30.763C17.25 30.7343 17.25 30.7057 17.25 30.6772C17.25 30.6487 17.25 30.6202 17.25 30.5918C17.25 30.5634 17.25 30.535 17.25 30.5068C17.25 30.4785 17.25 30.4502 17.25 30.422C17.25 30.3939 17.25 30.3657 17.25 30.3377C17.25 30.3096 17.25 30.2816 17.25 30.2536C17.25 30.2257 17.25 30.1978 17.25 30.1699C17.25 30.1421 17.25 30.1143 17.25 30.0866C17.25 30.0588 17.25 30.0312 17.25 30.0036C17.25 29.9759 17.25 29.9484 17.25 29.9209C17.25 29.8934 17.25 29.8659 17.25 29.8386C17.25 29.8112 17.25 29.7838 17.25 29.7566C17.25 29.7293 17.25 29.7021 17.25 29.6749C17.25 29.6477 17.25 29.6206 17.25 29.5936C17.25 29.5665 17.25 29.5395 17.25 29.5126C17.25 29.4856 17.25 29.4587 17.25 29.4319C17.25 29.4051 17.25 29.3783 17.25 29.3516C17.25 29.3249 17.25 29.2982 17.25 29.2716C17.25 29.245 17.25 29.2184 17.25 29.1919C17.25 29.1655 17.25 29.139 17.25 29.1126C17.25 29.0862 17.25 29.0599 17.25 29.0336C17.25 29.0074 17.25 28.9811 17.25 28.955C17.25 28.9288 17.25 28.9027 17.25 28.8766C17.25 28.8506 17.25 28.8246 17.25 28.7986C17.25 28.7727 17.25 28.7468 17.25 28.721C17.25 28.6951 17.25 28.6693 17.25 28.6436C17.25 28.6179 17.25 28.5922 17.25 28.5666C17.25 28.541 17.25 28.5154 17.25 28.4899C17.25 28.4644 17.25 28.4389 17.25 28.4135C17.25 28.3881 17.25 28.3628 17.25 28.3375C17.25 28.3122 17.25 28.2869 17.25 28.2618C17.25 28.2366 17.25 28.2114 17.25 28.1864C17.25 28.1613 17.25 28.1363 17.25 28.1113C17.25 28.0863 17.25 28.0614 17.25 28.0365C17.25 28.0117 17.25 27.9869 17.25 27.9621C17.25 27.9374 17.25 27.9127 17.25 27.888C17.25 27.8634 17.25 27.8388 17.25 27.8142C17.25 27.7897 17.25 27.7652 17.25 27.7408C17.25 27.7163 17.25 27.6919 17.25 27.6676C17.25 27.6433 17.25 27.619 17.25 27.5948C17.25 27.5705 17.25 27.5464 17.25 27.5223C17.25 27.4981 17.25 27.4741 17.25 27.4501C17.25 27.426 17.25 27.4021 17.25 27.3782C17.25 27.3543 17.25 27.3304 17.25 27.3066C17.25 27.2828 17.25 27.2591 17.25 27.2354C17.25 27.2117 17.25 27.188 17.25 27.1644C17.25 27.1408 17.25 27.1173 17.25 27.0938C17.25 27.0703 17.25 27.0469 17.25 27.0235C17.25 27.0001 17.25 26.9768 17.25 26.9535C17.25 26.9302 17.25 26.907 17.25 26.8838C17.25 26.8606 17.25 26.8375 17.25 26.8144C17.25 26.7913 17.25 26.7683 17.25 26.7453C17.25 26.7224 17.25 26.6994 17.25 26.6766C17.25 26.6537 17.25 26.6309 17.25 26.6081C17.25 26.5854 17.25 26.5626 17.25 26.54C17.25 26.5173 17.25 26.4947 17.25 26.4721C17.25 26.4496 17.25 26.4271 17.25 26.4046C17.25 26.3822 17.25 26.3597 17.25 26.3374C17.25 26.315 17.25 26.2927 17.25 26.2705C17.25 26.2482 17.25 26.226 17.25 26.2039C17.25 26.1817 17.25 26.1596 17.25 26.1375C17.25 26.1155 17.25 26.0935 17.25 26.0715C17.25 26.0496 17.25 26.0277 17.25 26.0058C17.25 25.984 17.25 25.9622 17.25 25.9404C17.25 25.9187 17.25 25.897 17.25 25.8753C17.25 25.8537 17.25 25.8321 17.25 25.8105C17.25 25.7889 17.25 25.7674 17.25 25.746C17.25 25.7245 17.25 25.7031 17.25 25.6818C17.25 25.6604 17.25 25.6391 17.25 25.6179C17.25 25.5966 17.25 25.5754 17.25 25.5543C17.25 25.5331 17.25 25.512 17.25 25.4909C17.25 25.4699 17.25 25.4489 17.25 25.4279C17.25 25.407 17.25 25.3861 17.25 25.3652C17.25 25.3443 17.25 25.3235 17.25 25.3028C17.25 25.282 17.25 25.2613 17.25 25.2406C17.25 25.22 17.25 25.1994 17.25 25.1788C17.25 25.1582 17.25 25.1377 17.25 25.1172C17.25 25.0968 17.25 25.0763 17.25 25.056C17.25 25.0356 17.25 25.0153 17.25 24.995C17.25 24.9747 17.25 24.9545 17.25 24.9343C17.25 24.9142 17.25 24.894 17.25 24.8739C17.25 24.8539 17.25 24.8338 17.25 24.8138C17.25 24.7939 17.25 24.7739 17.25 24.754C17.25 24.7341 17.25 24.7143 17.25 24.6945C17.25 24.6747 17.25 24.655 17.25 24.6353C17.25 24.6156 17.25 24.5959 17.25 24.5763C17.25 24.5567 17.25 24.5372 17.25 24.5177C17.25 24.4981 17.25 24.4787 17.25 24.4593C17.25 24.4399 17.25 24.4205 17.25 24.4012C17.25 24.3819 17.25 24.3626 17.25 24.3434C17.25 24.3241 17.25 24.305 17.25 24.2858C17.25 24.2667 17.25 24.2476 17.25 24.2286C17.25 24.2095 17.25 24.1906 17.25 24.1716C17.25 24.1527 17.25 24.1338 17.25 24.1149C17.25 24.0961 17.25 24.0773 17.25 24.0585C17.25 24.0398 17.25 24.0211 17.25 24.0024C17.25 23.9837 17.25 23.9651 17.25 23.9465C17.25 23.928 17.25 23.9095 17.25 23.891C17.25 23.8725 17.25 23.8541 17.25 23.8357C17.25 23.8173 17.25 23.799 17.25 23.7807C17.25 23.7624 17.25 23.7441 17.25 23.7259C17.25 23.7077 17.25 23.6896 17.25 23.6715C17.25 23.6533 17.25 23.6353 17.25 23.6173C17.25 23.5992 17.25 23.5813 17.25 23.5633C17.25 23.5454 17.25 23.5275 17.25 23.5097C17.25 23.4919 17.25 23.4741 17.25 23.4563C17.25 23.4386 17.25 23.4209 17.25 23.4032C17.25 23.3856 17.25 23.368 17.25 23.3504C17.25 23.3328 17.25 23.3153 17.25 23.2978C17.25 23.2804 17.25 23.2629 17.25 23.2455C17.25 23.2282 17.25 23.2108 17.25 23.1935C17.25 23.1762 17.25 23.159 17.25 23.1418C17.25 23.1246 17.25 23.1074 17.25 23.0903C17.25 23.0732 17.25 23.0561 17.25 23.0391C17.25 23.022 17.25 23.005 17.25 22.9881C17.25 22.9712 17.25 22.9543 17.25 22.9374C17.25 22.9206 17.25 22.9038 17.25 22.887C17.25 22.8702 17.25 22.8535 17.25 22.8368C17.25 22.8202 17.25 22.8035 17.25 22.7869C17.25 22.7704 17.25 22.7538 17.25 22.7373C17.25 22.7208 17.25 22.7044 17.25 22.6879C17.25 22.6715 17.25 22.6552 17.25 22.6388C17.25 22.6225 17.25 22.6062 17.25 22.59C17.25 22.5737 17.25 22.5575 17.25 22.5414C17.25 22.5252 17.25 22.5091 17.25 22.4931C17.25 22.477 17.25 22.461 17.25 22.445C17.25 22.429 17.25 22.4131 17.25 22.3972C17.25 22.3813 17.25 22.3654 17.25 22.3496C17.25 22.3338 17.25 22.318 17.25 22.3023C17.25 22.2866 17.25 22.2709 17.25 22.2553C17.25 22.2396 17.25 22.224 17.25 22.2085C17.25 22.1929 17.25 22.1774 17.25 22.1619C17.25 22.1465 17.25 22.131 17.25 22.1157C17.25 22.1003 17.25 22.0849 17.25 22.0696C17.25 22.0543 17.25 22.0391 17.25 22.0238C17.25 22.0086 17.25 21.9935 17.25 21.9783C17.25 21.9632 17.25 21.9481 17.25 21.933C17.25 21.918 17.25 21.903 17.25 21.888C17.25 21.8731 17.25 21.8581 17.25 21.8432C17.25 21.8284 17.25 21.8135 17.25 21.7987C17.25 21.7839 17.25 21.7692 17.25 21.7544C17.25 21.7397 17.25 21.725 17.25 21.7104C17.25 21.6958 17.25 21.6812 17.25 21.6666C17.25 21.6521 17.25 21.6376 17.25 21.6231C17.25 21.6086 17.25 21.5942 17.25 21.5798C17.25 21.5654 17.25 21.5511 17.25 21.5367C17.25 21.5224 17.25 21.5082 17.25 21.4939C17.25 21.4797 17.25 21.4655 17.25 21.4514C17.25 21.4372 17.25 21.4231 17.25 21.4091C17.25 21.395 17.25 21.381 17.25 21.367C17.25 21.353 17.25 21.339 17.25 21.3251C17.25 21.3112 17.25 21.2974 17.25 21.2835C17.25 21.2697 17.25 21.2559 17.25 21.2422C17.25 21.2284 17.25 21.2147 17.25 21.2011C17.25 21.1874 17.25 21.1738 17.25 21.1602C17.25 21.1466 17.25 21.1331 17.25 21.1196C17.25 21.106 17.25 21.0926 17.25 21.0792C17.25 21.0657 17.25 21.0523 17.25 21.039C17.25 21.0256 17.25 21.0123 17.25 20.9991C17.25 20.9858 17.25 20.9725 17.25 20.9594C17.25 20.9462 17.25 20.933 17.25 20.9199C17.25 20.9068 17.25 20.8937 17.25 20.8807C17.25 20.8676 17.25 20.8546 17.25 20.8417C17.25 20.8287 17.25 20.8158 17.25 20.8029C17.25 20.79 17.25 20.7772 17.25 20.7644C17.25 20.7516 17.25 20.7388 17.25 20.7261C17.25 20.7133 17.25 20.7006 17.25 20.688C17.25 20.6753 17.25 20.6627 17.25 20.6501C17.25 20.6376 17.25 20.625 17.25 20.6125C17.25 20.6 17.25 20.5876 17.25 20.5751C17.25 20.5627 17.25 20.5503 17.25 20.538C17.25 20.5256 17.25 20.5133 17.25 20.5011C17.25 20.4888 17.25 20.4765 17.25 20.4643C17.25 20.4522 17.25 20.44 17.25 20.4279C17.25 20.4157 17.25 20.4037 17.25 20.3916C17.25 20.3796 17.25 20.3676 17.25 20.3556C17.25 20.3436 17.25 20.3317 17.25 20.3198C17.25 20.3079 17.25 20.296 17.25 20.2842C17.25 20.2724 17.25 20.2606 17.25 20.2488C17.25 20.2371 17.25 20.2253 17.25 20.2137C17.25 20.202 17.25 20.1903 17.25 20.1787C17.25 20.1671 17.25 20.1556 17.25 20.144C17.25 20.1325 17.25 20.121 17.25 20.1096C17.25 20.0981 17.25 20.0867 17.25 20.0753C17.25 20.0639 17.25 20.0525 17.25 20.0412C17.25 20.0299 17.25 20.0186 17.25 20.0074C17.25 19.9962 17.25 19.985 17.25 19.9738C17.25 19.9626 17.25 19.9515 17.25 19.9404C17.25 19.9293 17.25 19.9182 17.25 19.9072C17.25 19.8962 17.25 19.8852 17.25 19.8742C17.25 19.8633 17.25 19.8523 17.25 19.8415C17.25 19.8306 17.25 19.8197 17.25 19.8089C17.25 19.7981 17.25 19.7873 17.25 19.7766C17.25 19.7658 17.25 19.7551 17.25 19.7445C17.25 19.7338 17.25 19.7232 17.25 19.7125C17.25 19.7019 17.25 19.6914 17.25 19.6808C17.25 19.6703 17.25 19.6598 17.25 19.6494C17.25 19.6389 17.25 19.6285 17.25 19.6181C17.25 19.6077 17.25 19.5973 17.25 19.587C17.25 19.5767 17.25 19.5664 17.25 19.5561C17.25 19.5459 17.25 19.5356 17.25 19.5255C17.25 19.5153 17.25 19.5051 17.25 19.495C17.25 19.4849 17.25 19.4748 17.25 19.4647C17.25 19.4547 17.25 19.4447 17.25 19.4347C17.25 19.4247 17.25 19.4148 17.25 19.4049C17.25 19.3949 17.25 19.3851 17.25 19.3752C17.25 19.3654 17.25 19.3556 17.25 19.3458C17.25 19.336 17.25 19.3263 17.25 19.3165C17.25 19.3068 17.25 19.2971 17.25 19.2875C17.25 19.2779 17.25 19.2682 17.25 19.2587C17.25 19.2491 17.25 19.2395 17.25 19.23C17.25 19.2205 17.25 19.211 17.25 19.2016C17.25 19.1921 17.25 19.1827 17.25 19.1734C17.25 19.164 17.25 19.1546 17.25 19.1453C17.25 19.136 17.25 19.1267 17.25 19.1175C17.25 19.1082 17.25 19.099 17.25 19.0898C17.25 19.0806 17.25 19.0715 17.25 19.0624C17.25 19.0532 17.25 19.0442 17.25 19.0351C17.25 19.0261 17.25 19.017 17.25 19.008C17.25 18.9991 17.25 18.9901 17.25 18.9812C17.25 18.9722 17.25 18.9634 17.25 18.9545C17.25 18.9456 17.25 18.9368 17.25 18.928C17.25 18.9192 17.25 18.9104 17.25 18.9017C17.25 18.893 17.25 18.8843 17.25 18.8756C17.25 18.8669 17.25 18.8583 17.25 18.8497C17.25 18.8411 17.25 18.8325 17.25 18.824C17.25 18.8154 17.25 18.8069 17.25 18.7984C17.25 18.7899 17.25 18.7815 17.25 18.7731C17.25 18.7647 17.25 18.7563 17.25 18.7479C17.25 18.7396 17.25 18.7312 17.25 18.7229C17.25 18.7146 17.25 18.7064 17.25 18.6981C17.25 18.6899 17.25 18.6817 17.25 18.6735C17.25 18.6654 17.25 18.6572 17.25 18.6491C17.25 18.641 17.25 18.6329 17.25 18.6249C17.25 18.6168 17.25 18.6088 17.25 18.6008C17.25 18.5928 17.25 18.5849 17.25 18.5769C17.25 18.569 17.25 18.5611 17.25 18.5533C17.25 18.5454 17.25 18.5376 17.25 18.5297C17.25 18.5219 17.25 18.5142 17.25 18.5064C17.25 18.4987 17.25 18.491 17.25 18.4833C17.25 18.4756 17.25 18.4679 17.25 18.4603C17.25 18.4527 17.25 18.4451 17.25 18.4375C17.25 18.4299 17.25 18.4224 17.25 18.4149C17.25 18.4074 17.25 18.3999 17.25 18.3924C17.25 18.385 17.25 18.3776 17.25 18.3702C17.25 18.3628 17.25 18.3554 17.25 18.3481C17.25 18.3408 17.25 18.3335 17.25 18.3262C17.25 18.3189 17.25 18.3117 17.25 18.3044C17.25 18.2972 17.25 18.29 17.25 18.2829C17.25 18.2757 17.25 18.2686 17.25 18.2615C17.25 18.2544 17.25 18.2473 17.25 18.2403C17.25 18.2332 17.25 18.2262 17.25 18.2192C17.25 18.2122 17.25 18.2053 17.25 18.1983C17.25 18.1914 17.25 18.1845 17.25 18.1776C17.25 18.1707 17.25 18.1639 17.25 18.1571C17.25 18.1502 17.25 18.1435 17.25 18.1367C17.25 18.1299 17.25 18.1232 17.25 18.1165C17.25 18.1098 17.25 18.1031 17.25 18.0965C17.25 18.0898 17.25 18.0832 17.25 18.0766C17.25 18.07 17.25 18.0634 17.25 18.0569C17.25 18.0503 17.25 18.0438 17.25 18.0373C17.25 18.0308 17.25 18.0244 17.25 18.018C17.25 18.0115 17.25 18.0051 17.25 17.9987C17.25 17.9924 17.25 17.986 17.25 17.9797C17.25 17.9734 17.25 17.9671 17.25 17.9608C17.25 17.9545 17.25 17.9483 17.25 17.9421C17.25 17.9359 17.25 17.9297 17.25 17.9235C17.25 17.9173 17.25 17.9112 17.25 17.9051C17.25 17.899 17.25 17.8929 17.25 17.8868C17.25 17.8808 17.25 17.8748 17.25 17.8688C17.25 17.8628 17.25 17.8568 17.25 17.8508C17.25 17.8449 17.25 17.839 17.25 17.8331C17.25 17.8272 17.25 17.8213 17.25 17.8154C17.25 17.8096 17.25 17.8038 17.25 17.798C17.25 17.7922 17.25 17.7864 17.25 17.7807C17.25 17.7749 17.25 17.7692 17.25 17.7635C17.25 17.7578 17.25 17.7522 17.25 17.7465C17.25 17.7409 17.25 17.7353 17.25 17.7297C17.25 17.7241 17.25 17.7185 17.25 17.713C17.25 17.7074 17.25 17.7019 17.25 17.6964C17.25 17.691 17.25 17.6855 17.25 17.6801C17.25 17.6746 17.25 17.6692 17.25 17.6638C17.25 17.6584 17.25 17.6531 17.25 17.6477C17.25 17.6424 17.25 17.6371 17.25 17.6318C17.25 17.6265 17.25 17.6212 17.25 17.616C17.25 17.6108 17.25 17.6055 17.25 17.6003C17.25 17.5952 17.25 17.59 17.25 17.5848C17.25 17.5797 17.25 17.5746 17.25 17.5695C17.25 17.5644 17.25 17.5593 17.25 17.5543C17.25 17.5492 17.25 17.5442 17.25 17.5392C17.25 17.5342 17.25 17.5293 17.25 17.5243C17.25 17.5194 17.25 17.5144 17.25 17.5095C17.25 17.5046 17.25 17.4998 17.25 17.4949C17.25 17.4901 17.25 17.4852 17.25 17.4804C17.25 17.4756 17.25 17.4708 17.25 17.4661C17.25 17.4613 17.25 17.4566 17.25 17.4519C17.25 17.4472 17.25 17.4425 17.25 17.4378C17.25 17.4331 17.25 17.4285 17.25 17.4239C17.25 17.4193 17.25 17.4147 17.25 17.4101C17.25 17.4055 17.25 17.401 17.25 17.3964C17.25 17.3919 17.25 17.3874 17.25 17.3829C17.25 17.3784 17.25 17.374 17.25 17.3695C17.25 17.3651 17.25 17.3607 17.25 17.3563C17.25 17.3519 17.25 17.3475 17.25 17.3432C17.25 17.3388 17.25 17.3345 17.25 17.3302C17.25 17.3259 17.25 17.3216 17.25 17.3174C17.25 17.3131 17.25 17.3089 17.25 17.3047C17.25 17.3005 17.25 17.2963 17.25 17.2921C17.25 17.2879 17.25 17.2838 17.25 17.2797C17.25 17.2755 17.25 17.2714 17.25 17.2674C17.25 17.2633 17.25 17.2592 17.25 17.2552C17.25 17.2511 17.25 17.2471 17.25 17.2431C17.25 17.2391 17.25 17.2352 17.25 17.2312C17.25 17.2272 17.25 17.2233 17.25 17.2194C17.25 17.2155 17.25 17.2116 17.25 17.2077C17.25 17.2039 17.25 17.2 17.25 17.1962C17.25 17.1924 17.25 17.1886 17.25 17.1848C17.25 17.181 17.25 17.1772 17.25 17.1735C17.25 17.1698 17.25 17.166 17.25 17.1623C17.25 17.1586 17.25 17.155 17.25 17.1513C17.25 17.1476 17.25 17.144 17.25 17.1404C17.25 17.1368 17.25 17.1332 17.25 17.1296C17.25 17.126 17.25 17.1225 17.25 17.1189C17.25 17.1154 17.25 17.1119 17.25 17.1084C17.25 17.1049 17.25 17.1014 17.25 17.0979C17.25 17.0945 17.25 17.0911 17.25 17.0876C17.25 17.0842 17.25 17.0808 17.25 17.0774C17.25 17.0741 17.25 17.0707 17.25 17.0674C17.25 17.064 17.25 17.0607 17.25 17.0574C17.25 17.0541 17.25 17.0508 17.25 17.0476C17.25 17.0443 17.25 17.0411 17.25 17.0379C17.25 17.0346 17.25 17.0314 17.25 17.0283C17.25 17.0251 17.25 17.0219 17.25 17.0188C17.25 17.0156 17.25 17.0125 17.25 17.0094C17.25 17.0063 17.25 17.0032 17.25 17.0001C17.25 16.9971 17.25 16.994 17.25 16.991C17.25 16.988 17.25 16.9849 17.25 16.9819C17.25 16.979 17.25 16.976 17.25 16.973C17.25 16.9701 17.25 16.9671 17.25 16.9642C17.25 16.9613 17.25 16.9584 17.25 16.9555C17.25 16.9526 17.25 16.9498 17.25 16.9469C17.25 16.9441 17.25 16.9412 17.25 16.9384C17.25 16.9356 17.25 16.9328 17.25 16.93C17.25 16.9273 17.25 16.9245 17.25 16.9218C17.25 16.919 17.25 16.9163 17.25 16.9136C17.25 16.9109 17.25 16.9082 17.25 16.9056C17.25 16.9029 17.25 16.9002 17.25 16.8976C17.25 16.895 17.25 16.8924 17.25 16.8898C17.25 16.8872 17.25 16.8846 17.25 16.882C17.25 16.8795 17.25 16.8769 17.25 16.8744C17.25 16.8718 17.25 16.8693 17.25 16.8668C17.25 16.8643 17.25 16.8619 17.25 16.8594C17.25 16.8569 17.25 16.8545 17.25 16.8521C17.25 16.8496 17.25 16.8472 17.25 16.8448C17.25 16.8424 17.25 16.8401 17.25 16.8377C17.25 16.8353 17.25 16.833 17.25 16.8307C17.25 16.8283 17.25 16.826 17.25 16.8237C17.25 16.8214 17.25 16.8192 17.25 16.8169C17.25 16.8146 17.25 16.8124 17.25 16.8101C17.25 16.8079 17.25 16.8057 17.25 16.8035C17.25 16.8013 17.25 16.7991 17.25 16.797C17.25 16.7948 17.25 16.7926 17.25 16.7905C17.25 16.7884 17.25 16.7862 17.25 16.7841C17.25 16.782 17.25 16.7799 17.25 16.7779C17.25 16.7758 17.25 16.7737 17.25 16.7717C17.25 16.7696 17.25 16.7676 17.25 16.7656C17.25 16.7636 17.25 16.7616 17.25 16.7596C17.25 16.7576 17.25 16.7557 17.25 16.7537C17.25 16.7518 17.25 16.7498 17.25 16.7479C17.25 16.746 17.25 16.7441 17.25 16.7422C17.25 16.7403 17.25 16.7384 17.25 16.7366C17.25 16.7347 17.25 16.7328 17.25 16.731C17.25 16.7292 17.25 16.7274 17.25 16.7256C17.25 16.7238 17.25 16.722 17.25 16.7202C17.25 16.7184 17.25 16.7166 17.25 16.7149C17.25 16.7132 17.25 16.7114 17.25 16.7097C17.25 16.708 17.25 16.7063 17.25 16.7046C17.25 16.7029 17.25 16.7012 17.25 16.6996C17.25 16.6979 17.25 16.6962 17.25 16.6946C17.25 16.693 17.25 16.6914 17.25 16.6897C17.25 16.6881 17.25 16.6865 17.25 16.685C17.25 16.6834 17.25 16.6818 17.25 16.6803C17.25 16.6787 17.25 16.6772 17.25 16.6756C17.25 16.6741 17.25 16.6726 17.25 16.6711C17.25 16.6696 17.25 16.6681 17.25 16.6666C17.25 16.6652 17.25 16.6637 17.25 16.6622C17.25 16.6608 17.25 16.6594 17.25 16.6579C17.25 16.6565 17.25 16.6551 17.25 16.6537C17.25 16.6523 17.25 16.6509 17.25 16.6496C17.25 16.6482 17.25 16.6468 17.25 16.6455C17.25 16.6441 17.25 16.6428 17.25 16.6415C17.25 16.6402 17.25 16.6388 17.25 16.6375C17.25 16.6362 17.25 16.635 17.25 16.6337C17.25 16.6324 17.25 16.6312 17.25 16.6299C17.25 16.6287 17.25 16.6274 17.25 16.6262C17.25 16.625 17.25 16.6238 17.25 16.6226C17.25 16.6214 17.25 16.6202 17.25 16.619C17.25 16.6178 17.25 16.6166 17.25 16.6155C17.25 16.6143 17.25 16.6132 17.25 16.6121C17.25 16.6109 17.25 16.6098 17.25 16.6087C17.25 16.6076 17.25 16.6065 17.25 16.6054C17.25 16.6043 17.25 16.6032 17.25 16.6022C17.25 16.6011 17.25 16.6001 17.25 16.599C17.25 16.598 17.25 16.5969 17.25 16.5959C17.25 16.5949 17.25 16.5939 17.25 16.5929C17.25 16.5919 17.25 16.5909 17.25 16.5899C17.25 16.5889 17.25 16.588 17.25 16.587C17.25 16.5861 17.25 16.5851 17.25 16.5842C17.25 16.5833 17.25 16.5823 17.25 16.5814C17.25 16.5805 17.25 16.5796 17.25 16.5787C17.25 16.5778 17.25 16.5769 17.25 16.576C17.25 16.5752 17.25 16.5743 17.25 16.5735C17.25 16.5726 17.25 16.5718 17.25 16.5709C17.25 16.5701 17.25 16.5693 17.25 16.5684C17.25 16.5676 17.25 16.5668 17.25 16.566C17.25 16.5652 17.25 16.5645 17.25 16.5637C17.25 16.5629 17.25 16.5621 17.25 16.5614C17.25 16.5606 17.25 16.5599 17.25 16.5591C17.25 16.5584 17.25 16.5577 17.25 16.5569C17.25 16.5562 17.25 16.5555 17.25 16.5548C17.25 16.5541 17.25 16.5534 17.25 16.5527C17.25 16.552 17.25 16.5514 17.25 16.5507C17.25 16.55 17.25 16.5494 17.25 16.5487C17.25 16.5481 17.25 16.5474 17.25 16.5468C17.25 16.5462 17.25 16.5455 17.25 16.5449C17.25 16.5443 17.25 16.5437 17.25 16.5431C17.25 16.5425 17.25 16.5419 17.25 16.5413C17.25 16.5408 17.25 16.5402 17.25 16.5396C17.25 16.539 17.25 16.5385 17.25 16.5379C17.25 16.5374 17.25 16.5368 17.25 16.5363C17.25 16.5358 17.25 16.5353 17.25 16.5347C17.25 16.5342 17.25 16.5337 17.25 16.5332C17.25 16.5327 17.25 16.5322 17.25 16.5317C17.25 16.5312 17.25 16.5307 17.25 16.5303C17.25 16.5298 17.25 16.5293 17.25 16.5289C17.25 16.5284 17.25 16.528 17.25 16.5275C17.25 16.5271 17.25 16.5266 17.25 16.5262C17.25 16.5258 17.25 16.5254 17.25 16.5249C17.25 16.5245 17.25 16.5241 17.25 16.5237C17.25 16.5233 17.25 16.5229 17.25 16.5225C17.25 16.5221 17.25 16.5218 17.25 16.5214C17.25 16.521 17.25 16.5206 17.25 16.5203C17.25 16.5199 17.25 16.5196 17.25 16.5192C17.25 16.5189 17.25 16.5185 17.25 16.5182C17.25 16.5178 17.25 16.5175 17.25 16.5172C17.25 16.5169 17.25 16.5166 17.25 16.5162C17.25 16.5159 17.25 16.5156 17.25 16.5153C17.25 16.515 17.25 16.5147 17.25 16.5144C17.25 16.5141 17.25 16.5139 17.25 16.5136C17.25 16.5133 17.25 16.513 17.25 16.5128C17.25 16.5125 17.25 16.5122 17.25 16.512C17.25 16.5117 17.25 16.5115 17.25 16.5112C17.25 16.511 17.25 16.5108 17.25 16.5105C17.25 16.5103 17.25 16.5101 17.25 16.5098C17.25 16.5096 17.25 16.5094 17.25 16.5092C17.25 16.509 17.25 16.5088 17.25 16.5086C17.25 16.5084 17.25 16.5082 17.25 16.508C17.25 16.5078 17.25 16.5076 17.25 16.5074C17.25 16.5072 17.25 16.507 17.25 16.5069C17.25 16.5067 17.25 16.5065 17.25 16.5063C17.25 16.5062 17.25 16.506 17.25 16.5058C17.25 16.5057 17.25 16.5055 17.25 16.5054C17.25 16.5052 17.25 16.5051 17.25 16.505C17.25 16.5048 17.25 16.5047 17.25 16.5045C17.25 16.5044 17.25 16.5043 17.25 16.5042C17.25 16.504 17.25 16.5039 17.25 16.5038C17.25 16.5037 17.25 16.5036 17.25 16.5034C17.25 16.5033 17.25 16.5032 17.25 16.5031C17.25 16.503 17.25 16.5029 17.25 16.5028C17.25 16.5027 17.25 16.5026 17.25 16.5025C17.25 16.5024 17.25 16.5024 17.25 16.5023C17.25 16.5022 17.25 16.5021 17.25 16.502C17.25 16.502 17.25 16.5019 17.25 16.5018C17.25 16.5017 17.25 16.5017 17.25 16.5016C17.25 16.5015 17.25 16.5015 17.25 16.5014C17.25 16.5013 17.25 16.5013 17.25 16.5012C17.25 16.5012 17.25 16.5011 17.25 16.5011C17.25 16.501 17.25 16.501 17.25 16.5009C17.25 16.5009 17.25 16.5008 17.25 16.5008C17.25 16.5008 17.25 16.5007 17.25 16.5007C17.25 16.5006 17.25 16.5006 17.25 16.5006C17.25 16.5005 17.25 16.5005 17.25 16.5005C17.25 16.5004 17.25 16.5004 17.25 16.5004C17.25 16.5004 17.25 16.5003 17.25 16.5003C17.25 16.5003 17.25 16.5003 17.25 16.5003C17.25 16.5002 17.25 16.5002 17.25 16.5002C17.25 16.5002 17.25 16.5002 17.25 16.5002C17.25 16.5001 17.25 16.5001 17.25 16.5001C17.25 16.5001 17.25 16.5001 17.25 16.5001C17.25 16.5001 17.25 16.5001 17.25 16.5001C17.25 16.5001 17.25 16.5 17.25 16.5C17.25 16.5 17.25 16.5 17.25 16.5C17.25 16.5 17.25 16.5 17.25 16.5C17.25 16.5 17.25 16.5 17.25 16.5C17.25 16.5 17.25 16.5 17.25 16.5C17.25 16.5 17.25 16.5 17.25 16.5C17.25 16.5 17.25 16.5 17.25 16.5C17.25 16.5 16.5 16.5 16.5 16.5ZM16.5 16.5H17.25V1H16.5H15.75V16.5H16.5Z" fill="white"/>
</svg>
