<svg width="48" height="33" viewBox="0 0 48 33" fill="none" xmlns="http://www.w3.org/2000/svg">
<path d="M16.3334 32C19.3242 32.0016 22.25 31.1173 24.7488 29.4562C27.2477 27.7952 29.2101 25.4303 30.3934 22.6541C36.4961 22.2052 40.7281 18.5167 42.0627 12.6275C42.0627 12.6275 37.4639 13.7607 33.568 12.6275C41.2727 11.1186 45.712 6.73824 47 1.00398H39.3002M39.6696 1.00211C34.9213 0.970121 29.0333 1.25808 26.3742 4.9696M16.3333 1.00398C13.3007 1.00398 10.3361 1.91292 7.81458 3.61586C5.29303 5.31881 3.32772 7.73926 2.16718 10.5712C1.00664 13.403 0.702993 16.5192 1.29463 19.5255C1.88627 22.5318 3.34662 25.2933 5.49102 27.4607C7.63542 29.6282 10.3676 31.1042 13.3419 31.7022C16.3163 32.3002 19.3993 31.9933 22.2011 30.8203C25.0029 29.6473 27.3976 27.6609 29.0825 25.1122C30.7673 22.5636 31.6666 19.5672 31.6666 16.502C31.6666 12.3917 30.0511 8.44968 27.1756 5.54324C24.3 2.6368 20.3999 1.00398 16.3333 1.00398ZM16.3333 21.1514C15.4235 21.1514 14.5341 20.8787 13.7777 20.3678C13.0212 19.8569 12.4316 19.1308 12.0835 18.2812C11.7353 17.4317 11.6442 16.4968 11.8217 15.5949C11.9992 14.693 12.4373 13.8646 13.0806 13.2144C13.7239 12.5641 14.5436 12.1213 15.4359 11.9419C16.3282 11.7625 17.2531 11.8546 18.0936 12.2065C18.9342 12.5584 19.6526 13.1543 20.158 13.9189C20.6635 14.6835 20.9333 15.5824 20.9333 16.502C20.9341 17.1128 20.8157 17.7177 20.5848 18.2822C20.3539 18.8467 20.0151 19.3595 19.5878 19.7914C19.1605 20.2233 18.6531 20.5658 18.0946 20.7991C17.5361 21.0325 16.9376 21.1522 16.3333 21.1514Z" stroke="white"/>
</svg>
