<svg width="54" height="33" viewBox="0 0 54 33" fill="none" xmlns="http://www.w3.org/2000/svg">
<path d="M15.1818 4.1C15.1818 2.38797 13.5945 1 11.6364 1C9.67827 1 8.09091 2.38797 8.09091 4.1V28.9C8.09091 30.612 9.67827 32 11.6364 32C13.5945 32 15.1818 30.612 15.1818 28.9V4.1Z" stroke="white" stroke-linejoin="round"/>
<path d="M45.9091 4.1C45.9091 2.38797 44.3218 1 42.3636 1C40.4055 1 38.8182 2.38797 38.8182 4.1V28.9C38.8182 30.612 40.4055 32 42.3636 32C44.3218 32 45.9091 30.612 45.9091 28.9V4.1Z" stroke="white" stroke-linejoin="round"/>
<path d="M8.09091 10.1411C8.09091 8.38503 6.50355 6.96154 4.54545 6.96154C2.58736 6.96154 1 8.38503 1 10.1411V22.8589C1 24.615 2.58736 26.0385 4.54545 26.0385C6.50355 26.0385 8.09091 24.615 8.09091 22.8589V10.1411Z" stroke="white" stroke-linejoin="round"/>
<path d="M53 10.1411C53 8.38503 51.4127 6.96154 49.4545 6.96154C47.4964 6.96154 45.9091 8.38503 45.9091 10.1411V22.8589C45.9091 24.615 47.4964 26.0385 49.4545 26.0385C51.4127 26.0385 53 24.615 53 22.8589V10.1411Z" stroke="white" stroke-linejoin="round"/>
<path d="M38.8182 20.0769H15.1818V12.9231H38.8182V20.0769Z" stroke="white" stroke-linejoin="round"/>
</svg>
