<svg width="80" height="72" viewBox="0 0 80 72" fill="none" xmlns="http://www.w3.org/2000/svg">
<path d="M76.46 8.45964C68.3259 20.0721 61.075 30.9775 54.2866 43.4847C49.8968 51.5736 45.9412 60.6529 41.1947 68.4326C40.8061 69.071 39.9667 70.3707 39.5252 70.9017C39.309 71.1627 38.7249 71.801 38.442 71.8831C37.8487 72.0569 34.643 72.0115 33.9094 71.9106C27.9741 71.0984 13.9807 56.6164 9.86204 51.841C7.14385 48.6904 2.43187 42.9928 0.847406 39.3683C-0.346108 36.6408 -0.803735 31.5313 3.09646 30.9936C9.41131 30.1218 18.5432 35.1741 23.7381 38.5606C26.6747 40.4758 29.2688 42.8509 32.2537 44.686C34.7879 41.4391 36.8254 37.7986 39.194 34.419C45.3594 25.6255 52.4216 16.8 60.4498 9.57628C63.6854 6.66115 71.4329 0.345774 75.5078 0.0711929C77.6577 -0.0729617 80.392 -0.285762 79.9532 2.65454C79.7206 4.19906 77.4302 7.07756 76.4623 8.45964H76.46ZM72.41 7.40477C72.1872 7.17368 69.9749 9.07288 69.6484 9.34515C58.1937 18.9052 47.2748 34.165 39.5712 46.9193C38.8652 48.0864 35.8756 54.0973 35.1535 54.4224C33.737 55.0585 32.0858 53.7244 30.9659 52.9393C28.1925 50.9967 25.5502 48.6285 22.7194 46.6652C20.0886 44.8393 14.2797 40.6566 11.4787 39.7733C11.1797 39.6795 10.5565 39.5216 10.322 39.7802C15.5881 46.4501 21.5718 52.9829 28.1488 58.4356C28.5558 58.7745 28.8732 59.0144 29.2894 59.3395C30.3473 60.1655 34.1371 63.4559 35.3789 62.9001C35.7675 62.7258 39.6563 57.1084 40.2219 56.2619C48.1835 44.3588 55.0524 31.8288 63.3405 20.0012C66.0471 16.1387 69.5125 12.1642 72.0443 8.29716C72.2283 8.01801 72.4743 7.77775 72.4077 7.40252L72.41 7.40477Z" fill="#36CCFE"/>
</svg>
