<svg width="23" height="33" viewBox="0 0 23 33" fill="none" xmlns="http://www.w3.org/2000/svg">
<rect x="1" y="1" width="20.9459" height="31" rx="3" stroke="white" stroke-linecap="round" stroke-linejoin="round"/>
<path d="M11.4665 27.6832C11.2334 27.6832 11.0142 27.5936 10.8494 27.431C10.6845 27.2683 10.5938 27.0521 10.5938 26.8221C10.5938 26.6512 10.6446 26.4858 10.7408 26.3437C10.8371 26.2015 10.9725 26.0919 11.1325 26.0265C11.239 25.983 11.3513 25.9609 11.4665 25.9609C11.5236 25.9609 11.5808 25.9665 11.6368 25.9775C11.8066 26.0108 11.9612 26.0923 12.0836 26.2132C12.2061 26.334 12.2887 26.4865 12.3225 26.6541C12.3563 26.8217 12.3391 26.9937 12.2728 27.1516C12.2065 27.3095 12.0954 27.4431 11.9514 27.538C11.8073 27.633 11.6397 27.6832 11.4665 27.6832Z" fill="white"/>
<path d="M11.4721 28.5538C11.0091 28.5538 10.5652 28.3724 10.2378 28.0494C9.91047 27.7264 9.72656 27.2884 9.72656 26.8316C9.72656 26.491 9.82894 26.158 10.0207 25.8748C10.2125 25.5916 10.4852 25.3708 10.8041 25.2405C11.123 25.1101 11.474 25.076 11.8126 25.1425C12.1512 25.2089 12.4622 25.373 12.7063 25.6138C12.9504 25.8547 13.1167 26.1615 13.184 26.4956C13.2514 26.8297 13.2168 27.176 13.0847 27.4907C12.9526 27.8054 12.7288 28.0743 12.4418 28.2636C12.1548 28.4528 11.8173 28.5538 11.4721 28.5538Z" fill="white"/>
</svg>
