<svg width="33" height="33" viewBox="0 0 33 33" fill="none" xmlns="http://www.w3.org/2000/svg">
<path fill-rule="evenodd" clip-rule="evenodd" d="M28.8997 1.00036H4.09996C3.29011 0.987933 2.50849 1.29778 1.92712 1.86171C1.34574 2.42565 1.01224 3.19747 1 4.00733V22.0358C1.01224 22.8457 1.34574 23.6175 1.92712 24.1814C2.50849 24.7454 3.29011 25.0552 4.09996 25.0428H12.6692C13.152 25.0403 13.629 25.1479 14.0641 25.3572L26.5769 32L26.464 22.0358H29.6304C30.916 22.0556 31.9754 21.0318 31.9996 19.7463V4.00733C31.9874 3.19747 31.6539 2.42565 31.0725 1.86171C30.4911 1.29778 29.7095 0.987933 28.8997 1.00036Z" stroke="black" stroke-width="1.5" stroke-linecap="round" stroke-linejoin="round"/>
<path d="M7.64278 9.10758C7.22857 9.10758 6.89278 9.44337 6.89278 9.85758C6.89278 10.2718 7.22857 10.6076 7.64278 10.6076V9.10758ZM25.3569 10.6076C25.7711 10.6076 26.1069 10.2718 26.1069 9.85758C26.1069 9.44337 25.7711 9.10758 25.3569 9.10758V10.6076ZM7.64278 15.7504C7.22857 15.7504 6.89278 16.0861 6.89278 16.5004C6.89278 16.9146 7.22857 17.2504 7.64278 17.2504V15.7504ZM20.9283 17.2504C21.3426 17.2504 21.6783 16.9146 21.6783 16.5004C21.6783 16.0861 21.3426 15.7504 20.9283 15.7504V17.2504ZM7.64278 9.85758V10.6076H25.3569V9.85758V9.10758H7.64278V9.85758ZM7.64278 16.5004V17.2504H20.9283V16.5004V15.7504H7.64278V16.5004Z" fill="black"/>
</svg>
