<svg width="36" height="33" viewBox="0 0 36 33" fill="none" xmlns="http://www.w3.org/2000/svg">
<path d="M17.5 11.3333C17.5 11.6095 17.7239 11.8333 18 11.8333C18.2761 11.8333 18.5 11.6095 18.5 11.3333H17.5ZM1.5 18.2222C1.5 17.9461 1.27614 17.7222 1 17.7222C0.723858 17.7222 0.5 17.9461 0.5 18.2222H1.5ZM0.5 25.1111C0.5 25.3873 0.723858 25.6111 1 25.6111C1.27614 25.6111 1.5 25.3873 1.5 25.1111H0.5ZM35.5 18.2222C35.5 17.9461 35.2761 17.7222 35 17.7222C34.7239 17.7222 34.5 17.9461 34.5 18.2222H35.5ZM34.5 25.1111C34.5 25.3873 34.7239 25.6111 35 25.6111C35.2761 25.6111 35.5 25.3873 35.5 25.1111H34.5ZM6.95 11.3333V11.8333H29.05V11.3333V10.8333H6.95V11.3333ZM29.05 11.3333V11.8333C29.7066 11.8333 30.25 12.3744 30.25 13.0556H30.75H31.25C31.25 11.8344 30.2711 10.8333 29.05 10.8333V11.3333ZM30.75 13.0556H30.25V30.2778H30.75H31.25V13.0556H30.75ZM30.75 30.2778H30.25C30.25 30.9589 29.7066 31.5 29.05 31.5V32V32.5C30.2711 32.5 31.25 31.4989 31.25 30.2778H30.75ZM29.05 32V31.5H6.95V32V32.5H29.05V32ZM6.95 32V31.5C6.29336 31.5 5.75 30.9589 5.75 30.2778H5.25H4.75C4.75 31.4989 5.72887 32.5 6.95 32.5V32ZM5.25 30.2778H5.75V13.0556H5.25H4.75V30.2778H5.25ZM5.25 13.0556H5.75C5.75 12.3744 6.29336 11.8333 6.95 11.8333V11.3333V10.8333C5.72887 10.8333 4.75 11.8344 4.75 13.0556H5.25ZM13.75 18.2222H13.25C13.25 18.9034 12.7066 19.4444 12.05 19.4444V19.9444V20.4444C13.2711 20.4444 14.25 19.4434 14.25 18.2222H13.75ZM12.05 19.9444V19.4444C11.3934 19.4444 10.85 18.9034 10.85 18.2222H10.35H9.85C9.85 19.4434 10.8289 20.4444 12.05 20.4444V19.9444ZM10.35 18.2222H10.85C10.85 17.5411 11.3934 17 12.05 17V16.5V16C10.8289 16 9.85 17.0011 9.85 18.2222H10.35ZM12.05 16.5V17C12.7066 17 13.25 17.5411 13.25 18.2222H13.75H14.25C14.25 17.0011 13.2711 16 12.05 16V16.5ZM25.65 18.2222H25.15C25.15 18.9034 24.6066 19.4444 23.95 19.4444V19.9444V20.4444C25.1711 20.4444 26.15 19.4434 26.15 18.2222H25.65ZM23.95 19.9444V19.4444C23.2934 19.4444 22.75 18.9034 22.75 18.2222H22.25H21.75C21.75 19.4434 22.7289 20.4444 23.95 20.4444V19.9444ZM22.25 18.2222H22.75C22.75 17.5411 23.2934 17 23.95 17V16.5V16C22.7289 16 21.75 17.0011 21.75 18.2222H22.25ZM23.95 16.5V17C24.6066 17 25.15 17.5411 25.15 18.2222H25.65H26.15C26.15 17.0011 25.1711 16 23.95 16V16.5ZM14.6 23.3889V22.8889C13.3788 22.8889 12.4 23.8899 12.4 25.1111H12.9H13.4C13.4 24.4299 13.9433 23.8889 14.6 23.8889V23.3889ZM12.9 25.1111H12.4C12.4 26.3323 13.3788 27.3333 14.6 27.3333V26.8333V26.3333C13.9433 26.3333 13.4 25.7923 13.4 25.1111H12.9ZM14.6 26.8333H15.1V23.3889H14.6H14.1V26.8333H14.6ZM21.4 26.8333V27.3333C22.6212 27.3333 23.6 26.3323 23.6 25.1111H23.1H22.6C22.6 25.7923 22.0567 26.3333 21.4 26.3333V26.8333ZM23.1 25.1111H23.6C23.6 23.8899 22.6212 22.8889 21.4 22.8889V23.3889V23.8889C22.0567 23.8889 22.6 24.4299 22.6 25.1111H23.1ZM21.4 23.3889H20.9V26.8333H21.4H21.9V23.3889H21.4ZM14.6 26.8333V27.3333H21.4V26.8333V26.3333H14.6V26.8333ZM21.4 23.3889V22.8889H14.6V23.3889V23.8889H21.4V23.3889ZM18 4.44444H17.5V11.3333H18H18.5V4.44444H18ZM1 18.2222H0.5V25.1111H1H1.5V18.2222H1ZM35 18.2222H34.5V25.1111H35H35.5V18.2222H35ZM19.7 2.72222H19.2C19.2 3.40338 18.6566 3.94444 18 3.94444V4.44444V4.94444C19.2211 4.94444 20.2 3.94338 20.2 2.72222H19.7ZM18 4.44444V3.94444C17.3434 3.94444 16.8 3.40338 16.8 2.72222H16.3H15.8C15.8 3.94338 16.7789 4.94444 18 4.94444V4.44444ZM16.3 2.72222H16.8C16.8 2.04107 17.3434 1.5 18 1.5V1V0.5C16.7789 0.5 15.8 1.50106 15.8 2.72222H16.3ZM18 1V1.5C18.6566 1.5 19.2 2.04107 19.2 2.72222H19.7H20.2C20.2 1.50106 19.2211 0.5 18 0.5V1Z" fill="white"/>
</svg>
