<svg width="33" height="33" viewBox="0 0 33 33" fill="none" xmlns="http://www.w3.org/2000/svg">
<path fill-rule="evenodd" clip-rule="evenodd" d="M16.4992 20.9281C14.0532 20.9281 12.0703 18.9452 12.0703 16.4992C12.0703 14.0532 14.0532 12.0703 16.4992 12.0703C18.9452 12.0703 20.9281 14.0532 20.9281 16.4992C20.9281 17.6738 20.4615 18.8003 19.6309 19.6309C18.8003 20.4615 17.6738 20.9281 16.4992 20.9281Z" stroke="white" stroke-width="1.5" stroke-linecap="round" stroke-linejoin="round"/>
<path fill-rule="evenodd" clip-rule="evenodd" d="M28.2753 25.4984V22.5266C28.2753 21.7907 28.5677 21.085 29.088 20.5646L31.1895 18.4631C32.2731 17.3795 32.2731 15.6227 31.1895 14.5391L29.088 12.4376C28.5677 11.9172 28.2753 11.2115 28.2753 10.4756V7.5016C28.2753 5.96917 27.033 4.72689 25.5006 4.72689H22.5266C21.7907 4.72689 21.085 4.43455 20.5646 3.91419L18.4631 1.81268C17.3795 0.729106 15.6227 0.729106 14.5391 1.81268L12.4376 3.91419C11.9172 4.43455 11.2115 4.72689 10.4756 4.72689H7.5016C6.76531 4.72689 6.05922 5.01953 5.5388 5.54037C5.01838 6.0612 4.72631 6.76753 4.72689 7.50381V10.4756C4.72689 11.2115 4.43455 11.9172 3.91419 12.4376L1.81268 14.5391C0.729106 15.6227 0.729106 17.3795 1.81268 18.4631L3.91419 20.5646C4.43455 21.085 4.72689 21.7907 4.72689 22.5266V25.4984C4.72689 27.0308 5.96917 28.2731 7.5016 28.2731H10.4756C11.2115 28.2731 11.9172 28.5655 12.4376 29.0858L14.5391 31.1873C15.6227 32.2709 17.3795 32.2709 18.4631 31.1873L20.5646 29.0858C21.085 28.5655 21.7907 28.2731 22.5266 28.2731H25.4984C26.2347 28.2737 26.941 27.9816 27.4618 27.4612C27.9827 26.9408 28.2753 26.2347 28.2753 25.4984Z" stroke="white" stroke-width="1.5" stroke-linecap="round" stroke-linejoin="round"/>
</svg>
