<svg width="33" height="33" viewBox="0 0 33 33" fill="none" xmlns="http://www.w3.org/2000/svg">
<path d="M0.742752 9.4284C0.505962 9.57047 0.429179 9.8776 0.571254 10.1144C0.713328 10.3512 1.02046 10.428 1.25725 10.2859L0.742752 9.4284ZM12.0714 3.21429L12.3714 2.81429C12.2088 2.69231 11.9885 2.68095 11.8142 2.78554L12.0714 3.21429ZM20.9286 9.85714L20.6286 10.2571C20.811 10.394 21.0629 10.39 21.2409 10.2476L20.9286 9.85714ZM32.3123 1.39043C32.528 1.21793 32.5629 0.903283 32.3904 0.687652C32.2179 0.472022 31.9033 0.437061 31.6877 0.609566L32.3123 1.39043ZM29.2857 32C29.2857 32.2761 29.5096 32.5 29.7857 32.5C30.0619 32.5 30.2857 32.2761 30.2857 32H29.2857ZM30.2857 14.2857C30.2857 14.0096 30.0619 13.7857 29.7857 13.7857C29.5096 13.7857 29.2857 14.0096 29.2857 14.2857H30.2857ZM11.5714 32C11.5714 32.2761 11.7953 32.5 12.0714 32.5C12.3476 32.5 12.5714 32.2761 12.5714 32H11.5714ZM12.5714 14.2857C12.5714 14.0096 12.3476 13.7857 12.0714 13.7857C11.7953 13.7857 11.5714 14.0096 11.5714 14.2857H12.5714ZM20.4286 32C20.4286 32.2761 20.6524 32.5 20.9286 32.5C21.2047 32.5 21.4286 32.2761 21.4286 32H20.4286ZM21.4286 20.9286C21.4286 20.6524 21.2047 20.4286 20.9286 20.4286C20.6524 20.4286 20.4286 20.6524 20.4286 20.9286H21.4286ZM2.71429 32C2.71429 32.2761 2.93814 32.5 3.21429 32.5C3.49043 32.5 3.71429 32.2761 3.71429 32H2.71429ZM3.71429 20.9286C3.71429 20.6524 3.49043 20.4286 3.21429 20.4286C2.93814 20.4286 2.71429 20.6524 2.71429 20.9286H3.71429ZM1 9.85714L1.25725 10.2859L12.3287 3.64303L12.0714 3.21429L11.8142 2.78554L0.742752 9.4284L1 9.85714ZM12.0714 3.21429L11.7714 3.61429L20.6286 10.2571L20.9286 9.85714L21.2286 9.45714L12.3714 2.81429L12.0714 3.21429ZM20.9286 9.85714L21.2409 10.2476L32.3123 1.39043L32 1L31.6877 0.609566L20.6162 9.46671L20.9286 9.85714ZM29.7857 32H30.2857V14.2857H29.7857H29.2857V32H29.7857ZM12.0714 32H12.5714V14.2857H12.0714H11.5714V32H12.0714ZM20.9286 32H21.4286V20.9286H20.9286H20.4286V32H20.9286ZM3.21429 32H3.71429V20.9286H3.21429H2.71429V32H3.21429Z" fill="white"/>
</svg>
