<svg width="37" height="33" viewBox="0 0 37 33" fill="none" xmlns="http://www.w3.org/2000/svg">
<path d="M14.7314 17.0347C14.4915 17.1716 14.4081 17.477 14.5449 17.7168C14.6818 17.9566 14.9872 18.0401 15.227 17.9032L14.7314 17.0347ZM28.8065 10.1531C29.0463 10.0162 29.1298 9.71085 28.9929 9.47102C28.8561 9.23119 28.5507 9.14773 28.3108 9.2846L28.8065 10.1531ZM15.1073 16.9852C14.8404 16.9145 14.5666 17.0735 14.4959 17.3404C14.4251 17.6073 14.5842 17.8811 14.8511 17.9518L15.1073 16.9852ZM20.2058 19.3712C20.4727 19.442 20.7465 19.2829 20.8172 19.016C20.888 18.7491 20.729 18.4754 20.462 18.4046L20.2058 19.3712ZM14.5057 17.339C14.4335 17.6055 14.591 17.8801 14.8575 17.9524C15.1241 18.0246 15.3987 17.8671 15.4709 17.6006L14.5057 17.339ZM16.9059 12.3062C16.9782 12.0396 16.8207 11.765 16.5541 11.6928C16.2876 11.6205 16.013 11.778 15.9408 12.0446L16.9059 12.3062ZM28.6702 9.22759C28.4008 9.16697 28.1333 9.33623 28.0727 9.60563C28.0121 9.87504 28.1813 10.1426 28.4507 10.2032L28.6702 9.22759ZM36.3234 11.9746C36.5928 12.0353 36.8603 11.866 36.9209 11.5966C36.9815 11.3272 36.8123 11.0597 36.5429 10.999L36.3234 11.9746ZM28.0809 9.57511C28.0028 9.83998 28.1542 10.118 28.4191 10.1961C28.684 10.2742 28.962 10.1228 29.0401 9.8579L28.0809 9.57511ZM31.3498 2.02366C31.4279 1.75879 31.2765 1.48077 31.0116 1.40267C30.7468 1.32458 30.4687 1.476 30.3906 1.74087L31.3498 2.02366ZM32.8596 16.5004C32.8596 16.2243 32.6357 16.0005 32.3595 16.0005C32.0834 16.0006 31.8596 16.2245 31.8596 16.5006L32.8596 16.5004ZM31.8259 20.5128L32.3083 20.6445L32.3085 20.6436L31.8259 20.5128ZM24.518 29.9237L24.271 29.4889L24.2704 29.4893L24.518 29.9237ZM7.13393 28.7966L6.83177 29.195L6.83235 29.1954L7.13393 28.7966ZM3.10349 24.2506L3.53519 23.9983L3.53496 23.9979L3.10349 24.2506ZM2.61851 9.63614L2.17151 9.4121L2.17124 9.41264L2.61851 9.63614ZM8.84133 3.07735L9.08855 3.51195L9.08893 3.51173L8.84133 3.07735ZM24.2726 3.51173C24.5125 3.64848 24.8178 3.56485 24.9546 3.32495C25.0913 3.08504 25.0077 2.77971 24.7678 2.64296L24.2726 3.51173ZM26.9813 16.5009C26.9814 16.2248 26.7576 16.0008 26.4814 16.0008C26.2053 16.0007 25.9814 16.2245 25.9813 16.5006L26.9813 16.5009ZM26.1469 19.0074L26.6293 19.1389L26.6294 19.1383L26.1469 19.0074ZM21.5805 24.8908L21.3334 24.4561L21.333 24.4564L21.5805 24.8908ZM10.7161 24.1867L10.414 24.5851L10.4145 24.5855L10.7161 24.1867ZM8.19594 21.3457L8.62757 21.0933L8.62746 21.0931L8.19594 21.3457ZM7.89255 12.2161L7.44543 11.9923L7.44521 11.9927L7.89255 12.2161ZM11.7835 8.11074L12.0309 8.54522L12.031 8.54515L11.7835 8.11074ZM21.3352 8.54515C21.5751 8.68188 21.8804 8.59823 22.0172 8.35832C22.1539 8.11841 22.0702 7.81307 21.8303 7.67634L21.3352 8.54515ZM15.227 17.9032L28.8065 10.1531L28.3108 9.2846L14.7314 17.0347L15.227 17.9032ZM14.8511 17.9518L20.2058 19.3712L20.462 18.4046L15.1073 16.9852L14.8511 17.9518ZM15.4709 17.6006L16.9059 12.3062L15.9408 12.0446L14.5057 17.339L15.4709 17.6006ZM28.4507 10.2032L36.3234 11.9746L36.5429 10.999L28.6702 9.22759L28.4507 10.2032ZM29.0401 9.8579L31.3498 2.02366L30.3906 1.74087L28.0809 9.57511L29.0401 9.8579ZM31.8596 16.5006C31.8598 17.8115 31.6862 19.1167 31.3433 20.3821L32.3085 20.6436C32.6745 19.293 32.8599 17.8998 32.8596 16.5004L31.8596 16.5006ZM31.3435 20.3812C30.2913 24.2369 27.7461 27.5144 24.271 29.4889L24.765 30.3584C28.4714 28.2525 31.186 24.7568 32.3083 20.6445L31.3435 20.3812ZM24.2704 29.4893C18.9453 32.5239 12.3241 32.0946 7.43552 28.3978L6.83235 29.1954C12.0399 33.1334 19.093 33.5907 24.7655 30.3581L24.2704 29.4893ZM7.43609 28.3982C5.85922 27.2022 4.53365 25.7071 3.53519 23.9983L2.67179 24.5029C3.73657 26.3251 5.15018 27.9195 6.83177 29.195L7.43609 28.3982ZM3.53496 23.9979C0.999024 19.6673 0.822532 14.3488 3.06578 9.85964L2.17124 9.41264C-0.223101 14.2042 -0.0347189 19.8809 2.67203 24.5033L3.53496 23.9979ZM3.06551 9.86017C4.40123 7.19514 6.49724 4.98596 9.08855 3.51195L8.59411 2.64274C5.83091 4.21452 3.59585 6.57026 2.17151 9.4121L3.06551 9.86017ZM9.08893 3.51173C13.7947 0.829422 19.5668 0.829422 24.2726 3.51173L24.7678 2.64296C19.7551 -0.214319 13.6064 -0.214319 8.59373 2.64296L9.08893 3.51173ZM25.9813 16.5006C25.9811 17.3031 25.8745 18.102 25.6643 18.8764L26.6294 19.1383C26.8627 18.2786 26.9811 17.3917 26.9813 16.5009L25.9813 16.5006ZM25.6645 18.8759C25.0206 21.2379 23.462 23.2461 21.3334 24.4561L21.8276 25.3255C24.1874 23.984 25.9154 21.7576 26.6293 19.1389L25.6645 18.8759ZM21.333 24.4564C18.0701 26.3157 14.0132 26.0528 11.0176 23.7878L10.4145 24.5855C13.729 27.0915 18.2178 27.3825 21.8281 25.3252L21.333 24.4564ZM11.0181 23.7882C10.0519 23.0557 9.23953 22.14 8.62757 21.0933L7.7643 21.5981C8.44261 22.7582 9.34302 23.7732 10.414 24.5851L11.0181 23.7882ZM8.62746 21.0931C7.076 18.4423 6.96784 15.1874 8.33989 12.4394L7.44521 11.9927C5.92224 15.043 6.04231 18.6558 7.76441 21.5982L8.62746 21.0931ZM8.33966 12.4399C9.15786 10.8053 10.4424 9.44992 12.0309 8.54522L11.536 7.67627C9.77568 8.67884 8.35215 10.1808 7.44543 11.9923L8.33966 12.4399ZM12.031 8.54515C14.9147 6.90171 18.4516 6.90171 21.3352 8.54515L21.8303 7.67634C18.6398 5.85798 14.7264 5.85798 11.5359 7.67634L12.031 8.54515Z" fill="white"/>
</svg>
