<svg width="19" height="22" viewBox="0 0 19 22" fill="none" xmlns="http://www.w3.org/2000/svg">
<path d="M14.8217 4.1344C14.0886 3.29394 13.6479 2.19805 13.6479 1L12.7293 1M14.8217 4.1344C15.4898 4.90063 16.3944 5.45788 17.4245 5.67608C17.7446 5.74574 18.0786 5.78293 18.4266 5.78293V9.21913C16.645 9.21913 14.9932 8.64801 13.6477 7.68211V14.6707C13.6477 18.1627 10.8082 21 7.32386 21C5.50043 21 3.85334 20.2198 2.69806 18.98C1.64486 17.847 0.999939 16.3331 0.999939 14.6707C0.999939 11.2298 3.75592 8.42509 7.17073 8.35079M14.8217 4.1344C14.8039 4.12276 14.7861 4.11101 14.7684 4.09914M4.9855 16.3517C4.64217 15.8781 4.43802 15.2977 4.43802 14.6661C4.43802 13.0734 5.73249 11.7778 7.32394 11.7778C7.62087 11.7778 7.9085 11.8288 8.17761 11.9124V8.40192C7.89921 8.36473 7.61622 8.34149 7.32394 8.34149C7.27287 8.34149 6.86177 8.36884 6.81073 8.36884M12.7244 1H10.2097L10.2051 14.7775C10.1494 16.3192 8.8781 17.5591 7.32386 17.5591C6.35878 17.5591 5.50971 17.0808 4.98079 16.3564" stroke="black" stroke-width="0.75" stroke-linejoin="round"/>
</svg>
