<svg width="154" height="77" viewBox="0 0 154 77" fill="none" xmlns="http://www.w3.org/2000/svg">
<path d="M25.9989 0C22.3029 1.43478 16.5043 6.69565 17.0326 11C21.7792 8.6087 24.9429 5.26087 25.9989 0Z" fill="white"/>
<path d="M15.4352 0.99703C13.1156 4.01949 11.0171 11.5052 13.6565 15.184C16.3546 10.8022 17.2551 6.28276 15.4352 0.99703Z" fill="white"/>
<path d="M22.7128 9.96097C19.0322 10.9451 12.8081 15.6034 12.6605 20.1287C17.4692 18.2972 20.9364 15.2615 22.7128 9.96097Z" fill="white"/>
<path d="M15.1793 20.9963C12.2437 23.4248 8.52754 30.2534 10.2794 34.4285C13.8873 30.7593 15.7738 26.5548 15.1793 20.9963Z" fill="white"/>
<path d="M13.2247 32.5418C11.4333 36.7417 11.1772 45.9246 15.2604 49.2104C17.0954 43.3439 16.8298 37.9222 13.2247 32.5418Z" fill="white"/>
<path d="M17.2525 45.3695C17.5733 50.1772 21.5526 58.8019 26.7145 59.736C25.6688 53.3645 22.9462 48.4871 17.2525 45.3695Z" fill="white"/>
<path d="M26.9471 54.8104C28.9193 59.0644 35.9446 65.6484 41.5524 64.9056C38.303 59.4588 33.8463 55.8809 26.9471 54.8104Z" fill="white"/>
<path d="M34.1381 76.0571C37.207 74.9635 41.8959 71.3997 41.2689 68.7874C37.3507 70.5288 34.8124 72.7664 34.1381 76.0571Z" fill="white"/>
<path d="M9.80512 7.78401C7.81997 11.1273 6.6201 19.0674 9.77222 22.627C11.9726 17.8422 12.3235 13.0825 9.80512 7.78401Z" fill="white"/>
<path d="M2.45404 15.5262C1.97992 19.536 4.07962 27.4297 8.40756 29.2579C8.49807 23.8162 6.90137 19.2551 2.45404 15.5262Z" fill="white"/>
<path d="M2.48854 26.3618C2.43507 30.3087 5.2454 37.736 9.58913 39.0222C9.13018 33.7282 7.13772 29.48 2.48854 26.3618Z" fill="white"/>
<path d="M0 36.0022C1.3398 39.7802 6.72448 45.9078 11.4511 45.6683C9.13209 40.78 5.67343 37.4049 0 36.0022Z" fill="white"/>
<path d="M4.99596 45.824C7.0812 50.0347 14.065 56.3706 19.3287 55.3642C15.974 50.0059 11.5747 46.5919 4.99596 45.824Z" fill="white"/>
<path d="M6.8219 56.6066C10.4867 59.5631 19.5517 62.392 23.9951 59.2585C18.6843 55.7914 13.2124 54.535 6.8219 56.6066Z" fill="white"/>
<path d="M15.7204 64.5076C19.9982 66.6046 29.3724 67.4417 32.7507 63.4673C26.7716 61.2213 21.2346 61.1537 15.7204 64.5076Z" fill="white"/>
<path d="M23.7912 69.1821C28.2404 70.8463 37.5569 70.7988 40.4215 66.578C34.2818 64.9254 28.828 65.3731 23.7912 69.1821Z" fill="white"/>
<path d="M127.116 0C130.812 1.43478 136.611 6.69565 136.082 11C131.336 8.6087 128.172 5.26087 127.116 0Z" fill="white"/>
<path d="M137.68 0.99703C139.999 4.01949 142.098 11.5052 139.458 15.184C136.76 10.8022 135.86 6.28276 137.68 0.99703Z" fill="white"/>
<path d="M130.402 9.96097C134.083 10.9451 140.307 15.6034 140.454 20.1287C135.646 18.2972 132.178 15.2615 130.402 9.96097Z" fill="white"/>
<path d="M137.936 20.9963C140.871 23.4248 144.587 30.2534 142.835 34.4285C139.228 30.7593 137.341 26.5548 137.936 20.9963Z" fill="white"/>
<path d="M139.89 32.5418C141.682 36.7417 141.938 45.9246 137.855 49.2104C136.02 43.3439 136.285 37.9222 139.89 32.5418Z" fill="white"/>
<path d="M135.862 45.3695C135.542 50.1772 131.562 58.8019 126.4 59.736C127.446 53.3645 130.169 48.4871 135.862 45.3695Z" fill="white"/>
<path d="M126.168 54.8104C124.196 59.0644 117.17 65.6484 111.562 64.9056C114.812 59.4588 119.269 55.8809 126.168 54.8104Z" fill="white"/>
<path d="M118.977 76.0571C115.908 74.9635 111.219 71.3997 111.846 68.7874C115.764 70.5288 118.303 72.7664 118.977 76.0571Z" fill="white"/>
<path d="M143.31 7.78401C145.295 11.1273 146.495 19.0674 143.343 22.627C141.142 17.8422 140.791 13.0825 143.31 7.78401Z" fill="white"/>
<path d="M150.661 15.5262C151.135 19.536 149.035 27.4297 144.707 29.2579C144.617 23.8162 146.214 19.2551 150.661 15.5262Z" fill="white"/>
<path d="M150.626 26.3618C150.68 30.3087 147.87 37.736 143.526 39.0222C143.985 33.7282 145.977 29.48 150.626 26.3618Z" fill="white"/>
<path d="M153.115 36.0022C151.775 39.7802 146.39 45.9078 141.664 45.6683C143.983 40.78 147.442 37.4049 153.115 36.0022Z" fill="white"/>
<path d="M148.119 45.824C146.034 50.0347 139.05 56.3706 133.786 55.3642C137.141 50.0059 141.54 46.5919 148.119 45.824Z" fill="white"/>
<path d="M146.293 56.6066C142.628 59.5631 133.563 62.392 129.12 59.2585C134.431 55.7914 139.903 54.535 146.293 56.6066Z" fill="white"/>
<path d="M137.394 64.5076C133.117 66.6046 123.743 67.4417 120.364 63.4673C126.343 61.2213 131.88 61.1537 137.394 64.5076Z" fill="white"/>
<path d="M129.324 69.1821C124.875 70.8463 115.558 70.7988 112.693 66.578C118.833 64.9254 124.287 65.3731 129.324 69.1821Z" fill="white"/>
</svg>
