<svg width="43" height="77" viewBox="0 0 43 77" fill="none" xmlns="http://www.w3.org/2000/svg">
<path d="M16.116 0C19.8121 1.43478 25.6106 6.69565 25.0823 11C20.3357 8.6087 17.172 5.26087 16.116 0Z" fill="white"/>
<path d="M26.6798 0.99703C28.9993 4.01949 31.0979 11.5052 28.4584 15.184C25.7604 10.8022 24.8598 6.28276 26.6798 0.99703Z" fill="white"/>
<path d="M19.4021 9.96097C23.0827 10.9451 29.3068 15.6034 29.4545 20.1287C24.6457 18.2972 21.1785 15.2615 19.4021 9.96097Z" fill="white"/>
<path d="M26.9356 20.9963C29.8712 23.4248 33.5874 30.2534 31.8355 34.4285C28.2277 30.7593 26.3412 26.5548 26.9356 20.9963Z" fill="white"/>
<path d="M28.8902 32.5418C30.6817 36.7417 30.9377 45.9246 26.8546 49.2104C25.0196 43.3439 25.2851 37.9222 28.8902 32.5418Z" fill="white"/>
<path d="M24.8624 45.3695C24.5416 50.1772 20.5623 58.8019 15.4005 59.736C16.4461 53.3645 19.1687 48.4871 24.8624 45.3695Z" fill="white"/>
<path d="M15.1679 54.8104C13.1956 59.0644 6.17029 65.6484 0.5625 64.9056C3.81198 59.4588 8.26865 55.8809 15.1679 54.8104Z" fill="white"/>
<path d="M7.97682 76.0571C4.90797 74.9635 0.219072 71.3997 0.846012 68.7874C4.76422 70.5288 7.30255 72.7664 7.97682 76.0571Z" fill="white"/>
<path d="M32.3098 7.78401C34.295 11.1273 35.4948 19.0674 32.3427 22.627C30.1423 17.8422 29.7914 13.0825 32.3098 7.78401Z" fill="white"/>
<path d="M39.6609 15.5262C40.135 19.536 38.0353 27.4297 33.7074 29.2579C33.6169 23.8162 35.2136 19.2551 39.6609 15.5262Z" fill="white"/>
<path d="M39.6264 26.3618C39.6799 30.3087 36.8695 37.736 32.5258 39.0222C32.9848 33.7282 34.9772 29.48 39.6264 26.3618Z" fill="white"/>
<path d="M42.1149 36.0022C40.7751 39.7802 35.3905 45.9078 30.6638 45.6683C32.9828 40.78 36.4415 37.4049 42.1149 36.0022Z" fill="white"/>
<path d="M37.119 45.824C35.0337 50.0347 28.05 56.3706 22.7862 55.3642C26.1409 50.0059 30.5402 46.5919 37.119 45.824Z" fill="white"/>
<path d="M35.293 56.6066C31.6282 59.5631 22.5632 62.392 18.1198 59.2585C23.4307 55.7914 28.9025 54.535 35.293 56.6066Z" fill="white"/>
<path d="M26.3945 64.5076C22.1167 66.6046 12.7425 67.4417 9.36426 63.4673C15.3434 61.2213 20.8804 61.1537 26.3945 64.5076Z" fill="white"/>
<path d="M18.3237 69.1821C13.8745 70.8463 4.55801 70.7988 1.69345 66.578C7.83313 64.9254 13.2869 65.3731 18.3237 69.1821Z" fill="white"/>
</svg>
