<svg width="42" height="77" viewBox="0 0 42 77" fill="none" xmlns="http://www.w3.org/2000/svg">
<path d="M25.9989 0C22.3029 1.43478 16.5043 6.69565 17.0326 11C21.7792 8.6087 24.9429 5.26087 25.9989 0Z" fill="white"/>
<path d="M15.4352 0.99703C13.1156 4.01949 11.0171 11.5052 13.6565 15.184C16.3546 10.8022 17.2551 6.28276 15.4352 0.99703Z" fill="white"/>
<path d="M22.7128 9.96097C19.0322 10.9451 12.8081 15.6034 12.6605 20.1287C17.4692 18.2972 20.9364 15.2615 22.7128 9.96097Z" fill="white"/>
<path d="M15.1793 20.9963C12.2437 23.4248 8.52754 30.2534 10.2794 34.4285C13.8873 30.7593 15.7738 26.5548 15.1793 20.9963Z" fill="white"/>
<path d="M13.2247 32.5418C11.4333 36.7417 11.1772 45.9246 15.2604 49.2104C17.0954 43.3439 16.8298 37.9222 13.2247 32.5418Z" fill="white"/>
<path d="M17.2525 45.3695C17.5733 50.1772 21.5526 58.8019 26.7145 59.736C25.6688 53.3645 22.9462 48.4871 17.2525 45.3695Z" fill="white"/>
<path d="M26.9471 54.8104C28.9193 59.0644 35.9446 65.6484 41.5524 64.9056C38.303 59.4588 33.8463 55.8809 26.9471 54.8104Z" fill="white"/>
<path d="M34.1381 76.0571C37.207 74.9635 41.8959 71.3997 41.2689 68.7874C37.3507 70.5288 34.8124 72.7664 34.1381 76.0571Z" fill="white"/>
<path d="M9.80512 7.78401C7.81997 11.1273 6.6201 19.0674 9.77222 22.627C11.9726 17.8422 12.3235 13.0825 9.80512 7.78401Z" fill="white"/>
<path d="M2.45404 15.5262C1.97992 19.536 4.07962 27.4297 8.40756 29.2579C8.49807 23.8162 6.90137 19.2551 2.45404 15.5262Z" fill="white"/>
<path d="M2.48854 26.3618C2.43507 30.3087 5.2454 37.736 9.58913 39.0222C9.13018 33.7282 7.13772 29.48 2.48854 26.3618Z" fill="white"/>
<path d="M0 36.0022C1.3398 39.7802 6.72448 45.9078 11.4511 45.6683C9.13209 40.78 5.67343 37.4049 0 36.0022Z" fill="white"/>
<path d="M4.99596 45.824C7.0812 50.0347 14.065 56.3706 19.3287 55.3642C15.974 50.0059 11.5747 46.5919 4.99596 45.824Z" fill="white"/>
<path d="M6.8219 56.6066C10.4867 59.5631 19.5517 62.392 23.9951 59.2585C18.6843 55.7914 13.2124 54.535 6.8219 56.6066Z" fill="white"/>
<path d="M15.7204 64.5076C19.9982 66.6046 29.3724 67.4417 32.7507 63.4673C26.7716 61.2213 21.2346 61.1537 15.7204 64.5076Z" fill="white"/>
<path d="M23.7912 69.1821C28.2404 70.8463 37.5569 70.7988 40.4215 66.578C34.2818 64.9254 28.828 65.3731 23.7912 69.1821Z" fill="white"/>
</svg>
